# Blender 3.6.2
# www.blender.org
mtllib lightcrystal.mtl
o object0
v 0.000000 -0.320000 0.064000
v 0.064000 -0.320000 0.000000
v 0.000000 0.000000 0.000000
v 0.000000 -0.320000 -0.064000
v -0.064000 -0.320000 0.000000
v 0.000000 -0.640000 0.000000
v 0.000000 0.320000 0.064000
v -0.064000 0.320000 -0.000000
v 0.000000 0.320000 -0.064000
v 0.064000 0.320000 -0.000000
v 0.000000 0.640000 -0.000000
v 0.226000 0.226000 0.064000
v 0.182000 0.272000 -0.000000
v 0.226000 0.226000 -0.064000
v 0.272000 0.182000 -0.000000
v 0.452000 0.452000 -0.000000
v 0.320000 0.000000 0.064000
v 0.320000 0.064000 -0.000000
v 0.320000 -0.000000 -0.064000
v 0.320000 -0.064000 0.000000
v 0.640000 0.000000 0.000000
v 0.226000 -0.226000 0.064000
v 0.272000 -0.182000 0.000000
v 0.226000 -0.226000 -0.064000
v 0.182000 -0.272000 0.000000
v 0.452000 -0.452000 0.000000
v -0.226000 -0.226000 0.064000
v -0.182000 -0.272000 0.000000
v -0.226000 -0.226000 -0.064000
v -0.272000 -0.182000 0.000000
v -0.452000 -0.452000 0.000000
v -0.320000 0.000000 0.064000
v -0.320000 -0.064000 0.000000
v -0.320000 -0.000000 -0.064000
v -0.320000 0.064000 -0.000000
v -0.640000 0.000000 0.000000
v -0.226000 0.226000 0.064000
v -0.272000 0.182000 -0.000000
v -0.226000 0.226000 -0.064000
v -0.182000 0.272000 -0.000000
v -0.452000 0.452000 -0.000000
v 0.114000 0.226000 0.206000
v 0.128000 0.272000 0.128000
v 0.206000 0.226000 0.114000
v 0.192000 0.182000 0.192000
v 0.320000 0.452000 0.320000
v 0.182000 0.000000 0.272000
v 0.226000 0.064000 0.226000
v 0.272000 0.000000 0.182000
v 0.226000 -0.064000 0.226000
v 0.452000 0.000000 0.452000
v 0.114000 -0.226000 0.206000
v 0.192000 -0.182000 0.192000
v 0.206000 -0.226000 0.114000
v 0.128000 -0.272000 0.128000
v 0.320000 -0.452000 0.320000
v -0.206000 -0.226000 -0.114000
v -0.128000 -0.272000 -0.128000
v -0.114000 -0.226000 -0.206000
v -0.192000 -0.182000 -0.192000
v -0.320000 -0.452000 -0.320000
v -0.272000 -0.000000 -0.182000
v -0.226000 -0.064000 -0.226000
v -0.182000 -0.000000 -0.272000
v -0.226000 0.064000 -0.226000
v -0.452000 -0.000000 -0.452000
v -0.206000 0.226000 -0.114000
v -0.192000 0.182000 -0.192000
v -0.114000 0.226000 -0.206000
v -0.128000 0.272000 -0.128000
v -0.320000 0.452000 -0.320000
v -0.064000 0.226000 0.226000
v 0.000000 0.272000 0.182000
v 0.064000 0.226000 0.226000
v 0.000000 0.182000 0.272000
v 0.000000 0.452000 0.452000
v -0.064000 0.000000 0.320000
v 0.000000 0.064000 0.320000
v 0.064000 0.000000 0.320000
v 0.000000 -0.064000 0.320000
v 0.000000 0.000000 0.640000
v -0.064000 -0.226000 0.226000
v 0.000000 -0.182000 0.272000
v 0.064000 -0.226000 0.226000
v 0.000000 -0.272000 0.182000
v 0.000000 -0.452000 0.452000
v -0.064000 -0.226000 -0.226000
v 0.000000 -0.272000 -0.182000
v 0.064000 -0.226000 -0.226000
v 0.000000 -0.182000 -0.272000
v 0.000000 -0.452000 -0.452000
v -0.064000 -0.000000 -0.320000
v 0.000000 -0.064000 -0.320000
v 0.064000 -0.000000 -0.320000
v 0.000000 0.064000 -0.320000
v 0.000000 -0.000000 -0.640000
v -0.064000 0.226000 -0.226000
v 0.000000 0.182000 -0.272000
v 0.064000 0.226000 -0.226000
v 0.000000 0.272000 -0.182000
v 0.000000 0.452000 -0.452000
v -0.206000 0.226000 0.114000
v -0.128000 0.272000 0.128000
v -0.114000 0.226000 0.206000
v -0.192000 0.182000 0.192000
v -0.320000 0.452000 0.320000
v -0.272000 0.000000 0.182000
v -0.226000 0.064000 0.226000
v -0.182000 0.000000 0.272000
v -0.226000 -0.064000 0.226000
v -0.452000 0.000000 0.452000
v -0.206000 -0.226000 0.114000
v -0.192000 -0.182000 0.192000
v -0.114000 -0.226000 0.206000
v -0.128000 -0.272000 0.128000
v -0.320000 -0.452000 0.320000
v 0.114000 -0.226000 -0.206000
v 0.128000 -0.272000 -0.128000
v 0.206000 -0.226000 -0.114000
v 0.192000 -0.182000 -0.192000
v 0.320000 -0.452000 -0.320000
v 0.182000 -0.000000 -0.272000
v 0.226000 -0.064000 -0.226000
v 0.272000 -0.000000 -0.182000
v 0.226000 0.064000 -0.226000
v 0.452000 -0.000000 -0.452000
v 0.114000 0.226000 -0.206000
v 0.192000 0.182000 -0.192000
v 0.206000 0.226000 -0.114000
v 0.128000 0.272000 -0.128000
v 0.320000 0.452000 -0.320000
vn 0.7001 0.1400 0.7001
vn 0.7001 0.1400 -0.7001
vn -0.7001 0.1400 -0.7001
vn -0.7001 0.1400 0.7001
vn 0.7001 -0.1400 -0.7001
vn 0.7001 -0.1400 0.7001
vn -0.7001 -0.1400 0.7001
vn -0.7001 -0.1400 -0.7001
vn -0.5940 0.3960 0.7002
vn -0.5940 0.3960 -0.7002
vn 0.3960 -0.5940 -0.7002
vn 0.3960 -0.5940 0.7002
vn -0.3960 0.5941 -0.7002
vn -0.3960 0.5941 0.7002
vn 0.5941 -0.3960 0.7002
vn 0.5941 -0.3960 -0.7002
vn -0.1400 0.7001 0.7001
vn -0.1400 0.7001 -0.7001
vn -0.1400 -0.7001 -0.7001
vn -0.1400 -0.7001 0.7001
vn 0.1400 0.7001 -0.7001
vn 0.1400 0.7001 0.7001
vn 0.1400 -0.7001 0.7001
vn 0.1400 -0.7001 -0.7001
vn 0.3960 0.5940 0.7002
vn 0.3960 0.5940 -0.7002
vn -0.5940 -0.3960 -0.7002
vn -0.5940 -0.3960 0.7002
vn 0.5941 0.3960 -0.7002
vn 0.5941 0.3960 0.7002
vn -0.3960 -0.5941 0.7002
vn -0.3960 -0.5941 -0.7002
vn 0.5940 -0.3960 0.7002
vn 0.5940 -0.3960 -0.7002
vn -0.3960 0.5940 -0.7002
vn -0.3960 0.5940 0.7002
vn 0.3960 -0.5941 -0.7002
vn 0.3960 -0.5941 0.7002
vn -0.5941 0.3960 0.7002
vn -0.5941 0.3960 -0.7002
vn -0.3960 -0.5940 0.7002
vn -0.3960 -0.5940 -0.7002
vn 0.5940 0.3960 -0.7002
vn 0.5940 0.3960 0.7002
vn -0.5941 -0.3960 -0.7002
vn -0.5941 -0.3960 0.7002
vn 0.3960 0.5941 0.7002
vn 0.3960 0.5941 -0.7002
vn -0.9152 0.3961 0.0749
vn 0.0749 0.3961 -0.9152
vn 0.7752 -0.5940 -0.2151
vn -0.2151 -0.5940 0.7752
vn 0.2151 0.5940 -0.7751
vn -0.7751 0.5940 0.2151
vn -0.0750 -0.3960 0.9152
vn 0.9151 -0.3962 -0.0751
vn 0.9152 -0.3960 -0.0750
vn -0.5940 0.7002 0.3960
vn 0.3960 0.7002 -0.5940
vn 0.3960 -0.7002 -0.5940
vn -0.5940 -0.7002 0.3960
vn 0.5941 0.7001 -0.3961
vn -0.3960 0.7002 0.5941
vn -0.3960 -0.7002 0.5941
vn 0.5941 -0.7001 -0.3961
vn -0.2151 0.5940 0.7752
vn 0.7752 0.5940 -0.2151
vn 0.0749 -0.3961 -0.9152
vn -0.9152 -0.3961 0.0749
vn 0.9152 0.3960 -0.0750
vn -0.0751 0.3962 0.9151
vn -0.0750 0.3960 0.9152
vn -0.7751 -0.5940 0.2151
vn 0.2151 -0.5940 -0.7751
vn -0.0749 -0.3961 0.9152
vn 0.9152 -0.3961 -0.0749
vn 0.2151 0.5940 -0.7752
vn -0.7752 0.5940 0.2151
vn 0.7751 -0.5940 -0.2151
vn -0.2151 -0.5940 0.7751
vn -0.9152 0.3960 0.0750
vn 0.0751 0.3962 -0.9151
vn 0.0750 0.3960 -0.9152
vn -0.3960 -0.7002 0.5940
vn 0.5940 -0.7002 -0.3960
vn 0.5940 0.7002 -0.3960
vn -0.3960 0.7002 0.5940
vn 0.3960 -0.7002 -0.5941
vn -0.5941 -0.7001 0.3961
vn -0.5941 0.7001 0.3961
vn 0.3960 0.7002 -0.5941
vn -0.7752 -0.5940 0.2151
vn 0.2151 -0.5940 -0.7752
vn 0.9152 0.3961 -0.0749
vn -0.0749 0.3961 0.9152
vn 0.0750 -0.3960 -0.9152
vn -0.9151 -0.3962 0.0751
vn -0.9152 -0.3960 0.0750
vn -0.2151 0.5940 0.7751
vn 0.7751 0.5940 -0.2151
vn -0.7002 0.3960 -0.5940
vn 0.7002 0.3960 -0.5940
vn 0.7002 -0.5940 0.3960
vn -0.7002 -0.5940 0.3960
vn 0.7001 0.5941 -0.3961
vn -0.7001 0.5941 -0.3961
vn -0.7002 -0.3960 0.5941
vn 0.7002 -0.3960 0.5941
vn -0.7001 0.7001 -0.1400
vn 0.7001 0.7001 -0.1400
vn 0.7001 -0.7001 -0.1400
vn -0.7001 -0.7001 -0.1400
vn 0.7001 0.7001 0.1400
vn -0.7001 0.7001 0.1400
vn -0.7001 -0.7001 0.1400
vn 0.7001 -0.7001 0.1400
vn -0.7002 0.5940 0.3960
vn 0.7002 0.5940 0.3960
vn 0.7002 -0.3960 -0.5940
vn -0.7002 -0.3960 -0.5940
vn 0.7002 0.3960 0.5941
vn -0.7002 0.3960 0.5941
vn -0.7001 -0.5941 -0.3961
vn 0.7001 -0.5941 -0.3961
vn -0.7002 -0.3960 0.5940
vn 0.7002 -0.3960 0.5940
vn 0.7002 0.5940 -0.3960
vn -0.7002 0.5940 -0.3960
vn 0.7001 -0.5941 0.3961
vn -0.7001 -0.5941 0.3961
vn -0.7002 0.3960 -0.5941
vn 0.7002 0.3960 -0.5941
vn -0.7002 -0.5940 -0.3960
vn 0.7002 -0.5940 -0.3960
vn 0.7002 0.3960 0.5940
vn -0.7002 0.3960 0.5940
vn 0.7002 -0.3960 -0.5941
vn -0.7002 -0.3960 -0.5941
vn -0.7001 0.5941 0.3961
vn 0.7001 0.5941 0.3961
vn -0.0749 0.3961 -0.9152
vn 0.9152 0.3961 0.0749
vn 0.2151 -0.5940 0.7752
vn -0.7752 -0.5940 -0.2151
vn 0.7751 0.5940 0.2151
vn -0.2151 0.5940 -0.7751
vn -0.9152 -0.3960 -0.0750
vn 0.0751 -0.3962 0.9151
vn 0.0750 -0.3960 0.9152
vn -0.3960 0.7002 -0.5940
vn 0.5940 0.7002 0.3960
vn 0.5940 -0.7002 0.3960
vn -0.3960 -0.7002 -0.5940
vn 0.3960 0.7002 0.5941
vn -0.5941 0.7001 -0.3961
vn -0.5941 -0.7001 -0.3961
vn 0.3960 -0.7002 0.5941
vn -0.7752 0.5940 -0.2151
vn 0.2151 0.5940 0.7752
vn 0.9152 -0.3961 0.0749
vn -0.0749 -0.3961 -0.9152
vn 0.0750 0.3960 0.9152
vn -0.9151 0.3962 -0.0751
vn -0.9152 0.3960 -0.0750
vn -0.2151 -0.5940 -0.7751
vn 0.7751 -0.5940 0.2151
vn -0.9152 -0.3961 -0.0749
vn 0.0749 -0.3961 0.9152
vn 0.7752 0.5940 0.2151
vn -0.2151 0.5940 -0.7752
vn 0.2151 -0.5940 0.7751
vn -0.7751 -0.5940 -0.2151
vn -0.0750 0.3960 -0.9152
vn 0.9151 0.3962 0.0751
vn 0.9152 0.3960 0.0750
vn -0.5940 -0.7002 -0.3960
vn 0.3960 -0.7002 0.5940
vn 0.3960 0.7002 0.5940
vn -0.5940 0.7002 -0.3960
vn 0.5941 -0.7001 0.3961
vn -0.3960 -0.7002 -0.5941
vn -0.3960 0.7002 -0.5941
vn 0.5941 0.7001 0.3961
vn -0.2151 -0.5940 -0.7752
vn 0.7752 -0.5940 0.2151
vn 0.0749 0.3961 0.9152
vn -0.9152 0.3961 -0.0749
vn 0.9152 -0.3960 0.0750
vn -0.0751 -0.3962 -0.9151
vn -0.0750 -0.3960 -0.9152
vn -0.7751 0.5940 -0.2151
vn 0.2151 0.5940 0.7751
vn -0.9151 0.3962 0.0751
vn 0.0751 -0.3962 -0.9151
vn -0.0751 -0.3962 0.9151
vn 0.9151 0.3962 -0.0751
vn -0.0751 0.3962 -0.9151
vn 0.9151 -0.3962 0.0751
vn -0.9151 -0.3962 -0.0751
vn 0.0751 0.3962 0.9151
vt 0.125000 0.875000
vt -0.000000 0.687500
vt 0.968750 0.031250
vt 0.156250 0.843750
vt 0.312500 1.000000
vt 0.156250 0.875000
vt 0.343750 1.000000
vt 0.187500 0.843750
vt -0.000000 0.718750
vt 0.375000 1.000000
vt 0.187500 0.875000
vt -0.000000 0.750000
vt 0.187500 0.906250
vt 0.125000 0.843750
vt 0.156250 0.906250
vt -0.000000 0.656250
vt 0.250000 1.000000
vt 0.968750 0.062500
vt 0.125000 0.812500
vt 0.156250 0.812500
vt 0.281250 1.000000
vt 0.187500 0.812500
vt 0.437500 1.000000
vt -0.000000 0.781250
vt 0.250000 0.906250
vt -0.000000 0.843750
s 0
usemtl mtl10
f 1/1/1 2/2/1 3/3/1
f 2/2/2 4/4/2 3/3/2
f 4/4/3 5/5/3 3/3/3
f 5/5/4 1/1/4 3/3/4
f 4/1/5 2/5/5 6/3/5
f 2/5/6 1/4/6 6/3/6
f 1/4/7 5/2/7 6/3/7
f 5/2/8 4/1/8 6/3/8
f 7/6/7 8/2/7 3/3/7
f 8/2/8 9/4/8 3/3/8
f 9/4/5 10/7/5 3/3/5
f 10/7/6 7/6/6 3/3/6
f 9/8/3 8/9/3 11/3/3
f 8/9/4 7/6/4 11/3/4
f 7/6/1 10/10/1 11/3/1
f 10/10/2 9/8/2 11/3/2
f 12/1/9 13/9/9 3/3/9
f 13/9/10 14/6/10 3/3/10
f 14/6/11 15/5/11 3/3/11
f 15/5/12 12/1/12 3/3/12
f 14/1/13 13/5/13 16/3/13
f 13/5/14 12/6/14 16/3/14
f 12/6/15 15/9/15 16/3/15
f 15/9/16 14/1/16 16/3/16
f 17/11/17 18/10/17 3/3/17
f 18/10/18 19/11/18 3/3/18
f 19/11/19 20/12/19 3/3/19
f 20/12/20 17/11/20 3/3/20
f 19/4/21 18/5/21 21/3/21
f 18/5/22 17/4/22 21/3/22
f 17/4/23 20/2/23 21/3/23
f 20/2/24 19/4/24 21/3/24
f 22/6/25 23/2/25 3/3/25
f 23/2/26 24/6/26 3/3/26
f 24/6/27 25/5/27 3/3/27
f 25/5/28 22/6/28 3/3/28
f 24/6/29 23/5/29 26/3/29
f 23/5/30 22/1/30 26/3/30
f 22/1/31 25/2/31 26/3/31
f 25/2/32 24/6/32 26/3/32
f 27/6/33 28/5/33 3/3/33
f 28/5/34 29/1/34 3/3/34
f 29/1/35 30/9/35 3/3/35
f 30/9/36 27/6/36 3/3/36
f 29/6/37 28/9/37 31/3/37
f 28/9/38 27/1/38 31/3/38
f 27/1/39 30/5/39 31/3/39
f 30/5/40 29/6/40 31/3/40
f 32/4/23 33/7/23 3/3/23
f 33/7/24 34/6/24 3/3/24
f 34/6/21 35/2/21 3/3/21
f 35/2/22 32/4/22 3/3/22
f 34/6/19 33/2/19 36/3/19
f 33/2/20 32/4/20 36/3/20
f 32/4/17 35/7/17 36/3/17
f 35/7/18 34/6/18 36/3/18
f 37/1/41 38/9/41 3/3/41
f 38/9/42 39/6/42 3/3/42
f 39/6/43 40/5/43 3/3/43
f 40/5/44 37/1/44 3/3/44
f 39/1/45 38/5/45 41/3/45
f 38/5/46 37/6/46 41/3/46
f 37/6/47 40/9/47 41/3/47
f 40/9/48 39/1/48 41/3/48
f 42/10/49 43/6/49 3/3/49
f 43/6/50 44/9/50 3/3/50
f 44/9/51 45/11/51 3/3/51
f 45/11/52 42/10/52 3/3/52
f 44/4/53 43/7/53 46/3/53
f 43/7/54 42/13/54 46/3/54
f 42/13/55 45/9/55 46/3/55
f 45/9/56 44/4/57 46/3/57
f 47/4/58 48/2/58 3/3/58
f 48/2/59 49/4/59 3/3/59
f 49/4/60 50/5/60 3/3/60
f 50/5/61 47/4/61 3/3/61
f 49/6/62 48/7/62 51/3/62
f 48/7/63 47/4/63 51/3/63
f 47/4/64 50/2/64 51/3/64
f 50/2/65 49/6/65 51/3/65
f 52/5/66 53/11/66 3/3/66
f 53/11/67 54/2/67 3/3/67
f 54/2/68 55/14/68 3/3/68
f 55/14/69 52/5/69 3/3/69
f 54/6/70 53/5/70 56/3/70
f 53/5/71 52/4/72 56/3/72
f 52/4/73 55/9/73 56/3/73
f 55/9/74 54/6/74 56/3/74
f 57/15/75 58/9/75 3/3/75
f 58/9/76 59/6/76 3/3/76
f 59/6/77 60/7/77 3/3/77
f 60/7/78 57/15/78 3/3/78
f 59/6/79 58/9/79 61/3/79
f 58/9/80 57/6/80 61/3/80
f 57/6/81 60/5/81 61/3/81
f 60/5/82 59/6/83 61/3/83
f 62/4/84 63/5/84 3/3/84
f 63/5/85 64/1/85 3/3/85
f 64/1/86 65/2/86 3/3/86
f 65/2/87 62/4/87 3/3/87
f 64/4/88 63/2/88 66/3/88
f 63/2/89 62/6/89 66/3/89
f 62/6/90 65/7/90 66/3/90
f 65/7/91 64/4/91 66/3/91
f 67/10/92 68/8/92 3/3/92
f 68/8/93 69/9/93 3/3/93
f 69/9/94 70/6/94 3/3/94
f 70/6/95 67/10/95 3/3/95
f 69/11/96 68/9/96 71/3/96
f 68/9/97 67/6/98 71/3/98
f 67/6/99 70/7/99 71/3/99
f 70/7/100 69/11/100 71/3/100
f 72/4/101 73/5/101 3/3/101
f 73/5/102 74/4/102 3/3/102
f 74/4/103 75/2/103 3/3/103
f 75/2/104 72/4/104 3/3/104
f 74/2/105 73/1/105 76/3/105
f 73/1/106 72/5/106 76/3/106
f 72/5/107 75/4/107 76/3/107
f 75/4/108 74/2/108 76/3/108
f 77/4/109 78/5/109 3/3/109
f 78/5/110 79/6/110 3/3/110
f 79/6/111 80/2/111 3/3/111
f 80/2/112 77/4/112 3/3/112
f 79/8/113 78/10/113 81/3/113
f 78/10/114 77/11/114 81/3/114
f 77/11/115 80/9/115 81/3/115
f 80/9/116 79/8/116 81/3/116
f 82/4/117 83/5/117 3/3/117
f 83/5/118 84/6/118 3/3/118
f 84/6/119 85/2/119 3/3/119
f 85/2/120 82/4/120 3/3/120
f 84/16/121 83/4/121 86/3/121
f 83/4/122 82/5/122 86/3/122
f 82/5/123 85/14/123 86/3/123
f 85/14/124 84/16/124 86/3/124
f 87/4/125 88/5/125 3/3/125
f 88/5/126 89/4/126 3/3/126
f 89/4/127 90/2/127 3/3/127
f 90/2/128 87/4/128 3/3/128
f 89/14/129 88/9/129 91/3/129
f 88/9/130 87/11/130 91/3/130
f 87/11/131 90/7/131 91/3/131
f 90/7/132 89/14/132 91/3/132
f 92/17/115 93/14/115 3/18/115
f 93/14/116 94/16/116 3/18/116
f 94/16/113 95/19/113 3/18/113
f 95/19/114 92/17/114 3/18/114
f 94/4/111 93/2/111 96/3/111
f 93/2/112 92/1/112 96/3/112
f 92/1/109 95/5/109 96/3/109
f 95/5/110 94/4/110 96/3/110
f 97/4/133 98/5/133 3/3/133
f 98/5/134 99/4/134 3/3/134
f 99/4/135 100/2/135 3/3/135
f 100/2/136 97/4/136 3/3/136
f 99/6/137 98/9/137 101/3/137
f 98/9/138 97/1/138 101/3/138
f 97/1/139 100/5/139 101/3/139
f 100/5/140 99/6/140 101/3/140
f 102/14/141 103/5/141 3/3/141
f 103/5/142 104/4/142 3/3/142
f 104/4/143 105/2/143 3/3/143
f 105/2/144 102/14/144 3/3/144
f 104/14/145 103/10/145 106/3/145
f 103/10/146 102/13/146 106/3/146
f 102/13/147 105/12/147 106/3/147
f 105/12/148 104/14/149 106/3/149
f 107/14/150 108/16/150 3/3/150
f 108/16/151 109/20/151 3/3/151
f 109/20/152 110/21/152 3/3/152
f 110/21/153 107/14/153 3/3/153
f 109/22/154 108/16/154 111/3/154
f 108/7/155 107/6/155 111/3/155
f 107/6/156 110/2/156 111/3/156
f 110/5/157 109/22/157 111/3/157
f 112/23/158 113/13/158 3/3/158
f 113/13/159 114/24/159 3/3/159
f 114/24/160 115/25/160 3/3/160
f 115/25/161 112/23/161 3/3/161
f 114/6/162 113/5/162 116/3/162
f 113/5/163 112/4/164 116/3/164
f 112/4/165 115/2/165 116/3/165
f 115/2/166 114/6/166 116/3/166
f 117/6/167 118/5/167 3/3/167
f 118/5/168 119/1/168 3/3/168
f 119/1/169 120/9/169 3/3/169
f 120/9/170 117/6/170 3/3/170
f 119/6/171 118/9/171 121/3/171
f 118/9/172 117/6/172 121/3/172
f 117/6/173 120/5/173 121/3/173
f 120/5/174 119/6/175 121/3/175
f 122/14/176 123/21/176 3/3/176
f 123/21/177 124/14/177 3/3/177
f 124/14/178 125/16/178 3/3/178
f 125/16/179 122/14/179 3/3/179
f 124/6/180 123/2/180 126/3/180
f 123/2/181 122/14/181 126/3/181
f 122/14/182 125/5/182 126/3/182
f 125/5/183 124/6/183 126/3/183
f 127/5/184 128/20/184 3/3/184
f 128/20/185 129/2/185 3/3/185
f 129/2/186 130/1/186 3/3/186
f 130/1/187 127/5/187 3/3/187
f 129/2/188 128/4/188 131/3/188
f 128/4/189 127/5/190 131/3/190
f 127/5/191 130/14/191 131/3/191
f 130/14/192 129/2/192 131/3/192
f 2/2/8 1/1/8 3/3/8
f 4/4/7 2/2/7 3/3/7
f 5/5/6 4/4/6 3/3/6
f 1/1/5 5/5/5 3/3/5
f 2/5/4 4/1/4 6/3/4
f 1/4/3 2/5/3 6/3/3
f 5/2/2 1/4/2 6/3/2
f 4/1/1 5/2/1 6/3/1
f 8/2/2 7/6/2 3/3/2
f 9/4/1 8/2/1 3/3/1
f 10/7/4 9/4/4 3/3/4
f 7/6/3 10/7/3 3/3/3
f 8/9/6 9/8/6 11/3/6
f 7/6/5 8/9/5 11/3/5
f 10/10/8 7/6/8 11/3/8
f 9/8/7 10/10/7 11/3/7
f 13/9/34 12/1/34 3/3/34
f 14/6/33 13/9/33 3/3/33
f 15/5/36 14/6/36 3/3/36
f 12/1/35 15/5/35 3/3/35
f 13/5/38 14/1/38 16/3/38
f 12/6/37 13/5/37 16/3/37
f 15/9/40 12/6/40 16/3/40
f 14/1/39 15/9/39 16/3/39
f 18/10/24 17/11/24 3/3/24
f 19/11/23 18/10/23 3/3/23
f 20/12/22 19/11/22 3/3/22
f 17/11/21 20/12/21 3/3/21
f 18/5/20 19/4/20 21/3/20
f 17/4/19 18/5/19 21/3/19
f 20/2/18 17/4/18 21/3/18
f 19/4/17 20/2/17 21/3/17
f 23/2/42 22/6/42 3/3/42
f 24/6/41 23/2/41 3/3/41
f 25/5/44 24/6/44 3/3/44
f 22/6/43 25/5/43 3/3/43
f 23/5/46 24/6/46 26/3/46
f 22/1/45 23/5/45 26/3/45
f 25/2/48 22/1/48 26/3/48
f 24/6/47 25/2/47 26/3/47
f 28/7/10 27/26/10 3/3/10
f 29/1/9 28/5/9 3/3/9
f 30/9/12 29/1/12 3/3/12
f 27/6/11 30/9/11 3/3/11
f 28/9/14 29/6/14 31/3/14
f 27/1/13 28/9/13 31/3/13
f 30/5/16 27/1/16 31/3/16
f 29/6/15 30/5/15 31/3/15
f 33/7/18 32/4/18 3/3/18
f 34/6/17 33/7/17 3/3/17
f 35/2/20 34/6/20 3/3/20
f 32/4/19 35/2/19 3/3/19
f 33/2/22 34/6/22 36/3/22
f 32/4/21 33/2/21 36/3/21
f 35/7/24 32/4/24 36/3/24
f 34/6/23 35/7/23 36/3/23
f 38/9/26 37/1/26 3/3/26
f 39/6/25 38/9/25 3/3/25
f 40/5/28 39/6/28 3/3/28
f 37/1/27 40/5/27 3/3/27
f 38/5/30 39/1/30 41/3/30
f 37/6/29 38/5/29 41/3/29
f 40/9/32 37/6/32 41/3/32
f 39/1/31 40/9/31 41/3/31
f 43/6/76 42/10/76 3/3/76
f 44/9/75 43/6/75 3/3/75
f 45/11/78 44/9/78 3/3/78
f 42/10/77 45/11/77 3/3/77
f 43/7/80 44/4/80 46/3/80
f 42/13/79 43/7/79 46/3/79
f 45/9/83 42/13/83 46/3/83
f 44/4/193 45/9/81 46/3/81
f 48/2/85 47/4/85 3/3/85
f 49/4/84 48/2/84 3/3/84
f 50/5/87 49/4/87 3/3/87
f 47/4/86 50/5/86 3/3/86
f 48/7/89 49/6/89 51/3/89
f 47/4/88 48/7/88 51/3/88
f 50/2/91 47/4/91 51/3/91
f 49/6/90 50/2/90 51/3/90
f 53/11/93 52/5/93 3/3/93
f 54/2/92 53/11/92 3/3/92
f 55/14/95 54/2/95 3/3/95
f 52/5/94 55/14/94 3/3/94
f 53/5/98 54/6/98 56/3/98
f 52/4/194 53/5/96 56/3/96
f 55/9/100 52/4/100 56/3/100
f 54/6/99 55/9/99 56/3/99
f 58/9/50 57/15/50 3/3/50
f 59/6/49 58/9/49 3/3/49
f 60/7/52 59/6/52 3/3/52
f 57/15/51 60/7/51 3/3/51
f 58/9/54 59/6/54 61/3/54
f 57/6/53 58/9/53 61/3/53
f 60/5/57 57/6/57 61/3/57
f 59/6/195 60/5/55 61/3/55
f 63/5/59 62/4/59 3/3/59
f 64/1/58 63/5/58 3/3/58
f 65/2/61 64/1/61 3/3/61
f 62/4/60 65/2/60 3/3/60
f 63/2/63 64/4/63 66/3/63
f 62/6/62 63/2/62 66/3/62
f 65/7/65 62/6/65 66/3/65
f 64/4/64 65/7/64 66/3/64
f 68/8/67 67/10/67 3/3/67
f 69/9/66 68/8/66 3/3/66
f 70/6/69 69/9/69 3/3/69
f 67/10/68 70/6/68 3/3/68
f 68/9/72 69/11/72 71/3/72
f 67/6/196 68/9/70 71/3/70
f 70/7/74 67/6/74 71/3/74
f 69/11/73 70/7/73 71/3/73
f 73/5/126 72/4/126 3/3/126
f 74/4/125 73/5/125 3/3/125
f 75/2/128 74/4/128 3/3/128
f 72/4/127 75/2/127 3/3/127
f 73/1/130 74/2/130 76/3/130
f 72/5/129 73/1/129 76/3/129
f 75/4/132 72/5/132 76/3/132
f 74/2/131 75/4/131 76/3/131
f 78/5/116 77/4/116 3/3/116
f 79/6/115 78/5/115 3/3/115
f 80/2/114 79/6/114 3/3/114
f 77/4/113 80/2/113 3/3/113
f 78/10/112 79/8/112 81/3/112
f 77/11/111 78/10/111 81/3/111
f 80/9/110 77/11/110 81/3/110
f 79/8/109 80/9/109 81/3/109
f 83/5/134 82/4/134 3/3/134
f 84/6/133 83/5/133 3/3/133
f 85/2/136 84/6/136 3/3/136
f 82/4/135 85/2/135 3/3/135
f 83/4/138 84/16/138 86/3/138
f 82/5/137 83/4/137 86/3/137
f 85/14/140 82/5/140 86/3/140
f 84/16/139 85/14/139 86/3/139
f 88/5/102 87/4/102 3/3/102
f 89/4/101 88/5/101 3/3/101
f 90/2/104 89/4/104 3/3/104
f 87/4/103 90/2/103 3/3/103
f 88/9/106 89/14/106 91/3/106
f 87/11/105 88/9/105 91/3/105
f 90/7/108 87/11/108 91/3/108
f 89/14/107 90/7/107 91/3/107
f 93/14/110 92/17/110 3/18/110
f 94/16/109 93/14/109 3/18/109
f 95/19/112 94/16/112 3/18/112
f 92/17/111 95/19/111 3/18/111
f 93/2/114 94/4/114 96/3/114
f 92/1/113 93/2/113 96/3/113
f 95/5/116 92/1/116 96/3/116
f 94/4/115 95/5/115 96/3/115
f 98/5/118 97/4/118 3/3/118
f 99/4/117 98/5/117 3/3/117
f 100/2/120 99/4/120 3/3/120
f 97/4/119 100/2/119 3/3/119
f 98/9/122 99/6/122 101/3/122
f 97/1/121 98/9/121 101/3/121
f 100/5/124 97/1/124 101/3/124
f 99/6/123 100/5/123 101/3/123
f 103/5/168 102/14/168 3/3/168
f 104/4/167 103/5/167 3/3/167
f 105/2/170 104/4/170 3/3/170
f 102/14/169 105/2/169 3/3/169
f 103/10/172 104/14/172 106/3/172
f 102/13/171 103/10/171 106/3/171
f 105/12/175 102/13/175 106/3/175
f 104/14/197 105/12/173 106/3/173
f 108/16/177 107/14/177 3/3/177
f 109/20/176 108/16/176 3/3/176
f 110/21/179 109/20/179 3/3/179
f 107/14/178 110/21/178 3/3/178
f 108/7/181 109/4/181 111/3/181
f 107/1/180 108/16/180 111/3/180
f 110/5/183 107/1/183 111/3/183
f 109/4/182 110/2/182 111/3/182
f 113/13/185 112/23/185 3/3/185
f 114/24/184 113/13/184 3/3/184
f 115/25/187 114/24/187 3/3/187
f 112/23/186 115/25/186 3/3/186
f 113/5/190 114/6/190 116/3/190
f 112/4/198 113/5/188 116/3/188
f 115/2/192 112/4/192 116/3/192
f 114/6/191 115/2/191 116/3/191
f 118/5/142 117/6/142 3/3/142
f 119/1/141 118/5/141 3/3/141
f 120/9/144 119/1/144 3/3/144
f 117/6/143 120/9/143 3/3/143
f 118/9/146 119/6/146 121/3/146
f 117/6/145 118/9/145 121/3/145
f 120/5/149 117/6/149 121/3/149
f 119/6/199 120/5/147 121/3/147
f 123/21/151 122/14/151 3/3/151
f 124/14/150 123/21/150 3/3/150
f 125/16/153 124/14/153 3/3/153
f 122/14/152 125/16/152 3/3/152
f 123/2/155 124/6/155 126/3/155
f 122/14/154 123/2/154 126/3/154
f 125/5/157 122/14/157 126/3/157
f 124/6/156 125/5/156 126/3/156
f 128/20/159 127/5/159 3/3/159
f 129/2/158 128/20/158 3/3/158
f 130/1/161 129/2/161 3/3/161
f 127/5/160 130/1/160 3/3/160
f 128/4/164 129/2/164 131/3/164
f 127/5/200 128/4/162 131/3/162
f 130/14/166 127/5/166 131/3/166
f 129/2/165 130/14/165 131/3/165
