# Created by MKDS Course Modifier
mtllib JPN Beauty Picture.mtl
g polygon0
usemtl picture0C_01
v -2.001465 3.5 -0.5
v -2.001465 6 -0.5
v 2.001465 3.5 -0.5
v 2.001465 6 -0.5
vn 0 0 -1
vn 0 0 -1
vn 0 0 -1
vn 0 0 -1
vt 0.2705078 -0.01464844
vt 0.484375 -0.01464844
vt 0.2705078 -0.125
vt 0.484375 -0.125
f 1/1/1 2/2/2 3/3/3
f 2/2/2 4/4/4 3/3/3
v -2.001465 3.5 -0.5
v -2.001465 3.5 0
v -2.001465 6 -0.5
v -2.001465 6 0
vn -1 0 0
vn -1 0 0
vn -1 0 0
vn -1 0 0
vt 0.01855469 -0.01464844
vt 0.01855469 -0.125
vt 0.2353516 -0.01464844
vt 0.2353516 -0.125
f 5/5/5 6/6/6 7/7/7
f 6/6/6 8/8/8 7/7/7
v 2.001465 3.5 -0.5
v 2.001465 6 -0.5
v 2.001465 3.5 0
v 2.001465 6 0
vn 0.9980469 0 0
vn 0.9980469 0 0
vn 0.9980469 0 0
vn 0.9980469 0 0
vt 0.2353516 -0.01464844
vt 0.01855469 -0.01464844
vt 0.2353516 -0.125
vt 0.01855469 -0.125
f 9/9/9 10/10/10 11/11/11
f 10/10/10 12/12/12 11/11/11
v -2.001465 6 -0.5
v -2.001465 6 0
v 2.001465 6 -0.5
v 2.001465 6 0
vn 0 0.9980469 0
vn 0 0.9980469 0
vn 0 0.9980469 0
vn 0 0.9980469 0
vt 0.5195313 -0.01464844
vt 0.5195313 -0.125
vt 0.7363281 -0.01464844
vt 0.7363281 -0.125
f 13/13/13 14/14/14 15/15/15
f 14/14/14 16/16/16 15/15/15
v -1.855225 5.875 0
v -1.855225 3.625 0
v 1.855225 5.875 0
v 1.855225 3.625 0
vn 0 0 0.9980469
vn 0 0 0.9980469
vn 0 0 0.9980469
vn 0 0 0.9980469
vt 0.01269531 -0.3876953
vt 0.01269531 -0.9853516
vt 0.9873047 -0.3876953
vt 0.9873047 -0.9853516
f 17/17/17 18/18/18 19/19/19
f 18/18/18 20/20/20 19/19/19
v -2.001465 6 0
v -2.001465 3.5 0
v -1.855225 5.875 0
v -1.855225 3.625 0
vn 0 0 0.9980469
vn 0 0 0.9980469
vn 0 0 0.9980469
vn 0 0 0.9980469
vt 0.2353516 -0.125
vt 0.01855469 -0.125
vt 0.2236328 -0.2373047
vt 0.02734375 -0.2373047
f 21/21/21 22/22/22 23/23/23
f 22/22/22 24/24/24 23/23/23
v -2.001465 3.5 0
v 2.001465 3.5 0
v -1.855225 3.625 0
v 1.855225 3.625 0
vn 0 0 0.9980469
vn 0 0 0.9980469
vn 0 0 0.9980469
vn 0 0 0.9980469
vt 0.9892578 -0.125
vt 0.7695313 -0.125
vt 0.9755859 -0.2373047
vt 0.7802734 -0.2373047
f 25/25/25 26/26/26 27/27/27
f 26/26/26 28/28/28 27/27/27
v 2.001465 3.5 0
v 2.001465 6 0
v 1.855225 3.625 0
v 1.855225 5.875 0
vn 0 0 0.9980469
vn 0 0 0.9980469
vn 0 0 0.9980469
vn 0 0 0.9980469
vt 0.2353516 -0.125
vt 0.01855469 -0.125
vt 0.2236328 -0.2373047
vt 0.02734375 -0.2373047
f 29/29/29 30/30/30 31/31/31
f 30/30/30 32/32/32 31/31/31
v 2.001465 6 0
v -2.001465 6 0
v 1.855225 5.875 0
v -1.855225 5.875 0
vn 0 0 0.9980469
vn 0 0 0.9980469
vn 0 0 0.9980469
vn 0 0 0.9980469
vt 0.7363281 -0.125
vt 0.5195313 -0.125
vt 0.7255859 -0.2373047
vt 0.53125 -0.2373047
f 33/33/33 34/34/34 35/35/35
f 34/34/34 36/36/36 35/35/35
