<?xml version="1.0" encoding="utf-8"?>
<COLLADA xmlns="http://www.collada.org/2005/11/COLLADASchema" version="1.4.1" xmlns:xsi="http://www.w3.org/2001/XMLSchema-instance">
  <asset>
    <contributor>
      <author>Blender User</author>
      <authoring_tool>Blender 4.4.0 commit date:2025-03-17, commit time:17:00, hash:05377985c527</authoring_tool>
    </contributor>
    <created>2025-03-20T17:50:58</created>
    <modified>2025-03-20T17:50:58</modified>
    <unit name="meter" meter="1"/>
    <up_axis>Z_UP</up_axis>
  </asset>
  <library_effects>
    <effect id="Material_002-effect">
      <profile_COMMON>
        <newparam sid="zt_crystal_ball_inner_diff_001_png_002-surface">
          <surface type="2D">
            <init_from>zt_crystal_ball_inner_diff_001_png_002</init_from>
          </surface>
        </newparam>
        <newparam sid="zt_crystal_ball_inner_diff_001_png_002-sampler">
          <sampler2D>
            <source>zt_crystal_ball_inner_diff_001_png_002-surface</source>
          </sampler2D>
        </newparam>
        <technique sid="common">
          <lambert>
            <emission>
              <color sid="emission">0 0 0 1</color>
            </emission>
            <diffuse>
              <texture texture="zt_crystal_ball_inner_diff_001_png_002-sampler" texcoord="UVMap"/>
            </diffuse>
            <index_of_refraction>
              <float sid="ior">1.5</float>
            </index_of_refraction>
          </lambert>
        </technique>
      </profile_COMMON>
    </effect>
  </library_effects>
  <library_images>
    <image id="zt_crystal_ball_inner_diff_001_png_002" name="zt_crystal_ball_inner_diff_001_png_002">
      <init_from>zt_crystal_ball_inner_diff.001.png</init_from>
    </image>
  </library_images>
  <library_materials>
    <material id="Material_002-material" name="Material.002">
      <instance_effect url="#Material_002-effect"/>
    </material>
  </library_materials>
  <library_geometries>
    <geometry id="Mesh_0_077-mesh" name="Mesh_0.077">
      <mesh>
        <source id="Mesh_0_077-mesh-positions">
          <float_array id="Mesh_0_077-mesh-positions-array" count="543">-0.658441 0.113361 0.478392 8e-6 0 10e-7 0.251513 0.113362 0.774053 -0.483857 5.511905 -1.489179 -0.679383 4.987589 -2.090947 -1.318373 5.183533 -1.506557 -1.49327 4.484579 -2.090947 -2.049674 4.544177 -1.489179 -2.041035 3.73821 -2.0316 -2.562878 3.73821 -1.313344 -2.409536 2.978359 -1.750635 -2.832581 2.978359 -0.920362 -2.592544 2.286026 -1.292274 -2.845376 2.218509 -0.443905 -2.437106 1.472141 -0.813884 -2.533538 1.412544 2e-6 -1.952117 0.773188 -0.443905 -1.952116 0.773188 0.443908 -1.331956 0.314434 2e-6 -1.266764 0.444816 0.920365 -0.41159 0.314434 1.266774 0.483872 0.444816 1.489181 1.07759 0.314434 0.78291 1.318387 0.773188 1.50656 1.840232 0.773189 0.788303 -0.251499 5.843359 -0.774051 -1.077576 5.642287 -0.782907 -1.840217 5.183533 -0.788301 -2.450049 4.484579 -0.77405 -2.856992 3.670693 -0.478389 -2.978352 2.97836 2e-6 -2.845375 2.21851 0.443908 -2.437105 1.472141 0.813888 -1.778657 0.969131 1.292278 -1.025412 0.773188 1.719408 -0.181051 0.773188 1.993757 0.679397 0.969133 2.090948 6e-6 5.956721 10e-7 -0.813881 5.843359 10e-7 -1.565812 5.511905 10e-7 -2.198546 4.98759 10e-7 -2.663919 4.310322 10e-7 -2.856993 3.670692 0.478392 -2.832581 2.97836 0.920365 -2.592545 2.286027 1.292278 -2.155153 1.646397 1.565818 -1.527153 1.472141 2.06633 -0.782901 1.412544 2.409546 0.02094995 1.472141 2.569339 -2.45005 4.484578 0.774053 -2.562879 3.73821 1.313347 -2.409537 2.97836 1.750638 -2.030163 2.286027 2.066329 -1.840219 5.183532 0.788303 -2.049675 4.544177 1.489182 -2.041035 3.738211 2.031604 -1.750629 2.97836 2.409545 -1.301446 2.218509 2.568946 -1.077575 5.642287 0.782909 -1.318375 5.183532 1.50656 -1.49327 4.48458 2.090948 -1.337831 3.670693 2.569339 -0.920357 2.97836 2.83259 -0.457085 2.21851 2.843295 6e-6 5.956721 10e-7 -0.2515 5.843359 0.774053 -0.483858 5.511905 1.489182 -0.679384 4.987589 2.090948 -0.823193 4.310324 2.533546 -0.427879 3.670693 2.865001 7e-6 2.978361 2.978361 0.427893 2.286028 2.865 0.823205 1.646397 2.533546 1.493283 1.472142 2.090949 2.049689 1.412544 1.48918 2.450063 1.472142 0.774053 2.19856 0.969132 10e-7 2.663934 1.646397 10e-7 2.450063 1.472142 -0.774051 -0.02093595 4.48458 2.569338 0.457098 3.738212 2.843296 0.920371 2.978361 2.832589 1.337844 2.286028 2.569339 0.181065 5.183533 1.993756 0.782914 4.544177 2.409545 1.301459 3.738211 2.568947 1.750643 2.978361 2.409545 2.041048 2.21851 2.031603 0.411605 5.642287 1.266774 1.025425 5.183533 1.719407 1.527169 4.48458 2.066329 2.030177 3.670693 2.06633 2.409551 2.978361 1.750637 2.562891 2.218511 1.313347 2.857007 2.286028 0.478391 2.832596 2.978361 0.920365 2.592559 3.670694 1.292277 2.155168 4.310323 1.565818 1.778672 4.987589 1.292277 1.266778 5.511905 0.920365 0.658454 5.843359 0.478391 6e-6 5.956721 10e-7 2.43712 4.48458 0.813887 2.845388 3.738213 0.443907 2.978367 2.978361 10e-7 2.857006 2.286029 -0.478389 1.952131 5.183533 0.443908 2.533551 4.544178 10e-7 2.84539 3.738212 -0.443906 2.832596 2.978361 -0.920363 1.331969 5.642287 10e-7 1.952131 5.183534 -0.443906 2.43712 4.484581 -0.813885 2.592558 3.670694 -1.292276 6e-6 5.956721 10e-7 0.658454 5.843359 -0.478389 1.266778 5.511906 -0.920363 1.778671 4.987589 -1.292276 2.155168 4.310323 -1.565816 2.562895 2.21851 -1.313345 2.40955 2.978361 -1.750636 2.030178 3.670693 -2.066327 1.527167 4.484579 -2.066327 1.025426 5.183533 -1.719406 0.411605 5.642287 -1.266771 -0.251499 5.843359 -0.774051 6e-6 5.956721 10e-7 1.750643 2.978361 -2.409544 2.041048 2.21851 -2.031601 1.337846 2.286028 -2.569337 1.493284 1.472142 -2.090945 0.823207 1.646398 -2.533543 0.679398 0.969133 -2.090946 1.30146 3.738211 -2.568943 0.92037 2.97836 -2.832588 0.427892 2.286027 -2.864998 0.020949 1.472141 -2.569336 -0.18105 0.773188 -1.993755 0.483872 0.444816 -1.489179 -0.411591 0.314434 -1.266771 0.251513 0.113361 -0.77405 0.782915 4.544177 -2.409544 0.457099 3.73821 -2.843293 7e-6 2.97836 -2.97836 -0.457084 2.218509 -2.843293 -0.782901 1.412543 -2.409543 -1.025412 0.773188 -1.719405 0.181065 5.183533 -1.993756 -0.02093499 4.48458 -2.569337 -0.427878 3.670693 -2.864997 -0.920357 2.97836 -2.832588 -1.301445 2.21851 -2.568944 -0.483857 5.511905 -1.489179 -0.679383 4.987589 -2.090947 -0.823192 4.310323 -2.533544 -1.337831 3.670693 -2.569335 1.077589 0.314435 -0.782907 1.318388 0.773189 -1.506557 1.840233 0.773189 -0.788301 2.049688 1.412544 -1.489179 8e-6 0 10e-7 0.813895 0.113362 10e-7 1.565825 0.444816 10e-7 8e-6 0 10e-7 8e-6 0 10e-7 -0.65844 0.113361 -0.478389 0.251513 0.113361 -0.77405 -0.411591 0.314434 -1.266771 -1.266765 0.444815 -0.920362 -1.025412 0.773188 -1.719405 -1.301445 2.21851 -2.568944 -0.782901 1.412543 -2.409543 -1.527154 1.472141 -2.066326 -1.778659 0.969131 -1.292274 -1.337831 3.670693 -2.569335 -0.920357 2.97836 -2.832588 -1.750627 2.978359 -2.409543 -2.030164 2.286027 -2.066326 -2.155154 1.646397 -1.565814 -0.823192 4.310323 -2.533544 8e-6 0 10e-7</float_array>
          <technique_common>
            <accessor source="#Mesh_0_077-mesh-positions-array" count="181" stride="3">
              <param name="X" type="float"/>
              <param name="Y" type="float"/>
              <param name="Z" type="float"/>
            </accessor>
          </technique_common>
        </source>
        <source id="Mesh_0_077-mesh-normals">
          <float_array id="Mesh_0_077-mesh-normals-array" count="543">-0.2060738 -0.9670146 0.1497218 -1.21295e-5 -1 7.21086e-5 0.07820826 -0.9670124 0.2424266 -0.1603707 0.8542017 -0.4945914 -0.2296785 0.6671099 -0.7086694 -0.4464969 0.7357617 -0.5092104 -0.4905166 0.5044113 -0.7106074 -0.6878587 0.5265723 -0.4995719 -0.6820232 0.2658594 -0.6812953 -0.8578464 0.2672749 -0.4389348 -0.8080051 0.04437923 -0.5875018 -0.9496851 0.05177444 -0.3088977 -0.863707 -0.2477732 -0.4388836 -0.9516209 -0.2683973 -0.1496013 -0.813902 -0.5055028 -0.2864096 -0.8499576 -0.5268512 -1.66532e-7 -0.6604416 -0.7358592 -0.1494264 -0.6604935 -0.7357985 0.1494957 -0.4522971 -0.8918673 1.24448e-7 -0.4200884 -0.8546966 0.3049909 -0.1397012 -0.8914231 0.4311015 0.1602195 -0.854197 0.4946485 0.3663558 -0.8916814 0.2658718 0.4464985 -0.7357305 0.509254 0.6224055 -0.7357851 0.2668926 -0.07827609 0.9670146 -0.2423955 -0.366316 0.8917051 -0.2658469 -0.6223644 0.7358134 -0.2669106 -0.8265756 0.5060829 -0.2462781 -0.9565271 0.2485825 -0.1525211 -0.9985364 -0.05408531 -3.61353e-7 -0.9516208 -0.2683973 0.149602 -0.8139017 -0.5055032 0.2864098 -0.6027948 -0.6669965 0.4378973 -0.3458728 -0.735512 0.5825755 -0.06161248 -0.7348112 0.6754676 0.2296023 -0.6670928 0.7087103 -5.32418e-5 1 -5.0582e-5 -0.2550247 0.9669345 3.09988e-7 -0.5198431 0.8542618 0 -0.7454823 0.6665255 4.2451e-7 -0.8930003 0.4500563 -5.63579e-7 -0.9565272 0.2485824 0.1525208 -0.9496848 -0.05177527 0.3088985 -0.863707 -0.2477734 0.4388833 -0.7230245 -0.4491051 0.5249193 -0.5237278 -0.5048098 0.6862042 -0.2619319 -0.5271328 0.8084075 0.02049267 -0.5045312 0.8631503 -0.8265764 0.5060819 0.2462776 -0.8578463 0.2672747 0.4389351 -0.808005 0.04437899 0.5875018 -0.6839172 -0.2477002 0.686223 -0.6224054 0.7357853 0.2668926 -0.6878237 0.5266609 0.4995268 -0.6819983 0.2659063 0.6813019 -0.5872068 -0.04087185 0.8084044 -0.4358059 -0.2679824 0.8592198 -0.3663559 0.8916817 0.2658709 -0.4464995 0.7357005 0.5092965 -0.4905173 0.5044095 0.7106081 -0.4407018 0.2466109 0.8631135 -0.3087176 -0.04349017 0.950159 -0.1514227 -0.2655683 0.9521264 -6.4523e-5 1 3.59491e-5 -0.07820826 0.9670124 0.2424261 -0.1602019 0.8542246 0.4946068 -0.2296028 0.6670928 0.7087099 -0.2754349 0.4482866 0.8503969 -0.1494926 0.2485867 0.957004 3.64124e-7 -5.36059e-7 1 0.1494926 -0.2485864 0.9570041 0.2755377 -0.4481716 0.8504242 0.4905166 -0.5044111 0.7106075 0.6878938 -0.5264836 0.499617 0.8265614 -0.5060809 0.2463297 0.7454816 -0.6665263 -8.1351e-7 0.8930235 -0.4500102 -1.28755e-7 0.8265758 -0.5060827 -0.2462781 -0.02049195 0.5045305 0.8631508 0.1513979 0.2656141 0.9521176 0.3087156 0.04348921 0.9501597 0.4407023 -0.2466115 0.8631132 0.06161254 0.7348112 0.6754676 0.261959 0.5270923 0.8084251 0.435805 0.2679821 0.8592204 0.5872038 -0.04087144 0.8084068 0.6819977 -0.265906 0.6813025 0.1397014 0.8914231 0.4311013 0.345873 0.7355119 0.5825755 0.5237282 0.5048089 0.6862047 0.6839181 0.247699 0.6862224 0.8080039 -0.04438006 0.5875034 0.8578464 -0.2672752 0.4389346 0.9565278 -0.2485812 0.1525187 0.9496852 0.05177497 0.3088973 0.8636845 0.2478159 0.4389036 0.7230021 0.4491527 0.5249094 0.6027958 0.6669967 0.437896 0.4200883 0.8546968 0.3049904 0.2060736 0.9670147 0.1497206 1.35228e-5 1 7.14101e-5 0.8139033 0.505501 0.2864095 0.9516205 0.2683983 0.1496019 0.9985363 0.05408555 2.30782e-6 0.956527 -0.2485832 -0.1525209 0.6604934 0.7357985 0.1494956 0.8499022 0.5269405 0 0.9516207 0.2683975 -0.1496022 0.9496867 0.05177521 -0.3088926 0.4522957 0.8918681 -1.80327e-7 0.6604416 0.7358592 -0.1494265 0.8139022 0.5055023 -0.2864099 0.8637065 0.2477726 -0.4388847 7.29226e-5 1 9.58145e-6 0.2060733 0.9670148 -0.1497206 0.4200878 0.8546972 -0.3049903 0.6027957 0.666996 -0.437897 0.7230384 0.4490589 -0.5249396 0.857846 -0.2672753 -0.4389352 0.808006 -0.04437887 -0.5875005 0.6839174 0.2477001 -0.6862228 0.5237281 0.5048096 -0.6862042 0.3459058 0.7354776 -0.5825992 0.1396914 0.8914473 -0.4310547 -0.07801723 0.9670217 -0.2424512 3.16538e-5 1 -6.48722e-5 0.5872048 0.04087162 -0.8084058 0.6819977 -0.2659069 -0.6813021 0.4407005 -0.2466107 -0.8631143 0.4905166 -0.5044117 -0.710607 0.2756868 -0.4480273 -0.8504519 0.2296029 -0.6670925 -0.7087102 0.4358049 0.2679829 -0.8592202 0.3087186 0.04349005 -0.9501587 0.149492 -0.248588 -0.9570038 0.02049261 -0.5045301 -0.8631508 -0.06159257 -0.7347791 -0.6755043 0.1602195 -0.854197 -0.4946485 -0.139629 -0.8913957 -0.4311816 0.07823657 -0.9670095 -0.2424288 0.2618777 0.5272144 -0.808372 0.1514226 0.265568 -0.9521265 0 4.38594e-7 -1 -0.1514233 -0.2655693 -0.952126 -0.2617936 -0.5271974 -0.8084103 -0.3457369 -0.7355262 -0.5826382 0.06159222 0.7347795 -0.6755039 -0.02049267 0.5045296 -0.8631513 -0.1494933 0.2485871 -0.9570038 -0.3086565 -0.04358845 -0.9501744 -0.4356545 -0.2680244 -0.8592836 -0.1601404 0.8542187 -0.4946368 -0.2295246 0.6671068 -0.7087221 -0.2754759 0.4481188 -0.8504721 -0.4405261 0.2465773 -0.8632128 0.366356 -0.8916813 -0.2658717 0.4464995 -0.7357004 -0.5092968 0.6223644 -0.7358136 -0.2669103 0.6878935 -0.5264843 -0.4996169 5.33983e-5 -1 -4.96358e-5 0.2550253 -0.9669344 -2.96563e-7 0.5197983 -0.854289 -2.75568e-7 6.47121e-5 -1 3.52785e-5 -3.12515e-5 -1 -6.54087e-5 -0.2060734 -0.9670147 -0.1497213 0.0779969 -0.9670352 -0.2424035 -0.1397444 -0.8914374 -0.4310578 -0.4200882 -0.8546969 -0.3049906 -0.3459169 -0.7354928 -0.5825735 -0.4358407 -0.2679967 -0.8591976 -0.261978 -0.5271819 -0.8083606 -0.5237284 -0.504809 -0.6862044 -0.6027954 -0.6669961 -0.4378972 -0.4407316 0.2465993 -0.8631017 -0.308902 -0.04347658 -0.9500998 -0.5872062 0.04087114 -0.8084049 -0.6839179 -0.2476997 -0.6862224 -0.723002 -0.4491524 -0.5249098 -0.2756716 0.448225 -0.8503527 -7.15218e-5 -1 9.36538e-6</float_array>
          <technique_common>
            <accessor source="#Mesh_0_077-mesh-normals-array" count="181" stride="3">
              <param name="X" type="float"/>
              <param name="Y" type="float"/>
              <param name="Z" type="float"/>
            </accessor>
          </technique_common>
        </source>
        <source id="Mesh_0_077-mesh-map">
          <float_array id="Mesh_0_077-mesh-map-array" count="1920">0.236201 -0.005099952 0.4292 -0.005099952 0.622287 -0.005099952 0.01763898 0.838444 0.01763898 0.740041 0.02587199 0.773185 0.01763898 0.740041 0.02386397 0.665304 0.02587199 0.773185 0.02587199 0.773185 0.02386397 0.665304 0.03042095 0.673608 0.02386397 0.665304 0.02727198 0.568517 0.03042095 0.673608 0.03042095 0.673608 0.02727198 0.568517 0.03356897 0.568517 0.02727198 0.568517 0.03042095 0.476801 0.03356897 0.568517 0.03356897 0.568517 0.03042095 0.476801 0.03681099 0.476801 0.03042095 0.476801 0.03379499 0.393396 0.03681099 0.476801 0.03681099 0.476801 0.03379499 0.393396 0.04005396 0.385086 0.03379499 0.393396 0.03664499 0.288298 0.04005396 0.385086 0.04005396 0.385086 0.03664499 0.288298 0.04320198 0.279995 0.03664499 0.288298 0.03865396 0.180417 0.04320198 0.279995 0.04320198 0.279995 0.03865396 0.180417 0.111883 0.180417 0.03865396 0.180417 0.04320198 0.08318799 0.111883 0.180417 0.111883 0.180417 0.04320198 0.08318799 0.236201 0.115158 0.04320198 0.08318799 0.236201 -0.005099952 0.236201 0.115158 0.236201 0.115158 0.236201 -0.005099952 0.429199 0.08318799 0.236201 -0.005099952 0.622287 -0.005099952 0.429199 0.08318799 0.429199 0.08318799 0.622287 -0.005099952 0.622198 0.115158 0.622287 -0.005099952 0.815285 0.08318799 0.622198 0.115158 0.622198 0.115158 0.815285 0.08318799 0.746516 0.180417 0.815285 0.08318799 0.883966 0.180417 0.746516 0.180417 0.01763898 0.969397 0.01763898 0.838444 0.03042095 0.870415 0.01763898 0.838444 0.02587199 0.773185 0.03042095 0.870415 0.03042095 0.870415 0.02587199 0.773185 0.03496897 0.773185 0.02587199 0.773185 0.03042095 0.673608 0.03496897 0.773185 0.03496897 0.773185 0.03042095 0.673608 0.03697699 0.665304 0.03042095 0.673608 0.03356897 0.568517 0.03697699 0.665304 0.03697699 0.665304 0.03356897 0.568517 0.03982698 0.560206 0.03356897 0.568517 0.03681099 0.476801 0.03982698 0.560206 0.03982698 0.560206 0.03681099 0.476801 0.04320198 0.476801 0.03681099 0.476801 0.04005396 0.385086 0.04320198 0.476801 0.04320198 0.476801 0.04005396 0.385086 0.09073996 0.385086 0.04005396 0.385086 0.04320198 0.279995 0.09073996 0.385086 0.09073996 0.385086 0.04320198 0.279995 0.1422049 0.288298 0.04320198 0.279995 0.111883 0.180417 0.1422049 0.288298 0.1422049 0.288298 0.111883 0.180417 0.236201 0.213562 0.111883 0.180417 0.236201 0.115158 0.236201 0.213562 0.236201 0.213562 0.236201 0.115158 0.360518 0.180417 0.236201 0.115158 0.429199 0.08318799 0.360518 0.180417 0.360518 0.180417 0.429199 0.08318799 0.49788 0.180417 0.429199 0.08318799 0.622198 0.115158 0.49788 0.180417 0.49788 0.180417 0.622198 0.115158 0.622198 0.213562 0.622198 0.115158 0.746516 0.180417 0.622198 0.213562 0.03042095 0.969397 0.01763898 0.969397 0.04320198 0.969397 0.01763898 0.969397 0.03042095 0.870415 0.04320198 0.969397 0.04320198 0.969397 0.03042095 0.870415 0.04320198 0.838444 0.03042095 0.870415 0.03496897 0.773185 0.04320198 0.838444 0.04320198 0.838444 0.03496897 0.773185 0.04320198 0.740041 0.03496897 0.773185 0.03697699 0.665304 0.04320198 0.740041 0.04320198 0.740041 0.03697699 0.665304 0.04320198 0.641637 0.03697699 0.665304 0.03982698 0.560206 0.04320198 0.641637 0.04320198 0.641637 0.03982698 0.560206 0.094163 0.560206 0.03982698 0.560206 0.04320198 0.476801 0.094163 0.560206 0.094163 0.560206 0.04320198 0.476801 0.139701 0.476801 0.04320198 0.476801 0.09073996 0.385086 0.139701 0.476801 0.139701 0.476801 0.09073996 0.385086 0.18524 0.393396 0.09073996 0.385086 0.1422049 0.288298 0.18524 0.393396 0.18524 0.393396 0.1422049 0.288298 0.236201 0.311965 0.1422049 0.288298 0.236201 0.213562 0.236201 0.311965 0.236201 0.311965 0.236201 0.213562 0.330197 0.288298 0.236201 0.213562 0.360518 0.180417 0.330197 0.288298 0.330197 0.288298 0.360518 0.180417 0.429199 0.279994 0.360518 0.180417 0.49788 0.180417 0.429199 0.279994 0.429199 0.279994 0.49788 0.180417 0.528203 0.288298 0.49788 0.180417 0.622198 0.213562 0.528203 0.288298 0.04320198 0.740041 0.04320198 0.641637 0.137198 0.665304 0.04320198 0.641637 0.094163 0.560206 0.137198 0.665304 0.137198 0.665304 0.094163 0.560206 0.188663 0.568517 0.094163 0.560206 0.139701 0.476801 0.188663 0.568517 0.188663 0.568517 0.139701 0.476801 0.236201 0.476801 0.139701 0.476801 0.18524 0.393396 0.236201 0.476801 0.236201 0.476801 0.18524 0.393396 0.287162 0.393396 0.18524 0.393396 0.236201 0.311965 0.287162 0.393396 0.287162 0.393396 0.236201 0.311965 0.330197 0.288298 0.04320198 0.838444 0.04320198 0.740041 0.16752 0.773185 0.04320198 0.740041 0.137198 0.665304 0.16752 0.773185 0.16752 0.773185 0.137198 0.665304 0.236201 0.673608 0.137198 0.665304 0.188663 0.568517 0.236201 0.673608 0.236201 0.673608 0.188663 0.568517 0.283739 0.568517 0.188663 0.568517 0.236201 0.476801 0.283739 0.568517 0.283739 0.568517 0.236201 0.476801 0.3327 0.476801 0.236201 0.476801 0.287162 0.393396 0.3327 0.476801 0.3327 0.476801 0.287162 0.393396 0.381662 0.385086 0.287162 0.393396 0.330197 0.288298 0.381662 0.385086 0.381662 0.385086 0.330197 0.288298 0.429199 0.279994 0.04320198 0.969397 0.04320198 0.838444 0.236201 0.870415 0.04320198 0.838444 0.16752 0.773185 0.236201 0.870415 0.236201 0.870415 0.16752 0.773185 0.304882 0.773185 0.16752 0.773185 0.236201 0.673608 0.304882 0.773185 0.304882 0.773185 0.236201 0.673608 0.335204 0.665304 0.236201 0.673608 0.283739 0.568517 0.335204 0.665304 0.335204 0.665304 0.283739 0.568517 0.378239 0.560206 0.283739 0.568517 0.3327 0.476801 0.378239 0.560206 0.378239 0.560206 0.3327 0.476801 0.429199 0.476801 0.3327 0.476801 0.381662 0.385086 0.429199 0.476801 0.429199 0.476801 0.381662 0.385086 0.476737 0.385086 0.381662 0.385086 0.429199 0.279994 0.476737 0.385086 0.476737 0.385086 0.429199 0.279994 0.528203 0.288298 0.236201 0.969397 0.04320198 0.969397 0.429199 0.969397 0.04320198 0.969397 0.236201 0.870415 0.429199 0.969397 0.429199 0.969397 0.236201 0.870415 0.429199 0.838444 0.236201 0.870415 0.304882 0.773185 0.429199 0.838444 0.429199 0.838444 0.304882 0.773185 0.429199 0.740041 0.304882 0.773185 0.335204 0.665304 0.429199 0.740041 0.429199 0.740041 0.335204 0.665304 0.429199 0.641637 0.335204 0.665304 0.378239 0.560206 0.429199 0.641637 0.429199 0.641637 0.378239 0.560206 0.48016 0.560206 0.378239 0.560206 0.429199 0.476801 0.48016 0.560206 0.48016 0.560206 0.429199 0.476801 0.525699 0.476801 0.429199 0.476801 0.476737 0.385086 0.525699 0.476801 0.525699 0.476801 0.476737 0.385086 0.571238 0.393396 0.476737 0.385086 0.528203 0.288298 0.571238 0.393396 0.571238 0.393396 0.528203 0.288298 0.622198 0.311965 0.528203 0.288298 0.622198 0.213562 0.622198 0.311965 0.622198 0.311965 0.622198 0.213562 0.716194 0.288298 0.622198 0.213562 0.746516 0.180417 0.716194 0.288298 0.716194 0.288298 0.746516 0.180417 0.815197 0.279994 0.746516 0.180417 0.883966 0.180417 0.815197 0.279994 0.815197 0.279994 0.883966 0.180417 0.914288 0.288298 0.883966 0.180417 1.008373 0.213562 0.914288 0.288298 0.914288 0.288298 1.008373 0.213562 1.008373 0.311965 1.008373 0.213562 1.013542 0.288298 1.008373 0.311965 0.429199 0.740041 0.429199 0.641637 0.523196 0.665304 0.429199 0.641637 0.48016 0.560206 0.523196 0.665304 0.523196 0.665304 0.48016 0.560206 0.574661 0.568517 0.48016 0.560206 0.525699 0.476801 0.574661 0.568517 0.574661 0.568517 0.525699 0.476801 0.622198 0.476801 0.525699 0.476801 0.571238 0.393396 0.622198 0.476801 0.622198 0.476801 0.571238 0.393396 0.673159 0.393396 0.571238 0.393396 0.622198 0.311965 0.673159 0.393396 0.673159 0.393396 0.622198 0.311965 0.716194 0.288298 0.429199 0.838444 0.429199 0.740041 0.553517 0.773185 0.429199 0.740041 0.523196 0.665304 0.553517 0.773185 0.553517 0.773185 0.523196 0.665304 0.622198 0.673608 0.523196 0.665304 0.574661 0.568517 0.622198 0.673608 0.622198 0.673608 0.574661 0.568517 0.669736 0.568517 0.574661 0.568517 0.622198 0.476801 0.669736 0.568517 0.669736 0.568517 0.622198 0.476801 0.718698 0.476801 0.622198 0.476801 0.673159 0.393396 0.718698 0.476801 0.718698 0.476801 0.673159 0.393396 0.767659 0.385086 0.673159 0.393396 0.716194 0.288298 0.767659 0.385086 0.767659 0.385086 0.716194 0.288298 0.815197 0.279994 0.429199 0.969397 0.429199 0.838444 0.622198 0.870415 0.429199 0.838444 0.553517 0.773185 0.622198 0.870415 0.622198 0.870415 0.553517 0.773185 0.690879 0.773185 0.553517 0.773185 0.622198 0.673608 0.690879 0.773185 0.690879 0.773185 0.622198 0.673608 0.721201 0.665304 0.622198 0.673608 0.669736 0.568517 0.721201 0.665304 0.721201 0.665304 0.669736 0.568517 0.764236 0.560206 0.669736 0.568517 0.718698 0.476801 0.764236 0.560206 0.764236 0.560206 0.718698 0.476801 0.815197 0.476801 0.718698 0.476801 0.767659 0.385086 0.815197 0.476801 0.815197 0.476801 0.767659 0.385086 0.862735 0.385086 0.767659 0.385086 0.815197 0.279994 0.862735 0.385086 0.862735 0.385086 0.815197 0.279994 0.914288 0.288298 1.008373 0.311965 0.957324 0.393396 0.914288 0.288298 0.914288 0.288298 0.957324 0.393396 0.862735 0.385086 0.957324 0.393396 0.911785 0.476801 0.862735 0.385086 0.862735 0.385086 0.911785 0.476801 0.815197 0.476801 0.911785 0.476801 0.866157 0.560206 0.815197 0.476801 0.815197 0.476801 0.866157 0.560206 0.764236 0.560206 0.866157 0.560206 0.815197 0.641637 0.764236 0.560206 0.764236 0.560206 0.815197 0.641637 0.721201 0.665304 0.815197 0.641637 0.815197 0.740041 0.721201 0.665304 0.721201 0.665304 0.815197 0.740041 0.690879 0.773185 0.815197 0.740041 0.815285 0.838444 0.690879 0.773185 0.690879 0.773185 0.815285 0.838444 0.622198 0.870415 0.815285 0.838444 0.815285 0.969397 0.622198 0.870415 0.622198 0.870415 0.815285 0.969397 0.429199 0.969397 0.815285 0.969397 0.622198 0.969397 0.429199 0.969397 0.815197 0.740041 0.815197 0.641637 0.909281 0.665304 0.815197 0.641637 0.866157 0.560206 0.909281 0.665304 0.909281 0.665304 0.866157 0.560206 0.960747 0.568517 0.866157 0.560206 0.911785 0.476801 0.960747 0.568517 0.960747 0.568517 0.911785 0.476801 1.008373 0.476801 0.911785 0.476801 0.957324 0.393396 1.008373 0.476801 1.008373 0.476801 0.957324 0.393396 1.011176 0.393396 0.957324 0.393396 1.008373 0.311965 1.011176 0.393396 0.815285 0.838444 0.815197 0.740041 0.939604 0.773185 0.815197 0.740041 0.909281 0.665304 0.939604 0.773185 0.939604 0.773185 0.909281 0.665304 1.008373 0.673608 0.909281 0.665304 0.960747 0.568517 1.008373 0.673608 1.008373 0.673608 0.960747 0.568517 1.010987 0.568517 0.960747 0.568517 1.008373 0.476801 1.010987 0.568517 1.010987 0.568517 1.008373 0.476801 1.01368 0.476801 1.008373 0.476801 1.011176 0.393396 1.01368 0.476801 0.815285 0.969397 0.815285 0.838444 1.008373 0.870415 0.815285 0.838444 0.939604 0.773185 1.008373 0.870415 1.008373 0.870415 0.939604 0.773185 1.01215 0.773185 0.939604 0.773185 1.008373 0.673608 1.01215 0.773185 1.01215 0.773185 1.008373 0.673608 1.013818 0.665304 1.008373 0.673608 1.010987 0.568517 1.013818 0.665304 1.013818 0.665304 1.010987 0.568517 1.016184 0.560206 1.010987 0.568517 1.01368 0.476801 1.016184 0.560206 1.008373 0.969397 0.815285 0.969397 1.018987 0.969397 0.815285 0.969397 1.008373 0.870415 1.018987 0.969397 1.018987 0.969397 1.008373 0.870415 1.018987 0.838444 1.008373 0.870415 1.01215 0.773185 1.018987 0.838444 1.018987 0.838444 1.01215 0.773185 1.018987 0.740041 1.01215 0.773185 1.013818 0.665304 1.018987 0.740041 1.018987 0.740041 1.013818 0.665304 1.018987 0.641637 1.013818 0.665304 1.016184 0.560206 1.018987 0.641637 1.008373 0.311965 1.013542 0.288298 1.011176 0.393396 1.013542 0.288298 1.016373 0.385086 1.011176 0.393396 1.011176 0.393396 1.016373 0.385086 1.01368 0.476801 1.016373 0.385086 1.018987 0.476801 1.01368 0.476801 1.01368 0.476801 1.018987 0.476801 1.016184 0.560206 1.018987 0.476801 1.021789 0.560206 1.016184 0.560206 1.016184 0.560206 1.021789 0.560206 1.018987 0.641637 1.021789 0.560206 1.024156 0.665304 1.018987 0.641637 1.018987 0.641637 1.024156 0.665304 1.018987 0.740041 1.024156 0.665304 1.025823 0.773185 1.018987 0.740041 1.018987 0.740041 1.025823 0.773185 1.018987 0.838444 1.025823 0.773185 1.0296 0.870415 1.018987 0.838444 1.018987 0.838444 1.0296 0.870415 1.018987 0.969397 1.0296 0.870415 1.040214 0.969397 1.018987 0.969397 1.018987 0.969397 1.040214 0.969397 1.0296 0.969397 1.021789 0.560206 1.018987 0.476801 1.024294 0.476801 1.018987 0.476801 1.021601 0.385086 1.024294 0.476801 1.024294 0.476801 1.021601 0.385086 1.026798 0.393396 1.021601 0.385086 1.024431 0.288298 1.026798 0.393396 1.026798 0.393396 1.024431 0.288298 1.0296 0.311965 1.024431 0.288298 1.0296 0.213562 1.0296 0.311965 1.024156 0.665304 1.021789 0.560206 1.026986 0.568517 1.021789 0.560206 1.024294 0.476801 1.026986 0.568517 1.026986 0.568517 1.024294 0.476801 1.0296 0.476801 1.024294 0.476801 1.026798 0.393396 1.0296 0.476801 1.0296 0.476801 1.026798 0.393396 1.032403 0.393396 1.026798 0.393396 1.0296 0.311965 1.032403 0.393396 1.032403 0.393396 1.0296 0.311965 1.03477 0.288298 1.0296 0.311965 1.0296 0.213562 1.03477 0.288298 1.03477 0.288298 1.0296 0.213562 1.036437 0.180417 1.0296 0.213562 1.0296 0.115158 1.036437 0.180417 1.036437 0.180417 1.0296 0.115158 1.040214 0.08318799 1.0296 0.115158 1.0296 -0.005099952 1.040214 0.08318799 1.025823 0.773185 1.024156 0.665304 1.0296 0.673608 1.024156 0.665304 1.026986 0.568517 1.0296 0.673608 1.0296 0.673608 1.026986 0.568517 1.032215 0.568517 1.026986 0.568517 1.0296 0.476801 1.032215 0.568517 1.032215 0.568517 1.0296 0.476801 1.034907 0.476801 1.0296 0.476801 1.032403 0.393396 1.034907 0.476801 1.034907 0.476801 1.032403 0.393396 1.0376 0.385086 1.032403 0.393396 1.03477 0.288298 1.0376 0.385086 1.0376 0.385086 1.03477 0.288298 1.040214 0.279994 1.03477 0.288298 1.036437 0.180417 1.040214 0.279994 1.040214 0.279994 1.036437 0.180417 1.043991 0.180417 1.036437 0.180417 1.040214 0.08318799 1.043991 0.180417 1.0296 0.870415 1.025823 0.773185 1.033377 0.773185 1.025823 0.773185 1.0296 0.673608 1.033377 0.773185 1.033377 0.773185 1.0296 0.673608 1.035045 0.665304 1.0296 0.673608 1.032215 0.568517 1.035045 0.665304 1.035045 0.665304 1.032215 0.568517 1.037412 0.560206 1.032215 0.568517 1.034907 0.476801 1.037412 0.560206 1.037412 0.560206 1.034907 0.476801 1.040214 0.476801 1.034907 0.476801 1.0376 0.385086 1.040214 0.476801 1.040214 0.476801 1.0376 0.385086 1.042828 0.385086 1.0376 0.385086 1.040214 0.279994 1.042828 0.385086 1.040214 0.969397 1.0296 0.870415 1.040214 0.838444 1.0296 0.870415 1.033377 0.773185 1.040214 0.838444 1.040214 0.838444 1.033377 0.773185 1.040214 0.740041 1.033377 0.773185 1.035045 0.665304 1.040214 0.740041 1.040214 0.740041 1.035045 0.665304 1.040214 0.641637 1.035045 0.665304 1.037412 0.560206 1.040214 0.641637 1.040214 0.641637 1.037412 0.560206 1.043017 0.560206 1.037412 0.560206 1.040214 0.476801 1.043017 0.560206 1.0296 -0.005099952 1.0296 0.115158 1.018987 0.08318799 1.0296 0.115158 1.022764 0.180417 1.018987 0.08318799 1.018987 0.08318799 1.022764 0.180417 1.01521 0.180417 1.022764 0.180417 1.018987 0.279994 1.01521 0.180417 1.01521 0.180417 1.018987 0.279994 1.013542 0.288298 1.018987 0.279994 1.016373 0.385086 1.013542 0.288298 1.018987 -0.005099952 1.0296 -0.005099952 1.008373 -0.005099952 1.0296 -0.005099952 1.018987 0.08318799 1.008373 -0.005099952 1.008373 -0.005099952 1.018987 0.08318799 1.008373 0.115158 1.018987 0.08318799 1.01521 0.180417 1.008373 0.115158 1.008373 0.115158 1.01521 0.180417 1.008373 0.213562 1.01521 0.180417 1.013542 0.288298 1.008373 0.213562 1.018987 0.476801 1.016373 0.385086 1.021601 0.385086 1.016373 0.385086 1.018987 0.279994 1.021601 0.385086 1.021601 0.385086 1.018987 0.279994 1.024431 0.288298 1.018987 0.279994 1.022764 0.180417 1.024431 0.288298 1.024431 0.288298 1.022764 0.180417 1.0296 0.213562 1.022764 0.180417 1.0296 0.115158 1.0296 0.213562 0.883966 0.180417 1.008373 0.115158 1.008373 0.213562 1.008373 -0.005099952 1.008373 0.115158 0.815285 0.08318799 1.008373 0.115158 0.883966 0.180417 0.815285 0.08318799 0.815374 -0.005099952 1.008373 -0.005099952 0.622287 -0.005099952 1.008373 -0.005099952 0.815285 0.08318799 0.622287 -0.005099952 0.01763898 -0.005099952 0.03042095 -0.005099952 0.004857957 -0.005099952 0.03042095 -0.005099952 0.01763898 0.08318799 0.004857957 -0.005099952 0.03042095 -0.005099952 0.03042095 0.115158 0.01763898 0.08318799 0.03042095 0.115158 0.02218794 0.180417 0.01763898 0.08318799 0.020787 0.385086 0.01763898 0.279994 0.02419596 0.288298 0.01763898 0.279994 0.02218794 0.180417 0.02419596 0.288298 0.02419596 0.288298 0.02218794 0.180417 0.03042095 0.213562 0.02218794 0.180417 0.03042095 0.115158 0.03042095 0.213562 0.02101397 0.560206 0.01763898 0.476801 0.02402997 0.476801 0.01763898 0.476801 0.020787 0.385086 0.02402997 0.476801 0.02402997 0.476801 0.020787 0.385086 0.02704596 0.393396 0.020787 0.385086 0.02419596 0.288298 0.02704596 0.393396 0.02704596 0.393396 0.02419596 0.288298 0.03042095 0.311965 0.02419596 0.288298 0.03042095 0.213562 0.03042095 0.311965 0.01763898 0.740041 0.01763898 0.641637 0.02386397 0.665304 0.01763898 0.641637 0.02101397 0.560206 0.02386397 0.665304 0.02386397 0.665304 0.02101397 0.560206 0.02727198 0.568517 0.02101397 0.560206 0.02402997 0.476801 0.02727198 0.568517 0.02727198 0.568517 0.02402997 0.476801 0.03042095 0.476801 0.02402997 0.476801 0.02704596 0.393396 0.03042095 0.476801 0.03042095 0.476801 0.02704596 0.393396 0.03379499 0.393396 0.02704596 0.393396 0.03042095 0.311965 0.03379499 0.393396 0.03379499 0.393396 0.03042095 0.311965 0.03664499 0.288298 0.03042095 0.311965 0.03042095 0.213562 0.03664499 0.288298 0.03664499 0.288298 0.03042095 0.213562 0.03865396 0.180417 0.03042095 0.213562 0.03042095 0.115158 0.03865396 0.180417 0.03865396 0.180417 0.03042095 0.115158 0.04320198 0.08318799 0.03042095 0.115158 0.03042095 -0.005099952 0.04320198 0.08318799 0.04320198 0.08318799 0.03042095 -0.005099952 0.236201 -0.005099952 0.03042095 -0.005099952 0.04320198 -0.005099952 0.236201 -0.005099952</float_array>
          <technique_common>
            <accessor source="#Mesh_0_077-mesh-map-array" count="960" stride="2">
              <param name="S" type="float"/>
              <param name="T" type="float"/>
            </accessor>
          </technique_common>
        </source>
        <vertices id="Mesh_0_077-mesh-vertices">
          <input semantic="POSITION" source="#Mesh_0_077-mesh-positions"/>
        </vertices>
        <triangles material="Material_002-material" count="320">
          <input semantic="VERTEX" source="#Mesh_0_077-mesh-vertices" offset="0"/>
          <input semantic="NORMAL" source="#Mesh_0_077-mesh-normals" offset="1"/>
          <input semantic="TEXCOORD" source="#Mesh_0_077-mesh-map" offset="2" set="0"/>
          <p>0 0 0 1 1 1 2 2 2 3 3 3 4 4 4 5 5 5 4 4 6 6 6 7 5 5 8 5 5 9 6 6 10 7 7 11 6 6 12 8 8 13 7 7 14 7 7 15 8 8 16 9 9 17 8 8 18 10 10 19 9 9 20 9 9 21 10 10 22 11 11 23 10 10 24 12 12 25 11 11 26 11 11 27 12 12 28 13 13 29 12 12 30 14 14 31 13 13 32 13 13 33 14 14 34 15 15 35 14 14 36 16 16 37 15 15 38 15 15 39 16 16 40 17 17 41 16 16 42 18 18 43 17 17 44 17 17 45 18 18 46 19 19 47 18 18 48 0 0 49 19 19 50 19 19 51 0 0 52 20 20 53 0 0 54 2 2 55 20 20 56 20 20 57 2 2 58 21 21 59 2 2 60 22 22 61 21 21 62 21 21 63 22 22 64 23 23 65 22 22 66 24 24 67 23 23 68 25 25 69 3 3 70 26 26 71 3 3 72 5 5 73 26 26 74 26 26 75 5 5 76 27 27 77 5 5 78 7 7 79 27 27 80 27 27 81 7 7 82 28 28 83 7 7 84 9 9 85 28 28 86 28 28 87 9 9 88 29 29 89 9 9 90 11 11 91 29 29 92 29 29 93 11 11 94 30 30 95 11 11 96 13 13 97 30 30 98 30 30 99 13 13 100 31 31 101 13 13 102 15 15 103 31 31 104 31 31 105 15 15 106 32 32 107 15 15 108 17 17 109 32 32 110 32 32 111 17 17 112 33 33 113 17 17 114 19 19 115 33 33 116 33 33 117 19 19 118 34 34 119 19 19 120 20 20 121 34 34 122 34 34 123 20 20 124 35 35 125 20 20 126 21 21 127 35 35 128 35 35 129 21 21 130 36 36 131 21 21 132 23 23 133 36 36 134 37 37 135 25 25 136 38 38 137 25 25 138 26 26 139 38 38 140 38 38 141 26 26 142 39 39 143 26 26 144 27 27 145 39 39 146 39 39 147 27 27 148 40 40 149 27 27 150 28 28 151 40 40 152 40 40 153 28 28 154 41 41 155 28 28 156 29 29 157 41 41 158 41 41 159 29 29 160 42 42 161 29 29 162 30 30 163 42 42 164 42 42 165 30 30 166 43 43 167 30 30 168 31 31 169 43 43 170 43 43 171 31 31 172 44 44 173 31 31 174 32 32 175 44 44 176 44 44 177 32 32 178 45 45 179 32 32 180 33 33 181 45 45 182 45 45 183 33 33 184 46 46 185 33 33 186 34 34 187 46 46 188 46 46 189 34 34 190 47 47 191 34 34 192 35 35 193 47 47 194 47 47 195 35 35 196 48 48 197 35 35 198 36 36 199 48 48 200 40 40 201 41 41 202 49 49 203 41 41 204 42 42 205 49 49 206 49 49 207 42 42 208 50 50 209 42 42 210 43 43 211 50 50 212 50 50 213 43 43 214 51 51 215 43 43 216 44 44 217 51 51 218 51 51 219 44 44 220 52 52 221 44 44 222 45 45 223 52 52 224 52 52 225 45 45 226 46 46 227 39 39 228 40 40 229 53 53 230 40 40 231 49 49 232 53 53 233 53 53 234 49 49 235 54 54 236 49 49 237 50 50 238 54 54 239 54 54 240 50 50 241 55 55 242 50 50 243 51 51 244 55 55 245 55 55 246 51 51 247 56 56 248 51 51 249 52 52 250 56 56 251 56 56 252 52 52 253 57 57 254 52 52 255 46 46 256 57 57 257 57 57 258 46 46 259 47 47 260 38 38 261 39 39 262 58 58 263 39 39 264 53 53 265 58 58 266 58 58 267 53 53 268 59 59 269 53 53 270 54 54 271 59 59 272 59 59 273 54 54 274 60 60 275 54 54 276 55 55 277 60 60 278 60 60 279 55 55 280 61 61 281 55 55 282 56 56 283 61 61 284 61 61 285 56 56 286 62 62 287 56 56 288 57 57 289 62 62 290 62 62 291 57 57 292 63 63 293 57 57 294 47 47 295 63 63 296 63 63 297 47 47 298 48 48 299 64 64 300 38 38 301 65 65 302 38 38 303 58 58 304 65 65 305 65 65 306 58 58 307 66 66 308 58 58 309 59 59 310 66 66 311 66 66 312 59 59 313 67 67 314 59 59 315 60 60 316 67 67 317 67 67 318 60 60 319 68 68 320 60 60 321 61 61 322 68 68 323 68 68 324 61 61 325 69 69 326 61 61 327 62 62 328 69 69 329 69 69 330 62 62 331 70 70 332 62 62 333 63 63 334 70 70 335 70 70 336 63 63 337 71 71 338 63 63 339 48 48 340 71 71 341 71 71 342 48 48 343 72 72 344 48 48 345 36 36 346 72 72 347 72 72 348 36 36 349 73 73 350 36 36 351 23 23 352 73 73 353 73 73 354 23 23 355 74 74 356 23 23 357 24 24 358 74 74 359 74 74 360 24 24 361 75 75 362 24 24 363 76 76 364 75 75 365 75 75 366 76 76 367 77 77 368 76 76 369 78 78 370 77 77 371 67 67 372 68 68 373 79 79 374 68 68 375 69 69 376 79 79 377 79 79 378 69 69 379 80 80 380 69 69 381 70 70 382 80 80 383 80 80 384 70 70 385 81 81 386 70 70 387 71 71 388 81 81 389 81 81 390 71 71 391 82 82 392 71 71 393 72 72 394 82 82 395 82 82 396 72 72 397 73 73 398 66 66 399 67 67 400 83 83 401 67 67 402 79 79 403 83 83 404 83 83 405 79 79 406 84 84 407 79 79 408 80 80 409 84 84 410 84 84 411 80 80 412 85 85 413 80 80 414 81 81 415 85 85 416 85 85 417 81 81 418 86 86 419 81 81 420 82 82 421 86 86 422 86 86 423 82 82 424 87 87 425 82 82 426 73 73 427 87 87 428 87 87 429 73 73 430 74 74 431 65 65 432 66 66 433 88 88 434 66 66 435 83 83 436 88 88 437 88 88 438 83 83 439 89 89 440 83 83 441 84 84 442 89 89 443 89 89 444 84 84 445 90 90 446 84 84 447 85 85 448 90 90 449 90 90 450 85 85 451 91 91 452 85 85 453 86 86 454 91 91 455 91 91 456 86 86 457 92 92 458 86 86 459 87 87 460 92 92 461 92 92 462 87 87 463 93 93 464 87 87 465 74 74 466 93 93 467 93 93 468 74 74 469 75 75 470 77 77 471 94 94 472 75 75 473 75 75 474 94 94 475 93 93 476 94 94 477 95 95 478 93 93 479 93 93 480 95 95 481 92 92 482 95 95 483 96 96 484 92 92 485 92 92 486 96 96 487 91 91 488 96 96 489 97 97 490 91 91 491 91 91 492 97 97 493 90 90 494 97 97 495 98 98 496 90 90 497 90 90 498 98 98 499 89 89 500 98 98 501 99 99 502 89 89 503 89 89 504 99 99 505 88 88 506 99 99 507 100 100 508 88 88 509 88 88 510 100 100 511 65 65 512 100 100 513 101 101 514 65 65 515 98 98 516 97 97 517 102 102 518 97 97 519 96 96 520 102 102 521 102 102 522 96 96 523 103 103 524 96 96 525 95 95 526 103 103 527 103 103 528 95 95 529 104 104 530 95 95 531 94 94 532 104 104 533 104 104 534 94 94 535 105 105 536 94 94 537 77 77 538 105 105 539 99 99 540 98 98 541 106 106 542 98 98 543 102 102 544 106 106 545 106 106 546 102 102 547 107 107 548 102 102 549 103 103 550 107 107 551 107 107 552 103 103 553 108 108 554 103 103 555 104 104 556 108 108 557 108 108 558 104 104 559 109 109 560 104 104 561 105 105 562 109 109 563 100 100 564 99 99 565 110 110 566 99 99 567 106 106 568 110 110 569 110 110 570 106 106 571 111 111 572 106 106 573 107 107 574 111 111 575 111 111 576 107 107 577 112 112 578 107 107 579 108 108 580 112 112 581 112 112 582 108 108 583 113 113 584 108 108 585 109 109 586 113 113 587 114 114 588 100 100 589 115 115 590 100 100 591 110 110 592 115 115 593 115 115 594 110 110 595 116 116 596 110 110 597 111 111 598 116 116 599 116 116 600 111 111 601 117 117 602 111 111 603 112 112 604 117 117 605 117 117 606 112 112 607 118 118 608 112 112 609 113 113 610 118 118 611 77 77 612 78 78 613 105 105 614 78 78 615 119 119 616 105 105 617 105 105 618 119 119 619 109 109 620 119 119 621 120 120 622 109 109 623 109 109 624 120 120 625 113 113 626 120 120 627 121 121 628 113 113 629 113 113 630 121 121 631 118 118 632 121 121 633 122 122 634 118 118 635 118 118 636 122 122 637 117 117 638 122 122 639 123 123 640 117 117 641 117 117 642 123 123 643 116 116 644 123 123 645 124 124 646 116 116 647 116 116 648 124 124 649 115 115 650 124 124 651 125 125 652 115 115 653 115 115 654 125 125 655 126 126 656 121 121 657 120 120 658 127 127 659 120 120 660 128 128 661 127 127 662 127 127 663 128 128 664 129 129 665 128 128 666 130 130 667 129 129 668 129 129 669 130 130 670 131 131 671 130 130 672 132 132 673 131 131 674 122 122 675 121 121 676 133 133 677 121 121 678 127 127 679 133 133 680 133 133 681 127 127 682 134 134 683 127 127 684 129 129 685 134 134 686 134 134 687 129 129 688 135 135 689 129 129 690 131 131 691 135 135 692 135 135 693 131 131 694 136 136 695 131 131 696 132 132 697 136 136 698 136 136 699 132 132 700 137 137 701 132 132 702 138 138 703 137 137 704 137 137 705 138 138 706 139 139 707 138 138 708 140 140 709 139 139 710 123 123 711 122 122 712 141 141 713 122 122 714 133 133 715 141 141 716 141 141 717 133 133 718 142 142 719 133 133 720 134 134 721 142 142 722 142 142 723 134 134 724 143 143 725 134 134 726 135 135 727 143 143 728 143 143 729 135 135 730 144 144 731 135 135 732 136 136 733 144 144 734 144 144 735 136 136 736 145 145 737 136 136 738 137 137 739 145 145 740 145 145 741 137 137 742 146 146 743 137 137 744 139 139 745 146 146 746 124 124 747 123 123 748 147 147 749 123 123 750 141 141 751 147 147 752 147 147 753 141 141 754 148 148 755 141 141 756 142 142 757 148 148 758 148 148 759 142 142 760 149 149 761 142 142 762 143 143 763 149 149 764 149 149 765 143 143 766 150 150 767 143 143 768 144 144 769 150 150 770 150 150 771 144 144 772 151 151 773 144 144 774 145 145 775 151 151 776 125 125 777 124 124 778 152 152 779 124 124 780 147 147 781 152 152 782 152 152 783 147 147 784 153 153 785 147 147 786 148 148 787 153 153 788 153 153 789 148 148 790 154 154 791 148 148 792 149 149 793 154 154 794 154 154 795 149 149 796 155 155 797 149 149 798 150 150 799 155 155 800 140 140 801 138 138 802 156 156 803 138 138 804 157 157 805 156 156 806 156 156 807 157 157 808 158 158 809 157 157 810 159 159 811 158 158 812 158 158 813 159 159 814 78 78 815 159 159 816 119 119 817 78 78 818 160 160 819 140 140 820 161 161 821 140 140 822 156 156 823 161 161 824 161 161 825 156 156 826 162 162 827 156 156 828 158 158 829 162 162 830 162 162 831 158 158 832 76 76 833 158 158 834 78 78 835 76 76 836 120 120 837 119 119 838 128 128 839 119 119 840 159 159 841 128 128 842 128 128 843 159 159 844 130 130 845 159 159 846 157 157 847 130 130 848 130 130 849 157 157 850 132 132 851 157 157 852 138 138 853 132 132 854 24 24 855 162 162 856 76 76 857 161 161 858 162 162 859 22 22 860 162 162 861 24 24 862 22 22 863 163 163 864 161 161 865 2 2 866 161 161 867 22 22 868 2 2 869 164 164 870 165 165 871 166 166 872 165 165 873 167 167 874 166 166 875 165 165 876 168 168 877 167 167 878 168 168 879 169 169 880 167 167 881 170 170 882 171 171 883 172 172 884 171 171 885 169 169 886 172 172 887 172 172 888 169 169 889 173 173 890 169 169 891 168 168 892 173 173 893 174 174 894 175 175 895 176 176 896 175 175 897 170 170 898 176 176 899 176 176 900 170 170 901 177 177 902 170 170 903 172 172 904 177 177 905 177 177 906 172 172 907 178 178 908 172 172 909 173 173 910 178 178 911 4 4 912 179 179 913 6 6 914 179 179 915 174 174 916 6 6 917 6 6 918 174 174 919 8 8 920 174 174 921 176 176 922 8 8 923 8 8 924 176 176 925 10 10 926 176 176 927 177 177 928 10 10 929 10 10 930 177 177 931 12 12 932 177 177 933 178 178 934 12 12 935 12 12 936 178 178 937 14 14 938 178 178 939 173 173 940 14 14 941 14 14 942 173 173 943 16 16 944 173 173 945 168 168 946 16 16 947 16 16 948 168 168 949 18 18 950 168 168 951 165 165 952 18 18 953 18 18 954 165 165 955 0 0 956 165 165 957 180 180 958 0 0 959</p>
        </triangles>
      </mesh>
    </geometry>
  </library_geometries>
  <library_visual_scenes>
    <visual_scene id="Scene" name="Scene">
      <node id="Mesh_0_047" name="Mesh_0.047" type="NODE">
        <matrix sid="transform">1 0 0 0 0 7.54979e-8 -1 0 0 1 7.54979e-8 0.6563838 0 0 0 1</matrix>
        <instance_geometry url="#Mesh_0_077-mesh" name="Mesh_0.047">
          <bind_material>
            <technique_common>
              <instance_material symbol="Material_002-material" target="#Material_002-material"/>
            </technique_common>
          </bind_material>
        </instance_geometry>
      </node>
    </visual_scene>
  </library_visual_scenes>
  <scene>
    <instance_visual_scene url="#Scene"/>
  </scene>
</COLLADA>