<?xml version="1.0" encoding="utf-8"?>
<COLLADA xmlns="http://www.collada.org/2005/11/COLLADASchema" version="1.4.1">
  <asset />
  <library_images>
    <image id="gam005_pin00_alb">
      <init_from>gam005_pin00_alb.png</init_from>
    </image>
    <image id="gam005_pin00_nml">
      <init_from>gam005_pin00_nml.png</init_from>
    </image>
    <image id="gam005_pin00_rgh">
      <init_from>gam005_pin00_rgh.png</init_from>
    </image>
    <image id="gam005_pin00_irr">
      <init_from>gam005_pin00_irr.png</init_from>
    </image>
    <image id="gam005_pin00_rad">
      <init_from>gam005_pin00_rad.png</init_from>
    </image>
  </library_images>
  <library_materials>
    <material id="gam005_pin00_mt">
      <instance_effect url="#Effect_gam005_pin00_mt" />
    </material>
  </library_materials>
  <library_effects>
    <effect id="Effect_gam005_pin00_mt">
      <profile_COMMON>
        <newparam sid="surface_gam005_pin00_mt-diffuse">
          <surface type="2D">
            <init_from>gam005_pin00_alb</init_from>
            <format>A8R8G8B8</format>
          </surface>
        </newparam>
        <newparam sid="sampler_gam005_pin00_mt-diffuse">
          <sampler2D>
            <source>surface_gam005_pin00_mt-diffuse</source>
            <wrap_s>WRAP</wrap_s>
            <wrap_t>WRAP</wrap_t>
          </sampler2D>
        </newparam>
        <technique sid="common">
          <phong>
            <diffuse>
              <texture texture="sampler_gam005_pin00_mt-diffuse" texcoord="CHANNEL0" />
            </diffuse>
            <emission>
              <color sid="emission">0 0 0 1</color>
            </emission>
            <specular>
              <color sid="specular">0 0 0 1</color>
            </specular>
          </phong>
        </technique>
      </profile_COMMON>
    </effect>
  </library_effects>
  <library_geometries>
    <geometry id="gam005_pin01__gam005_pin00_mt-mesh" name="gam005_pin01__gam005_pin00_mt">
      <mesh>
        <source id="gam005_pin01__gam005_pin00_mt-position">
          <float_array id="gam005_pin01__gam005_pin00_mt-position-array" count="1284">0 0.002399445 0.006469727 0 0.01560974 0.004135132 0.00243187 0.01560974 0.00334549 0.003801346 0.002399445 0.005233765 0.003932953 0.01560974 0.001277924 0.006153107 0.002399445 0.001998901 0.003932953 0.01560974 -0.001277924 0.006153107 0.002399445 -0.001998901 0.00243187 0.01560974 -0.00334549 0.003801346 0.002399445 -0.005233765 0 0.01560974 -0.004135132 0 0.002399445 -0.006469727 -0.00243187 0.01560974 -0.00334549 -0.003801346 0.002399445 -0.005233765 -0.003932953 0.01560974 -0.001277924 -0.006153107 0.002399445 -0.001998901 -0.003932953 0.01560974 0.001277924 -0.006153107 0.002399445 0.001998901 -0.00243187 0.01560974 0.00334549 -0.003803253 0.002399445 0.005233765 0 0.01560974 0.004135132 0 0.002399445 0.006469727 0.03610229 0.3820801 -0.01172638 0.03222656 0.3945313 -0.01047516 0.03390503 0.3945313 0 0.03796387 0.3820801 0 0.03601074 0.3693848 -0.01170349 0.03222656 0.3945313 0.01047516 0.03787231 0.3693848 0 0.02575684 0.2963867 -0.008369446 0.03610229 0.3820801 0.01172638 0.02742004 0.3945313 0.01992798 0.02708435 0.2963867 0 0.02568054 0.276123 -0.008338928 0.03601074 0.3693848 0.01170349 0.03071594 0.3820801 0.02230835 0.01992798 0.3945313 0.02742004 0.02700806 0.276123 0 0.02816772 0.2590332 -0.009147644 0.02575684 0.2963867 0.008369446 0.03065491 0.3693848 0.02226257 0.02230835 0.3820801 0.03071594 0.01047516 0.3945313 0.03222656 0.02191162 0.2963867 0.01591492 0.01172638 0.3820801 0.03610229 0 0.3945313 0.03390503 0.02226257 0.3693848 0.03065491 0 0.3820801 0.03796387 -0.01047516 0.3945313 0.03222656 0.01170349 0.3693848 0.03601074 0.01591492 0.2963867 0.02191162 -0.01172638 0.3820801 0.03610229 -0.01992798 0.3945313 0.02742004 0 0.3693848 0.03787231 0.008369446 0.2963867 0.02575684 -0.02230835 0.3820801 0.03071594 -0.02742004 0.3945313 0.01992798 -0.01170349 0.3693848 0.03601074 0 0.2963867 0.02708435 -0.03071594 0.3820801 0.02230835 -0.03222656 0.3945313 0.01047516 -0.02226257 0.3693848 0.03065491 -0.008369446 0.2963867 0.02575684 -0.03610229 0.3820801 0.01172638 -0.03390503 0.3945313 0 -0.03065491 0.3693848 0.02226257 -0.01591492 0.2963867 0.02191162 -0.03796387 0.3820801 0 -0.03222656 0.3945313 -0.01047516 -0.03601074 0.3693848 0.01170349 -0.02191162 0.2963867 0.01591492 -0.03610229 0.3820801 -0.01172638 -0.02742004 0.3945313 -0.01992798 -0.03787231 0.3693848 0 -0.02575684 0.2963867 0.008369446 -0.03071594 0.3820801 -0.02230835 -0.01992798 0.3945313 -0.02742004 -0.03601074 0.3693848 -0.01170349 -0.02708435 0.2963867 0 -0.02230835 0.3820801 -0.03071594 -0.01047516 0.3945313 -0.03222656 -0.03065491 0.3693848 -0.02226257 -0.02575684 0.2963867 -0.008369446 -0.01172638 0.3820801 -0.03610229 0 0.3945313 -0.03390503 -0.02226257 0.3693848 -0.03065491 -0.02191162 0.2963867 -0.01591492 0 0.3820801 -0.03796387 0.01047516 0.3945313 -0.03222656 -0.01170349 0.3693848 -0.03601074 -0.01591492 0.2963867 -0.02191162 0.01172638 0.3820801 -0.03610229 0.01992798 0.3945313 -0.02742004 0 0.3693848 -0.03787231 -0.008369446 0.2963867 -0.02575684 0.02230835 0.3820801 -0.03071594 0.02742004 0.3945313 -0.01992798 0.01170349 0.3693848 -0.03601074 0 0.2963867 -0.02708435 0.03071594 0.3820801 -0.02230835 0.03222656 0.3945313 -0.01047516 0.03610229 0.3820801 -0.01172638 0.02226257 0.3693848 -0.03065491 0.03065491 0.3693848 -0.02226257 0.03601074 0.3693848 -0.01170349 0.008369446 0.2963867 -0.02575684 0.01591492 0.2963867 -0.02191162 0.02191162 0.2963867 -0.01591492 0.02575684 0.2963867 -0.008369446 0.008338928 0.276123 -0.02568054 0.02183533 0.276123 -0.01586914 0.02568054 0.276123 -0.008338928 0.01586914 0.276123 -0.02183533 0.0239563 0.2590332 -0.01741028 0.02816772 0.2590332 -0.009147644 0.01741028 0.2590332 -0.0239563 0.02906799 0.2381592 -0.02111816 0.03417969 0.2381592 -0.01110077 0.02111816 0.2381592 -0.02906799 0.009147644 0.2590332 -0.02816772 0.04705811 0.1828613 -0.03417969 0.05532837 0.1828613 -0.01797485 0.03417969 0.1828613 -0.04705811 0.01110077 0.2381592 -0.03417969 0.05258179 0.151001 -0.03817749 0.0617981 0.151001 -0.02008057 0.03817749 0.151001 -0.05258179 0.01797485 0.1828613 -0.05532837 0.05386353 0.1280518 -0.03912354 0.06329346 0.1280518 -0.02056885 0.03912354 0.1280518 -0.05386353 0.02008057 0.151001 -0.0617981 0.05276489 0.1032104 -0.03833008 0.06201172 0.1032104 -0.02015686 0.03833008 0.1032104 -0.05276489 0.02056885 0.1280518 -0.06329346 0.04946899 0.07830811 -0.03594971 0.0581665 0.07830811 -0.01889038 0.03594971 0.07830811 -0.04946899 0.02015686 0.1032104 -0.06201172 0.01889038 0.07830811 -0.0581665 0.02839661 0.03738403 -0.0390625 0.0390625 0.03738403 -0.02839661 0.04592896 0.03738403 -0.01493073 0.03289795 0.003082275 -0.01068878 0.02798462 0.003082275 -0.02032471 0.02032471 0.003082275 -0.02798462 0.01068878 0.003082275 -0.03289795 0.01493073 0.03738403 -0.04592896 0 0.003082275 -0.03457642 0 0.03738403 -0.04830933 -0.01068878 0.003082275 -0.03289795 0 0.07830811 -0.06115723 -0.01493073 0.03738403 -0.04592896 -0.02032471 0.003082275 -0.02798462 0 0.1032104 -0.06518555 -0.01889038 0.07830811 -0.0581665 -0.02839661 0.03738403 -0.0390625 -0.02798462 0.003082275 -0.02032471 0 0.1280518 -0.06658936 -0.0390625 0.03738403 -0.02839661 -0.03289795 0.003082275 -0.01068878 -0.03594971 0.07830811 -0.04946899 -0.02015686 0.1032104 -0.06201172 -0.04592896 0.03738403 -0.01493073 -0.03457642 0.003082275 0 -0.04946899 0.07830811 -0.03594971 -0.03833008 0.1032104 -0.05276489 -0.02056885 0.1280518 -0.06329346 0 0.151001 -0.06494141 -0.03912354 0.1280518 -0.05386353 0 0.1828613 -0.0581665 -0.02008057 0.151001 -0.0617981 0 0.2381592 -0.03591919 -0.01797485 0.1828613 -0.05532837 0 0.2590332 -0.02961731 -0.01110077 0.2381592 -0.03417969 -0.03817749 0.151001 -0.05258179 -0.03417969 0.1828613 -0.04705811 -0.009147644 0.2590332 -0.02816772 0 0.276123 -0.02700806 -0.008338928 0.276123 -0.02568054 -0.02111816 0.2381592 -0.02906799 -0.01741028 0.2590332 -0.0239563 -0.01586914 0.276123 -0.02183533 -0.02906799 0.2381592 -0.02111816 -0.02183533 0.276123 -0.01586914 -0.0239563 0.2590332 -0.01741028 -0.02568054 0.276123 -0.008338928 -0.02816772 0.2590332 -0.009147644 -0.02700806 0.276123 0 -0.02961731 0.2590332 0 -0.03417969 0.2381592 -0.01110077 -0.03591919 0.2381592 0 -0.02568054 0.276123 0.008338928 -0.02816772 0.2590332 0.009147644 -0.02183533 0.276123 0.01586914 -0.0239563 0.2590332 0.01741028 -0.03417969 0.2381592 0.01110077 -0.02906799 0.2381592 0.02111816 -0.01586914 0.276123 0.02183533 -0.01741028 0.2590332 0.0239563 -0.008338928 0.276123 0.02568054 -0.009147644 0.2590332 0.02816772 -0.02111816 0.2381592 0.02906799 -0.01110077 0.2381592 0.03417969 0 0.276123 0.02700806 0 0.2590332 0.02961731 0.008338928 0.276123 0.02568054 0.009147644 0.2590332 0.02816772 0 0.2381592 0.03591919 0.01110077 0.2381592 0.03417969 0.01586914 0.276123 0.02183533 0.01741028 0.2590332 0.0239563 0.02183533 0.276123 0.01586914 0.0239563 0.2590332 0.01741028 0.02111816 0.2381592 0.02906799 0.02906799 0.2381592 0.02111816 0.02568054 0.276123 0.008338928 0.02816772 0.2590332 0.009147644 0.02961731 0.2590332 0 0.03417969 0.2381592 -0.01110077 0.03591919 0.2381592 0 0.05532837 0.1828613 -0.01797485 0.03417969 0.2381592 0.01110077 0.0581665 0.1828613 0 0.0617981 0.151001 -0.02008057 0.05532837 0.1828613 0.01797485 0.06494141 0.151001 0 0.06329346 0.1280518 -0.02056885 0.04705811 0.1828613 0.03417969 0.0617981 0.151001 0.02008057 0.06658936 0.1280518 0 0.06201172 0.1032104 -0.02015686 0.03417969 0.1828613 0.04705811 0.06518555 0.1032104 0 0.0581665 0.07830811 -0.01889038 0.06329346 0.1280518 0.02056885 0.05258179 0.151001 0.03817749 0.06115723 0.07830811 0 0.04592896 0.03738403 -0.01493073 0.06201172 0.1032104 0.02015686 0.05386353 0.1280518 0.03912354 0.04830933 0.03738403 0 0.03289795 0.003082275 -0.01068878 0.03457642 0.003082275 0 0.0581665 0.07830811 0.01889038 0.04592896 0.03738403 0.01493073 0.03289795 0.003082275 0.01068878 0.05276489 0.1032104 0.03833008 0.04946899 0.07830811 0.03594971 0.0390625 0.03738403 0.02839661 0.02798462 0.003082275 0.02032471 0.03833008 0.1032104 0.05276489 0.02839661 0.03738403 0.0390625 0.02032471 0.003082275 0.02798462 0.03594971 0.07830811 0.04946899 0.01493073 0.03738403 0.04592896 0.01068878 0.003082275 0.03289795 0.01889038 0.07830811 0.0581665 0 0.03738403 0.04830933 0 0.003082275 0.03457642 0 0.07830811 0.06115723 0.02015686 0.1032104 0.06201172 -0.01493073 0.03738403 0.04592896 -0.01068878 0.003082275 0.03289795 -0.01889038 0.07830811 0.0581665 -0.02839661 0.03738403 0.0390625 -0.02032471 0.003082275 0.02798462 -0.03594971 0.07830811 0.04946899 -0.0390625 0.03738403 0.02839661 -0.02798462 0.003082275 0.02032471 -0.04946899 0.07830811 0.03594971 -0.04592896 0.03738403 0.01493073 -0.03289795 0.003082275 0.01068878 -0.0581665 0.07830811 0.01889038 -0.04830933 0.03738403 0 -0.06115723 0.07830811 0 -0.0581665 0.07830811 -0.01889038 -0.06518555 0.1032104 0 -0.05276489 0.1032104 -0.03833008 -0.06201172 0.1032104 -0.02015686 -0.05386353 0.1280518 -0.03912354 -0.06329346 0.1280518 -0.02056885 -0.05258179 0.151001 -0.03817749 -0.06658936 0.1280518 0 -0.04705811 0.1828613 -0.03417969 -0.0617981 0.151001 -0.02008057 -0.05532837 0.1828613 -0.01797485 -0.06494141 0.151001 0 -0.0581665 0.1828613 0 -0.06329346 0.1280518 0.02056885 -0.05532837 0.1828613 0.01797485 -0.0617981 0.151001 0.02008057 -0.04705811 0.1828613 0.03417969 -0.05258179 0.151001 0.03817749 -0.03417969 0.1828613 0.04705811 -0.03817749 0.151001 0.05258179 -0.05386353 0.1280518 0.03912354 -0.03912354 0.1280518 0.05386353 -0.01797485 0.1828613 0.05532837 -0.02008057 0.151001 0.0617981 0 0.1828613 0.0581665 0 0.151001 0.06494141 -0.02056885 0.1280518 0.06329346 0 0.1280518 0.06658936 0.01797485 0.1828613 0.05532837 0.02008057 0.151001 0.0617981 0.03817749 0.151001 0.05258179 0.03912354 0.1280518 0.05386353 0.02056885 0.1280518 0.06329346 0 0.1032104 0.06518555 -0.02015686 0.1032104 0.06201172 -0.03833008 0.1032104 0.05276489 -0.05276489 0.1032104 0.03833008 -0.06201172 0.1032104 0.02015686 0.003801346 0.002399445 -0.005233765 0.005687714 0 -0.007827759 0.006153107 0.002399445 -0.001998901 0 0 -0.009681702 0.00920105 0 -0.002990723 0 0.002399445 -0.006469727 0.006153107 0.002399445 0.001998901 -0.005687714 0 -0.007827759 0.00920105 0 0.002990723 -0.003801346 0.002399445 -0.005233765 0.003801346 0.002399445 0.005233765 -0.00920105 0 -0.002990723 0.005687714 0 0.007827759 -0.006153107 0.002399445 -0.001998901 0 0.002399445 0.006469727 -0.00920105 0 0.002990723 0 0 0.009681702 -0.006153107 0.002399445 0.001998901 -0.003803253 0.002399445 0.005233765 -0.005687714 0 0.007827759 0.003932953 0.01560974 -0.001277924 0 0.01560974 0 0.00243187 0.01560974 -0.00334549 0 0.01560974 -0.004135132 0.003932953 0.01560974 0.001277924 -0.00243187 0.01560974 -0.00334549 0.00243187 0.01560974 0.00334549 -0.003932953 0.01560974 -0.001277924 0 0.01560974 0.004135132 -0.003932953 0.01560974 0.001277924 -0.00243187 0.01560974 0.00334549 0.03390503 0.3945313 0 0.03222656 0.3945313 -0.01047516 0.0256958 0.4055176 -0.008346558 0.02742004 0.3945313 -0.01992798 0.0256958 0.4055176 0.008346558 0.03222656 0.3945313 0.01047516 0.02742004 0.3945313 0.01992798 0.0158844 0.4055176 -0.02185059 0.01992798 0.3945313 -0.02742004 0.01047516 0.3945313 -0.03222656 0.0158844 0.4055176 0.02185059 0.01992798 0.3945313 0.02742004 0.01047516 0.3945313 0.03222656 0.01551819 0.4128418 0.005039215 0 0.4055176 0.02702332 0 0.3945313 0.03390503 -0.01047516 0.3945313 0.03222656 0.009590149 0.4128418 0.01319885 0 0.4128418 0.01631165 0 0.4150391 0 0.01551819 0.4128418 -0.005039215 -0.009590149 0.4128418 0.01319885 0.009590149 0.4128418 -0.01319885 -0.0158844 0.4055176 0.02185059 -0.01992798 0.3945313 0.02742004 -0.02742004 0.3945313 0.01992798 -0.01551819 0.4128418 0.005039215 -0.0256958 0.4055176 0.008346558 -0.03222656 0.3945313 0.01047516 -0.03390503 0.3945313 0 -0.01551819 0.4128418 -0.005039215 -0.0256958 0.4055176 -0.008346558 -0.03222656 0.3945313 -0.01047516 -0.02742004 0.3945313 -0.01992798 -0.009590149 0.4128418 -0.01319885 -0.0158844 0.4055176 -0.02185059 -0.01992798 0.3945313 -0.02742004 -0.01047516 0.3945313 -0.03222656 0 0.4128418 -0.01631165 0 0.4055176 -0.02702332 0 0.3945313 -0.03390503 0.03289795 0.003082275 -0.01068878 0.03034973 0 -0.009864807 0.02798462 0.003082275 -0.02032471 0.03457642 0.003082275 0 0.01875305 0 -0.02581787 0.02032471 0.003082275 -0.02798462 0.01068878 0.003082275 -0.03289795 0.03034973 0 0.009864807 0.03289795 0.003082275 0.01068878 0.02798462 0.003082275 0.02032471 0.00920105 0 -0.002990723 0.00920105 0 0.002990723 0.005687714 0 -0.007827759 0.005687714 0 0.007827759 0 0 -0.03192139 0 0.003082275 -0.03457642 0 0 -0.009681702 -0.01068878 0.003082275 -0.03289795 -0.01875305 0 -0.02581787 -0.02032471 0.003082275 -0.02798462 -0.005687714 0 -0.007827759 -0.02798462 0.003082275 -0.02032471 -0.03034973 0 -0.009864807 -0.03289795 0.003082275 -0.01068878 -0.00920105 0 -0.002990723 -0.03457642 0.003082275 0 -0.03034973 0 0.009864807 -0.03289795 0.003082275 0.01068878 -0.00920105 0 0.002990723 -0.02798462 0.003082275 0.02032471 -0.01875305 0 0.02581787 -0.02032471 0.003082275 0.02798462 -0.005687714 0 0.007827759 -0.01068878 0.003082275 0.03289795 0 0 0.03192139 0 0.003082275 0.03457642 0 0 0.009681702 0.01068878 0.003082275 0.03289795 0.01875305 0 0.02581787 0.02032471 0.003082275 0.02798462</float_array>
          <technique_common>
            <accessor source="#gam005_pin01__gam005_pin00_mt-position-array" count="428" stride="3">
              <param name="X" type="float" />
              <param name="Y" type="float" />
              <param name="Z" type="float" />
            </accessor>
          </technique_common>
        </source>
        <source id="gam005_pin01__gam005_pin00_mt-normal">
          <float_array id="gam005_pin01__gam005_pin00_mt-normal-array" count="1284">0 -0.1741683 -0.9843444 0 -0.1741683 -0.9843444 -0.5792564 -0.1741683 -0.7964775 -0.5792564 -0.1741683 -0.7964775 -0.9373777 -0.1741683 -0.3052838 -0.9373777 -0.1741683 -0.3052838 -0.9373777 -0.1741683 0.3052838 -0.9373777 -0.1741683 0.3052838 -0.5792564 -0.1741683 0.7964775 -0.5792564 -0.1741683 0.7964775 0 -0.1741683 0.9843444 0 -0.1741683 0.9843444 0.5792564 -0.1741683 0.7964775 0.5792564 -0.1741683 0.7964775 0.9373777 -0.1741683 0.3052838 0.9373777 -0.1741683 0.3052838 0.9373777 -0.1741683 -0.3052838 0.9373777 -0.1741683 -0.3052838 0.5792564 -0.1741683 -0.7964775 0.5792564 -0.1741683 -0.7964775 0 -0.1741683 -0.9843444 0 -0.1741683 -0.9843444 0.9393346 0.1506849 -0.3052838 0.8806262 0.3776908 -0.2857143 0.9158513 0.4011742 0 0.9882583 0.1506849 0 0.9432485 -0.1232877 -0.3072407 0.8806262 0.3776908 0.2857143 0.9921722 -0.1232877 0 0.9432485 -0.1193738 -0.3072407 0.9393346 0.1506849 0.3052838 0.7416829 0.4011742 0.5381604 0.9921722 -0.1193738 0 0.9491194 0.0704501 -0.3091977 0.9432485 -0.1232877 0.3072407 0.8003914 0.1506849 0.5812133 0.5440313 0.3776908 0.7495108 0.9980431 0.0704501 0 0.9236791 0.2348337 -0.2994129 0.9432485 -0.1193738 0.3072407 0.8023483 -0.1232877 0.5831702 0.5812133 0.1506849 0.8003914 0.2837573 0.4011742 0.8708415 0.8023483 -0.1193738 0.5831702 0.3052838 0.1506849 0.9393346 0 0.3776908 0.925636 0.5831702 -0.1232877 0.8023483 0 0.1506849 0.9882583 -0.2837573 0.4011742 0.8708415 0.3072407 -0.1232877 0.9432485 0.5831702 -0.1193738 0.8023483 -0.3052838 0.1506849 0.9393346 -0.5440313 0.3776908 0.7495108 0 -0.1232877 0.9921722 0.3072407 -0.1193738 0.9432485 -0.5812133 0.1506849 0.8003914 -0.7416829 0.4011742 0.5381604 -0.3072407 -0.1232877 0.9432485 0 -0.1193738 0.9921722 -0.8003914 0.1506849 0.5812133 -0.8806262 0.3776908 0.2857143 -0.5831702 -0.1232877 0.8023483 -0.3072407 -0.1193738 0.9432485 -0.9393346 0.1506849 0.3052838 -0.9158513 0.4011742 0 -0.8023483 -0.1232877 0.5831702 -0.5831702 -0.1193738 0.8023483 -0.9882583 0.1506849 0 -0.8806262 0.3776908 -0.2857143 -0.9432485 -0.1232877 0.3072407 -0.8023483 -0.1193738 0.5831702 -0.9393346 0.1506849 -0.3052838 -0.7416829 0.4011742 -0.5381604 -0.9921722 -0.1232877 0 -0.9432485 -0.1193738 0.3072407 -0.8003914 0.1506849 -0.5812133 -0.5440313 0.3776908 -0.7495108 -0.9432485 -0.1232877 -0.3072407 -0.9921722 -0.1193738 0 -0.5812133 0.1506849 -0.8003914 -0.2837573 0.4011742 -0.8708415 -0.8023483 -0.1232877 -0.5831702 -0.9432485 -0.1193738 -0.3072407 -0.3052838 0.1506849 -0.9393346 0 0.3776908 -0.925636 -0.5831702 -0.1232877 -0.8023483 -0.8023483 -0.1193738 -0.5831702 0 0.1506849 -0.9882583 0.2837573 0.4011742 -0.8708415 -0.3072407 -0.1232877 -0.9432485 -0.5831702 -0.1193738 -0.8023483 0.3052838 0.1506849 -0.9393346 0.5440313 0.3776908 -0.7495108 0 -0.1232877 -0.9921722 -0.3072407 -0.1193738 -0.9432485 0.5812133 0.1506849 -0.8003914 0.7416829 0.4011742 -0.5381604 0.3072407 -0.1232877 -0.9432485 0 -0.1193738 -0.9921722 0.8003914 0.1506849 -0.5812133 0.8806262 0.3776908 -0.2857143 0.9393346 0.1506849 -0.3052838 0.5831702 -0.1232877 -0.8023483 0.8023483 -0.1232877 -0.5831702 0.9432485 -0.1232877 -0.3072407 0.3072407 -0.1193738 -0.9432485 0.5831702 -0.1193738 -0.8023483 0.8023483 -0.1193738 -0.5831702 0.9432485 -0.1193738 -0.3072407 0.3091977 0.0704501 -0.9491194 0.8062623 0.0704501 -0.5870842 0.9491194 0.0704501 -0.3091977 0.5870842 0.0704501 -0.8062623 0.7866927 0.2348337 -0.5714286 0.9236791 0.2348337 -0.2994129 0.5714286 0.2348337 -0.7866927 0.7553816 0.3581213 -0.5499021 0.888454 0.3581213 -0.2876712 0.5499021 0.3581213 -0.7553816 0.2994129 0.2348337 -0.9236791 0.7710372 0.3033268 -0.5596869 0.9060665 0.3033268 -0.2935421 0.5596869 0.3033268 -0.7710372 0.2876712 0.3581213 -0.888454 0.8003914 0.148728 -0.5812133 0.9412916 0.148728 -0.3052838 0.5812133 0.148728 -0.8003914 0.2935421 0.3033268 -0.9060665 0.8082192 0.003913894 -0.5870842 0.9510763 0.003913894 -0.3091977 0.5870842 0.003913894 -0.8082192 0.3052838 0.148728 -0.9412916 0.8043053 -0.1076321 -0.5851272 0.9452055 -0.1076321 -0.3072407 0.5851272 -0.1076321 -0.8043053 0.3091977 0.003913894 -0.9510763 0.7847358 -0.2426614 -0.5694716 0.9217221 -0.2426614 -0.2994129 0.5694716 -0.2426614 -0.7847358 0.3072407 -0.1076321 -0.9452055 0.2994129 -0.2426614 -0.9217221 0.555773 -0.3268102 -0.7651663 0.7651663 -0.3268102 -0.555773 0.8982387 -0.3268102 -0.2915851 0.8786693 -0.3835616 -0.2857143 0.739726 -0.407045 -0.5362035 0.5420744 -0.3835616 -0.7475538 0.2818004 -0.407045 -0.8688846 0.2915851 -0.3268102 -0.8982387 0 -0.3835616 -0.9236791 0 -0.3268102 -0.9452055 -0.2818004 -0.407045 -0.8688846 0 -0.2426614 -0.9706458 -0.2915851 -0.3268102 -0.8982387 -0.5420744 -0.3835616 -0.7475538 0 -0.1076321 -0.9941292 -0.2994129 -0.2426614 -0.9217221 -0.555773 -0.3268102 -0.7651663 -0.739726 -0.407045 -0.5362035 0 0.003913894 -1 -0.7651663 -0.3268102 -0.555773 -0.8786693 -0.3835616 -0.2857143 -0.5694716 -0.2426614 -0.7847358 -0.3072407 -0.1076321 -0.9452055 -0.8982387 -0.3268102 -0.2915851 -0.9138943 -0.407045 0 -0.7847358 -0.2426614 -0.5694716 -0.5851272 -0.1076321 -0.8043053 -0.3091977 0.003913894 -0.9510763 0 0.148728 -0.9882583 -0.5870842 0.003913894 -0.8082192 0 0.3033268 -0.9530333 -0.3052838 0.148728 -0.9412916 0 0.3581213 -0.9334638 -0.2935421 0.3033268 -0.9060665 0 0.2348337 -0.9726027 -0.2876712 0.3581213 -0.888454 -0.5812133 0.148728 -0.8003914 -0.5596869 0.3033268 -0.7710372 -0.2994129 0.2348337 -0.9236791 0 0.0704501 -0.9980431 -0.3091977 0.0704501 -0.9491194 -0.5499021 0.3581213 -0.7553816 -0.5714286 0.2348337 -0.7866927 -0.5870842 0.0704501 -0.8062623 -0.7553816 0.3581213 -0.5499021 -0.8062623 0.0704501 -0.5870842 -0.7866927 0.2348337 -0.5714286 -0.9491194 0.0704501 -0.3091977 -0.9236791 0.2348337 -0.2994129 -0.9980431 0.0704501 0 -0.9726027 0.2348337 0 -0.888454 0.3581213 -0.2876712 -0.9334638 0.3581213 0 -0.9491194 0.0704501 0.3091977 -0.9236791 0.2348337 0.2994129 -0.8062623 0.0704501 0.5870842 -0.7866927 0.2348337 0.5714286 -0.888454 0.3581213 0.2876712 -0.7553816 0.3581213 0.5499021 -0.5870842 0.0704501 0.8062623 -0.5714286 0.2348337 0.7866927 -0.3091977 0.0704501 0.9491194 -0.2994129 0.2348337 0.9236791 -0.5499021 0.3581213 0.7553816 -0.2876712 0.3581213 0.888454 0 0.0704501 0.9980431 0 0.2348337 0.9726027 0.3091977 0.0704501 0.9491194 0.2994129 0.2348337 0.9236791 0 0.3581213 0.9334638 0.2876712 0.3581213 0.888454 0.5870842 0.0704501 0.8062623 0.5714286 0.2348337 0.7866927 0.8062623 0.0704501 0.5870842 0.7866927 0.2348337 0.5714286 0.5499021 0.3581213 0.7553816 0.7553816 0.3581213 0.5499021 0.9491194 0.0704501 0.3091977 0.9236791 0.2348337 0.2994129 0.9726027 0.2348337 0 0.888454 0.3581213 -0.2876712 0.9334638 0.3581213 0 0.9060665 0.3033268 -0.2935421 0.888454 0.3581213 0.2876712 0.9530333 0.3033268 0 0.9412916 0.148728 -0.3052838 0.9060665 0.3033268 0.2935421 0.9882583 0.148728 0 0.9510763 0.003913894 -0.3091977 0.7710372 0.3033268 0.5596869 0.9412916 0.148728 0.3052838 1 0.003913894 0 0.9452055 -0.1076321 -0.3072407 0.5596869 0.3033268 0.7710372 0.9941292 -0.1076321 0 0.9217221 -0.2426614 -0.2994129 0.9510763 0.003913894 0.3091977 0.8003914 0.148728 0.5812133 0.9706458 -0.2426614 0 0.8982387 -0.3268102 -0.2915851 0.9452055 -0.1076321 0.3072407 0.8082192 0.003913894 0.5870842 0.9452055 -0.3268102 0 0.8786693 -0.3835616 -0.2857143 0.9138943 -0.407045 0 0.9217221 -0.2426614 0.2994129 0.8982387 -0.3268102 0.2915851 0.8786693 -0.3835616 0.2857143 0.8043053 -0.1076321 0.5851272 0.7847358 -0.2426614 0.5694716 0.7651663 -0.3268102 0.555773 0.739726 -0.407045 0.5362035 0.5851272 -0.1076321 0.8043053 0.555773 -0.3268102 0.7651663 0.5420744 -0.3835616 0.7475538 0.5694716 -0.2426614 0.7847358 0.2915851 -0.3268102 0.8982387 0.2818004 -0.407045 0.8688846 0.2994129 -0.2426614 0.9217221 0 -0.3268102 0.9452055 0 -0.3835616 0.9236791 0 -0.2426614 0.9706458 0.3072407 -0.1076321 0.9452055 -0.2915851 -0.3268102 0.8982387 -0.2818004 -0.407045 0.8688846 -0.2994129 -0.2426614 0.9217221 -0.555773 -0.3268102 0.7651663 -0.5420744 -0.3835616 0.7475538 -0.5694716 -0.2426614 0.7847358 -0.7651663 -0.3268102 0.555773 -0.739726 -0.407045 0.5362035 -0.7847358 -0.2426614 0.5694716 -0.8982387 -0.3268102 0.2915851 -0.8786693 -0.3835616 0.2857143 -0.9217221 -0.2426614 0.2994129 -0.9452055 -0.3268102 0 -0.9706458 -0.2426614 0 -0.9217221 -0.2426614 -0.2994129 -0.9941292 -0.1076321 0 -0.8043053 -0.1076321 -0.5851272 -0.9452055 -0.1076321 -0.3072407 -0.8082192 0.003913894 -0.5870842 -0.9510763 0.003913894 -0.3091977 -0.8003914 0.148728 -0.5812133 -1 0.003913894 0 -0.7710372 0.3033268 -0.5596869 -0.9412916 0.148728 -0.3052838 -0.9060665 0.3033268 -0.2935421 -0.9882583 0.148728 0 -0.9530333 0.3033268 0 -0.9510763 0.003913894 0.3091977 -0.9060665 0.3033268 0.2935421 -0.9412916 0.148728 0.3052838 -0.7710372 0.3033268 0.5596869 -0.8003914 0.148728 0.5812133 -0.5596869 0.3033268 0.7710372 -0.5812133 0.148728 0.8003914 -0.8082192 0.003913894 0.5870842 -0.5870842 0.003913894 0.8082192 -0.2935421 0.3033268 0.9060665 -0.3052838 0.148728 0.9412916 0 0.3033268 0.9530333 0 0.148728 0.9882583 -0.3091977 0.003913894 0.9510763 0 0.003913894 1 0.2935421 0.3033268 0.9060665 0.3052838 0.148728 0.9412916 0.5812133 0.148728 0.8003914 0.5870842 0.003913894 0.8082192 0.3091977 0.003913894 0.9510763 0 -0.1076321 0.9941292 -0.3072407 -0.1076321 0.9452055 -0.5851272 -0.1076321 0.8043053 -0.8043053 -0.1076321 0.5851272 -0.9452055 -0.1076321 0.3072407 -0.3522505 -0.8003914 0.483366 -0.3522505 -0.8003914 0.483366 -0.5694716 -0.8003914 0.18591 0 -0.8003914 0.5988258 -0.5694716 -0.8003914 0.18591 0 -0.8003914 0.5988258 -0.5694716 -0.8003914 -0.18591 0.3522505 -0.8003914 0.483366 -0.5694716 -0.8003914 -0.18591 0.3522505 -0.8003914 0.483366 -0.3522505 -0.8003914 -0.483366 0.5694716 -0.8003914 0.18591 -0.3522505 -0.8003914 -0.483366 0.5694716 -0.8003914 0.18591 0 -0.8003914 -0.5988258 0.5694716 -0.8003914 -0.18591 0 -0.8003914 -0.5988258 0.5694716 -0.8003914 -0.18591 0.3522505 -0.8003914 -0.483366 0.3522505 -0.8003914 -0.483366 0 -1 0 0 -1 0 0 -1 0 0 -1 0 0 -1 0 0 -1 0 0 -1 0 0 -1 0 0 -1 0 0 -1 0 0 -1 0 0.9158513 0.4011742 0 0.8806262 0.3776908 -0.2857143 0.6438356 0.7377691 -0.2093934 0.7416829 0.4011742 -0.5381604 0.6438356 0.7377691 0.2093934 0.8806262 0.3776908 0.2857143 0.7416829 0.4011742 0.5381604 0.3972603 0.7377691 -0.5459883 0.5440313 0.3776908 -0.7495108 0.2837573 0.4011742 -0.8708415 0.3972603 0.7377691 0.5459883 0.5440313 0.3776908 0.7495108 0.2837573 0.4011742 0.8708415 0.4481409 0.8825831 0.1448141 0 0.7377691 0.6751468 0 0.3776908 0.925636 -0.2837573 0.4011742 0.8708415 0.2759295 0.8825831 0.3816047 0 0.8825831 0.4696673 0 1 0 0.4481409 0.8825831 -0.1448141 -0.2759295 0.8825831 0.3816047 0.2759295 0.8825831 -0.3816047 -0.3972603 0.7377691 0.5459883 -0.5440313 0.3776908 0.7495108 -0.7416829 0.4011742 0.5381604 -0.4481409 0.8825831 0.1448141 -0.6438356 0.7377691 0.2093934 -0.8806262 0.3776908 0.2857143 -0.9158513 0.4011742 0 -0.4481409 0.8825831 -0.1448141 -0.6438356 0.7377691 -0.2093934 -0.8806262 0.3776908 -0.2857143 -0.7416829 0.4011742 -0.5381604 -0.2759295 0.8825831 -0.3816047 -0.3972603 0.7377691 -0.5459883 -0.5440313 0.3776908 -0.7495108 -0.2837573 0.4011742 -0.8708415 0 0.8825831 -0.4696673 0 0.7377691 -0.6751468 0 0.3776908 -0.925636 0.8786693 -0.3835616 -0.2857143 0 -1 0 0.739726 -0.407045 -0.5362035 0.9138943 -0.407045 0 0 -1 0 0.5420744 -0.3835616 -0.7475538 0.2818004 -0.407045 -0.8688846 0 -1 0 0.8786693 -0.3835616 0.2857143 0.739726 -0.407045 0.5362035 0 -1 0 0 -1 0 0 -1 0 0 -1 0 0 -1 0 0 -0.3835616 -0.9236791 0 -1 0 -0.2818004 -0.407045 -0.8688846 0 -1 0 -0.5420744 -0.3835616 -0.7475538 0 -1 0 -0.739726 -0.407045 -0.5362035 0 -1 0 -0.8786693 -0.3835616 -0.2857143 0 -1 0 -0.9138943 -0.407045 0 0 -1 0 -0.8786693 -0.3835616 0.2857143 0 -1 0 -0.739726 -0.407045 0.5362035 0 -1 0 -0.5420744 -0.3835616 0.7475538 0 -1 0 -0.2818004 -0.407045 0.8688846 0 -1 0 0 -0.3835616 0.9236791 0 -1 0 0.2818004 -0.407045 0.8688846 0 -1 0 0.5420744 -0.3835616 0.7475538</float_array>
          <technique_common>
            <accessor source="#gam005_pin01__gam005_pin00_mt-normal-array" count="428" stride="3">
              <param name="X" type="float" />
              <param name="Y" type="float" />
              <param name="Z" type="float" />
            </accessor>
          </technique_common>
        </source>
        <source id="gam005_pin01__gam005_pin00_mt-texcoord">
          <float_array id="gam005_pin01__gam005_pin00_mt-texcoord-array" count="856">0.06373694 0.06504923 0.06373694 0.04603648 0.08618296 0.04603648 0.08618296 0.06504923 0.108629 0.04603648 0.108629 0.06504923 0.1310597 0.04603648 0.1310597 0.06504923 0.1535058 0.04603648 0.1535058 0.06504923 0.1759518 0.04603648 0.1759518 0.06504923 0.1983825 0.04603648 0.1983825 0.06504923 0.2208286 0.04603648 0.2208286 0.06504923 0.2432746 0.04603648 0.2432746 0.06504923 0.2657206 0.04603648 0.2657206 0.06504923 0.2881514 0.04603648 0.2881514 0.06504923 0.9787595 0.9536278 0.9729457 0.9799039 0.9476311 0.9812161 0.9476311 0.9536278 0.9787595 0.923476 0.9165027 0.9812161 0.9476311 0.923476 0.9787595 0.7459068 0.9165027 0.9536278 0.8853742 0.9812161 0.9476311 0.7459068 0.9787595 0.6972915 0.9165027 0.923476 0.8853742 0.9536278 0.8542458 0.9812161 0.9476311 0.6972915 0.9787595 0.6549783 0.9165027 0.7459068 0.8853742 0.923476 0.8542458 0.9536278 0.8231174 0.9812161 0.8853742 0.7459068 0.8231174 0.9536278 0.7919738 0.9812161 0.8542458 0.923476 0.7919738 0.9536278 0.7608454 0.9812161 0.8231174 0.923476 0.8542458 0.7459068 0.7608454 0.9536278 0.729717 0.9812161 0.7919738 0.923476 0.8231174 0.7459068 0.729717 0.9536278 0.6985886 0.9812161 0.7608454 0.923476 0.7919738 0.7459068 0.6985886 0.9536278 0.6674601 0.9812161 0.729717 0.923476 0.7608454 0.7459068 0.6674601 0.9536278 0.6363317 0.9812161 0.6985886 0.923476 0.729717 0.7459068 0.6363317 0.9536278 0.6052033 0.9812161 0.6674601 0.923476 0.6985886 0.7459068 0.6052033 0.9536278 0.5740597 0.9812161 0.6363317 0.923476 0.6674601 0.7459068 0.5740597 0.9536278 0.5429313 0.9812161 0.6052033 0.923476 0.6363317 0.7459068 0.5429313 0.9536278 0.5118029 0.9812161 0.5740597 0.923476 0.6052033 0.7459068 0.5118029 0.9536278 0.4806744 0.9812161 0.5429313 0.923476 0.5740597 0.7459068 0.4806744 0.9536278 0.449546 0.9812161 0.5118029 0.923476 0.5429313 0.7459068 0.449546 0.9536278 0.4184176 0.9812161 0.4806744 0.923476 0.5118029 0.7459068 0.4184176 0.9536278 0.387274 0.9812161 0.449546 0.923476 0.4806744 0.7459068 0.387274 0.9536278 0.3619745 0.9799039 0.3561456 0.9536278 0.4184176 0.923476 0.387274 0.923476 0.3561456 0.923476 0.449546 0.7459068 0.4184176 0.7459068 0.387274 0.7459068 0.3561456 0.7459068 0.449546 0.6972915 0.387274 0.6972915 0.3561456 0.6972915 0.4184176 0.6972915 0.387274 0.6549783 0.3561456 0.6549783 0.4184176 0.6549783 0.387274 0.6022888 0.3560693 0.6022888 0.4184176 0.6022888 0.449546 0.6549783 0.387274 0.4603494 0.3561456 0.4603494 0.4184176 0.4603494 0.449546 0.6022888 0.387274 0.381857 0.3561456 0.381857 0.4184176 0.381857 0.449546 0.4603494 0.387274 0.3267109 0.3561456 0.3267109 0.4184176 0.3267109 0.449546 0.381857 0.387274 0.2668498 0.3561456 0.2668498 0.4184176 0.2668498 0.449546 0.3267109 0.387274 0.2062562 0.3561456 0.2062562 0.4184176 0.2062562 0.449546 0.2668498 0.449546 0.2062562 0.4184176 0.1044175 0.387274 0.1044175 0.3561456 0.1044175 0.3561456 0.0153811 0.387274 0.0153811 0.4184176 0.0153811 0.449546 0.0153811 0.449546 0.1044175 0.4806744 0.0153811 0.4806744 0.1044175 0.5118029 0.0153811 0.4806744 0.2062562 0.5118029 0.1044175 0.5429313 0.0153811 0.4806744 0.2668498 0.5118029 0.2062562 0.5429313 0.1044175 0.5740597 0.0153811 0.4806744 0.3267109 0.5740597 0.1044175 0.6052033 0.0153811 0.5429313 0.2062562 0.5118029 0.2668498 0.6052033 0.1044175 0.6363317 0.0153811 0.5740597 0.2062562 0.5429313 0.2668498 0.5118029 0.3267109 0.4806744 0.381857 0.5429313 0.3267109 0.4806744 0.4603494 0.5118029 0.381857 0.4806744 0.6022888 0.5118029 0.4603494 0.4806744 0.6549783 0.5118029 0.6022888 0.5429313 0.381857 0.5429313 0.4603494 0.5118029 0.6549783 0.4806744 0.6972915 0.5118029 0.6972915 0.5429313 0.6022888 0.5429313 0.6549783 0.5429313 0.6972915 0.5740597 0.6022888 0.5740597 0.6972915 0.5740597 0.6549783 0.6052033 0.6972915 0.6052033 0.6549783 0.6363317 0.6972915 0.6363317 0.6549783 0.6052033 0.6022888 0.6363317 0.6022888 0.6674601 0.6972915 0.6674601 0.6549783 0.6985886 0.6972915 0.6985886 0.6549783 0.6674601 0.6022888 0.6985886 0.6022888 0.729717 0.6972915 0.729717 0.6549783 0.7608454 0.6972915 0.7608454 0.6549783 0.729717 0.6022888 0.7608454 0.6022888 0.7919738 0.6972915 0.7919738 0.6549783 0.8231174 0.6972915 0.8231174 0.6549783 0.7919738 0.6022888 0.8231174 0.6022888 0.8542458 0.6972915 0.8542458 0.6549783 0.8853742 0.6972915 0.8853742 0.6549783 0.8542458 0.6022888 0.8853742 0.6022888 0.9165027 0.6972915 0.9165027 0.6549783 0.9476311 0.6549783 0.978851 0.6022888 0.9476311 0.6022888 0.9787595 0.4603494 0.9165027 0.6022888 0.9476311 0.4603494 0.9787595 0.381857 0.9165027 0.4603494 0.9476311 0.381857 0.9787595 0.3267109 0.8853742 0.4603494 0.9165027 0.381857 0.9476311 0.3267109 0.9787595 0.2668498 0.8542458 0.4603494 0.9476311 0.2668498 0.9787595 0.2062562 0.9165027 0.3267109 0.8853742 0.381857 0.9476311 0.2062562 0.9787595 0.1044175 0.9165027 0.2668498 0.8853742 0.3267109 0.9476311 0.1044175 0.9787595 0.0153811 0.9476311 0.0153811 0.9165027 0.2062562 0.9165027 0.1044175 0.9165027 0.0153811 0.8853742 0.2668498 0.8853742 0.2062562 0.8853742 0.1044175 0.8853742 0.0153811 0.8542458 0.2668498 0.8542458 0.1044175 0.8542458 0.0153811 0.8542458 0.2062562 0.8231174 0.1044175 0.8231174 0.0153811 0.8231174 0.2062562 0.7919738 0.1044175 0.7919738 0.0153811 0.7919738 0.2062562 0.8231174 0.2668498 0.7608454 0.1044175 0.7608454 0.0153811 0.7608454 0.2062562 0.729717 0.1044175 0.729717 0.0153811 0.729717 0.2062562 0.6985886 0.1044175 0.6985886 0.0153811 0.6985886 0.2062562 0.6674601 0.1044175 0.6674601 0.0153811 0.6674601 0.2062562 0.6363317 0.1044175 0.6363317 0.2062562 0.6052033 0.2062562 0.6363317 0.2668498 0.5740597 0.2668498 0.6052033 0.2668498 0.5740597 0.3267109 0.6052033 0.3267109 0.5740597 0.381857 0.6363317 0.3267109 0.5740597 0.4603494 0.6052033 0.381857 0.6052033 0.4603494 0.6363317 0.381857 0.6363317 0.4603494 0.6674601 0.3267109 0.6674601 0.4603494 0.6674601 0.381857 0.6985886 0.4603494 0.6985886 0.381857 0.729717 0.4603494 0.729717 0.381857 0.6985886 0.3267109 0.729717 0.3267109 0.7608454 0.4603494 0.7608454 0.381857 0.7919738 0.4603494 0.7919738 0.381857 0.7608454 0.3267109 0.7919738 0.3267109 0.8231174 0.4603494 0.8231174 0.381857 0.8542458 0.381857 0.8542458 0.3267109 0.8231174 0.3267109 0.7919738 0.2668498 0.7608454 0.2668498 0.729717 0.2668498 0.6985886 0.2668498 0.6674601 0.2668498 0.1859464 0.3267872 0.1921874 0.317937 0.1921263 0.3353933 0.1757534 0.3126268 0.2023651 0.3319142 0.175906 0.3234608 0.1920501 0.3459831 0.1593194 0.3179827 0.2023957 0.3491874 0.1658045 0.3266499 0.1857633 0.3544976 0.1491722 0.3319753 0.1922484 0.3631647 0.1595178 0.3351797 0.1756771 0.357702 0.1492027 0.3492485 0.1758297 0.3685359 0.1594568 0.3457542 0.1656214 0.3543755 0.1593805 0.3632105 0.186862 0.1315023 0.1692531 0.1362173 0.1807279 0.1220569 0.1702144 0.1180133 0.1862669 0.1427482 0.1593347 0.1209278 0.1791867 0.1515068 0.1522393 0.1296712 0.1682917 0.1544213 0.1516442 0.1409171 0.1577783 0.1503776 0.2815289 0.6069429 0.2750897 0.6410162 0.2425116 0.6301824 0.2604257 0.6724193 0.2425116 0.5836881 0.2750897 0.5728542 0.2604105 0.5414664 0.2152285 0.6678111 0.2353399 0.6961623 0.2051728 0.7128862 0.2152132 0.5460746 0.2353246 0.5177233 0.2051575 0.5009995 0.2095674 0.5944457 0.1710231 0.5317159 0.1710231 0.4966506 0.1368887 0.5009995 0.1948577 0.5742275 0.1710536 0.5665064 0.1710231 0.6069429 0.2095522 0.61944 0.1472343 0.5742275 0.1948272 0.6396582 0.126833 0.5460746 0.1067216 0.5177233 0.08163577 0.5414664 0.1325094 0.5944457 0.09954986 0.5836881 0.06697185 0.5728694 0.06051728 0.6069429 0.1324941 0.61944 0.09954986 0.6301976 0.06697185 0.6410315 0.08163577 0.6724193 0.1472038 0.6396582 0.126833 0.6678111 0.1067369 0.6961623 0.1369039 0.7128862 0.1710079 0.6473793 0.1710384 0.6821698 0.1710384 0.7172351 0.2742656 0.3085985 0.2608835 0.3129473 0.26009 0.2793317 0.2799878 0.3405966 0.2283818 0.2682078 0.2366522 0.2568246 0.2079805 0.2414588 0.2608683 0.368246 0.2742504 0.3725795 0.2600748 0.4018463 0.2023651 0.3319142 0.2023957 0.3491874 0.1921874 0.317937 0.1922484 0.3631647 0.1757992 0.2511177 0.1757839 0.2370489 0.1757534 0.3126268 0.1436027 0.2414588 0.1232013 0.2682078 0.114931 0.2568246 0.1593194 0.3179827 0.09149309 0.2793317 0.09069963 0.312932 0.0773022 0.3085985 0.1491722 0.3319753 0.07158007 0.3405966 0.09069963 0.3682307 0.07731746 0.3725795 0.1492027 0.3492485 0.09150835 0.4018463 0.1232013 0.4129549 0.1149462 0.4243382 0.1593805 0.3632105 0.1436027 0.4396887 0.1757839 0.4300297 0.1757839 0.4441139 0.1758297 0.3685359 0.2079652 0.4396887 0.2283513 0.4129549 0.2366369 0.4243382</float_array>
          <technique_common>
            <accessor source="#gam005_pin01__gam005_pin00_mt-texcoord-array" count="428" stride="2">
              <param name="S" type="float" />
              <param name="T" type="float" />
            </accessor>
          </technique_common>
        </source>
        <vertices id="gam005_pin01__gam005_pin00_mt-vertex">
          <input semantic="POSITION" source="#gam005_pin01__gam005_pin00_mt-position" />
        </vertices>
        <triangles material="gam005_pin00_mt" count="680">
          <input semantic="VERTEX" source="#gam005_pin01__gam005_pin00_mt-vertex" offset="0" />
          <input semantic="NORMAL" source="#gam005_pin01__gam005_pin00_mt-normal" offset="1" />
          <input semantic="TEXCOORD" source="#gam005_pin01__gam005_pin00_mt-texcoord" offset="2" set="0" />
          <p>0 0 0 1 1 1 2 2 2 3 3 3 0 0 0 2 2 2 3 3 3 2 2 2 4 4 4 5 5 5 3 3 3 4 4 4 5 5 5 4 4 4 6 6 6 7 7 7 5 5 5 6 6 6 7 7 7 6 6 6 8 8 8 9 9 9 7 7 7 8 8 8 9 9 9 8 8 8 10 10 10 11 11 11 9 9 9 10 10 10 11 11 11 10 10 10 12 12 12 13 13 13 11 11 11 12 12 12 13 13 13 12 12 12 14 14 14 15 15 15 13 13 13 14 14 14 15 15 15 14 14 14 16 16 16 17 17 17 15 15 15 16 16 16 17 17 17 16 16 16 18 18 18 19 19 19 17 17 17 18 18 18 19 19 19 18 18 18 20 20 20 21 21 21 19 19 19 20 20 20 22 22 22 23 23 23 24 24 24 25 25 25 22 22 22 24 24 24 26 26 26 22 22 22 25 25 25 25 25 25 24 24 24 27 27 27 28 28 28 26 26 26 25 25 25 29 29 29 26 26 26 28 28 28 30 30 30 25 25 25 27 27 27 28 28 28 25 25 25 30 30 30 30 30 30 27 27 27 31 31 31 32 32 32 29 29 29 28 28 28 33 33 33 29 29 29 32 32 32 34 34 34 28 28 28 30 30 30 32 32 32 28 28 28 34 34 34 35 35 35 30 30 30 31 31 31 34 34 34 30 30 30 35 35 35 35 35 35 31 31 31 36 36 36 37 37 37 33 33 33 32 32 32 38 38 38 33 33 33 37 37 37 39 39 39 32 32 32 34 34 34 37 37 37 32 32 32 39 39 39 40 40 40 34 34 34 35 35 35 39 39 39 34 34 34 40 40 40 41 41 41 35 35 35 36 36 36 40 40 40 35 35 35 41 41 41 41 41 41 36 36 36 42 42 42 43 43 43 39 39 39 40 40 40 44 44 44 41 41 41 42 42 42 44 44 44 42 42 42 45 45 45 46 46 46 40 40 40 41 41 41 46 46 46 41 41 41 44 44 44 43 43 43 40 40 40 46 46 46 47 47 47 44 44 44 45 45 45 47 47 47 45 45 45 48 48 48 49 49 49 46 46 46 44 44 44 49 49 49 44 44 44 47 47 47 50 50 50 43 43 43 46 46 46 50 50 50 46 46 46 49 49 49 51 51 51 47 47 47 48 48 48 51 51 51 48 48 48 52 52 52 53 53 53 49 49 49 47 47 47 53 53 53 47 47 47 51 51 51 54 54 54 50 50 50 49 49 49 54 54 54 49 49 49 53 53 53 55 55 55 51 51 51 52 52 52 55 55 55 52 52 52 56 56 56 57 57 57 53 53 53 51 51 51 57 57 57 51 51 51 55 55 55 58 58 58 54 54 54 53 53 53 58 58 58 53 53 53 57 57 57 59 59 59 55 55 55 56 56 56 59 59 59 56 56 56 60 60 60 61 61 61 57 57 57 55 55 55 61 61 61 55 55 55 59 59 59 62 62 62 58 58 58 57 57 57 62 62 62 57 57 57 61 61 61 63 63 63 59 59 59 60 60 60 63 63 63 60 60 60 64 64 64 65 65 65 61 61 61 59 59 59 65 65 65 59 59 59 63 63 63 66 66 66 62 62 62 61 61 61 66 66 66 61 61 61 65 65 65 67 67 67 63 63 63 64 64 64 67 67 67 64 64 64 68 68 68 69 69 69 65 65 65 63 63 63 69 69 69 63 63 63 67 67 67 70 70 70 66 66 66 65 65 65 70 70 70 65 65 65 69 69 69 71 71 71 67 67 67 68 68 68 71 71 71 68 68 68 72 72 72 73 73 73 69 69 69 67 67 67 73 73 73 67 67 67 71 71 71 74 74 74 70 70 70 69 69 69 74 74 74 69 69 69 73 73 73 75 75 75 71 71 71 72 72 72 75 75 75 72 72 72 76 76 76 77 77 77 73 73 73 71 71 71 77 77 77 71 71 71 75 75 75 78 78 78 74 74 74 73 73 73 78 78 78 73 73 73 77 77 77 79 79 79 75 75 75 76 76 76 79 79 79 76 76 76 80 80 80 81 81 81 77 77 77 75 75 75 81 81 81 75 75 75 79 79 79 82 82 82 78 78 78 77 77 77 82 82 82 77 77 77 81 81 81 83 83 83 79 79 79 80 80 80 83 83 83 80 80 80 84 84 84 85 85 85 81 81 81 79 79 79 85 85 85 79 79 79 83 83 83 86 86 86 82 82 82 81 81 81 86 86 86 81 81 81 85 85 85 87 87 87 83 83 83 84 84 84 87 87 87 84 84 84 88 88 88 89 89 89 85 85 85 83 83 83 89 89 89 83 83 83 87 87 87 90 90 90 86 86 86 85 85 85 90 90 90 85 85 85 89 89 89 91 91 91 87 87 87 88 88 88 91 91 91 88 88 88 92 92 92 93 93 93 89 89 89 87 87 87 93 93 93 87 87 87 91 91 91 94 94 94 90 90 90 89 89 89 94 94 94 89 89 89 93 93 93 95 95 95 91 91 91 92 92 92 95 95 95 92 92 92 96 96 96 97 97 97 93 93 93 91 91 91 97 97 97 91 91 91 95 95 95 98 98 98 94 94 94 93 93 93 98 98 98 93 93 93 97 97 97 99 99 99 95 95 95 96 96 96 99 99 99 96 96 96 100 100 100 101 101 101 99 99 99 100 100 100 102 102 102 97 97 97 95 95 95 102 102 102 95 95 95 99 99 99 103 103 103 99 99 99 101 101 101 103 103 103 102 102 102 99 99 99 104 104 104 103 103 103 101 101 101 105 105 105 97 97 97 102 102 102 105 105 105 98 98 98 97 97 97 106 106 106 102 102 102 103 103 103 106 106 106 105 105 105 102 102 102 107 107 107 103 103 103 104 104 104 107 107 107 106 106 106 103 103 103 108 108 108 107 107 107 104 104 104 109 109 109 105 105 105 106 106 106 110 110 110 107 107 107 108 108 108 111 111 111 110 110 110 108 108 108 112 112 112 106 106 106 107 107 107 110 110 110 112 112 112 107 107 107 112 112 112 109 109 109 106 106 106 113 113 113 110 110 110 111 111 111 114 114 114 113 113 113 111 111 111 115 115 115 112 112 112 110 110 110 113 113 113 115 115 115 110 110 110 116 116 116 113 113 113 114 114 114 117 117 117 116 116 116 114 114 114 118 118 118 115 115 115 113 113 113 116 116 116 118 118 118 113 113 113 115 115 115 119 119 119 112 112 112 119 119 119 109 109 109 112 112 112 120 120 120 116 116 116 117 117 117 121 121 121 120 120 120 117 117 117 122 122 122 118 118 118 116 116 116 120 120 120 122 122 122 116 116 116 118 118 118 123 123 123 115 115 115 123 123 123 119 119 119 115 115 115 124 124 124 120 120 120 121 121 121 125 125 125 124 124 124 121 121 121 126 126 126 122 122 122 120 120 120 124 124 124 126 126 126 120 120 120 122 122 122 127 127 127 118 118 118 127 127 127 123 123 123 118 118 118 128 128 128 124 124 124 125 125 125 129 129 129 128 128 128 125 125 125 130 130 130 126 126 126 124 124 124 128 128 128 130 130 130 124 124 124 126 126 126 131 131 131 122 122 122 131 131 131 127 127 127 122 122 122 132 132 132 128 128 128 129 129 129 133 133 133 132 132 132 129 129 129 134 134 134 130 130 130 128 128 128 132 132 132 134 134 134 128 128 128 130 130 130 135 135 135 126 126 126 135 135 135 131 131 131 126 126 126 136 136 136 132 132 132 133 133 133 137 137 137 136 136 136 133 133 133 138 138 138 134 134 134 132 132 132 136 136 136 138 138 138 132 132 132 134 134 134 139 139 139 130 130 130 139 139 139 135 135 135 130 130 130 138 138 138 140 140 140 134 134 134 140 140 140 139 139 139 134 134 134 141 141 141 138 138 138 136 136 136 142 142 142 136 136 136 137 137 137 142 142 142 141 141 141 136 136 136 143 143 143 142 142 142 137 137 137 142 142 142 143 143 143 144 144 144 145 145 145 142 142 142 144 144 144 142 142 142 145 145 145 146 146 146 141 141 141 142 142 142 146 146 146 141 141 141 146 146 146 147 147 147 148 148 148 141 141 141 147 147 147 141 141 141 148 148 148 138 138 138 148 148 148 140 140 140 138 138 138 148 148 148 147 147 147 149 149 149 150 150 150 148 148 148 149 149 149 148 148 148 150 150 150 140 140 140 150 150 150 149 149 149 151 151 151 150 150 150 152 152 152 140 140 140 140 140 140 152 152 152 139 139 139 153 153 153 150 150 150 151 151 151 150 150 150 153 153 153 152 152 152 153 153 153 151 151 151 154 154 154 152 152 152 155 155 155 139 139 139 139 139 139 155 155 155 135 135 135 153 153 153 156 156 156 152 152 152 152 152 152 156 156 156 155 155 155 157 157 157 153 153 153 154 154 154 153 153 153 157 157 157 156 156 156 157 157 157 154 154 154 158 158 158 155 155 155 159 159 159 135 135 135 135 135 135 159 159 159 131 131 131 160 160 160 157 157 157 158 158 158 160 160 160 158 158 158 161 161 161 157 157 157 162 162 162 156 156 156 157 157 157 160 160 160 162 162 162 156 156 156 163 163 163 155 155 155 156 156 156 162 162 162 163 163 163 155 155 155 163 163 163 159 159 159 164 164 164 160 160 160 161 161 161 164 164 164 161 161 161 165 165 165 160 160 160 166 166 166 162 162 162 160 160 160 164 164 164 166 166 166 162 162 162 167 167 167 163 163 163 162 162 162 166 166 166 167 167 167 163 163 163 168 168 168 159 159 159 163 163 163 167 167 167 168 168 168 159 159 159 169 169 169 131 131 131 159 159 159 168 168 168 169 169 169 131 131 131 169 169 169 127 127 127 167 167 167 170 170 170 168 168 168 169 169 169 171 171 171 127 127 127 127 127 127 171 171 171 123 123 123 168 168 168 172 172 172 169 169 169 169 169 169 172 172 172 171 171 171 168 168 168 170 170 170 172 172 172 171 171 171 173 173 173 123 123 123 123 123 123 173 173 173 119 119 119 172 172 172 174 174 174 171 171 171 171 171 171 174 174 174 173 173 173 173 173 173 175 175 175 119 119 119 119 119 119 175 175 175 109 109 109 174 174 174 176 176 176 173 173 173 173 173 173 176 176 176 175 175 175 172 172 172 177 177 177 174 174 174 170 170 170 177 177 177 172 172 172 174 174 174 178 178 178 176 176 176 177 177 177 178 178 178 174 174 174 176 176 176 179 179 179 175 175 175 175 175 175 180 180 180 109 109 109 175 175 175 179 179 179 180 180 180 109 109 109 180 180 180 105 105 105 180 180 180 98 98 98 105 105 105 180 180 180 181 181 181 98 98 98 179 179 179 181 181 181 180 180 180 181 181 181 94 94 94 98 98 98 176 176 176 182 182 182 179 179 179 178 178 178 182 182 182 176 176 176 179 179 179 183 183 183 181 181 181 182 182 182 183 183 183 179 179 179 181 181 181 184 184 184 94 94 94 183 183 183 184 184 184 181 181 181 184 184 184 90 90 90 94 94 94 182 182 182 185 185 185 183 183 183 184 184 184 186 186 186 90 90 90 186 186 186 86 86 86 90 90 90 183 183 183 187 187 187 184 184 184 187 187 187 186 186 186 184 184 184 185 185 185 187 187 187 183 183 183 186 186 186 188 188 188 86 86 86 188 188 188 82 82 82 86 86 86 187 187 187 189 189 189 186 186 186 189 189 189 188 188 188 186 186 186 188 188 188 190 190 190 82 82 82 190 190 190 78 78 78 82 82 82 189 189 189 191 191 191 188 188 188 191 191 191 190 190 190 188 188 188 192 192 192 189 189 189 187 187 187 185 185 185 192 192 192 187 187 187 193 193 193 191 191 191 189 189 189 192 192 192 193 193 193 189 189 189 190 190 190 194 194 194 78 78 78 194 194 194 74 74 74 78 78 78 191 191 191 195 195 195 190 190 190 195 195 195 194 194 194 190 190 190 194 194 194 196 196 196 74 74 74 196 196 196 70 70 70 74 74 74 195 195 195 197 197 197 194 194 194 197 197 197 196 196 196 194 194 194 198 198 198 195 195 195 191 191 191 193 193 193 198 198 198 191 191 191 199 199 199 197 197 197 195 195 195 198 198 198 199 199 199 195 195 195 196 196 196 200 200 200 70 70 70 200 200 200 66 66 66 70 70 70 197 197 197 201 201 201 196 196 196 201 201 201 200 200 200 196 196 196 200 200 200 202 202 202 66 66 66 202 202 202 62 62 62 66 66 66 201 201 201 203 203 203 200 200 200 203 203 203 202 202 202 200 200 200 204 204 204 201 201 201 197 197 197 199 199 199 204 204 204 197 197 197 205 205 205 203 203 203 201 201 201 204 204 204 205 205 205 201 201 201 202 202 202 206 206 206 62 62 62 206 206 206 58 58 58 62 62 62 203 203 203 207 207 207 202 202 202 207 207 207 206 206 206 202 202 202 206 206 206 208 208 208 58 58 58 208 208 208 54 54 54 58 58 58 207 207 207 209 209 209 206 206 206 209 209 209 208 208 208 206 206 206 210 210 210 207 207 207 203 203 203 205 205 205 210 210 210 203 203 203 211 211 211 209 209 209 207 207 207 210 210 210 211 211 211 207 207 207 208 208 208 212 212 212 54 54 54 212 212 212 50 50 50 54 54 54 209 209 209 213 213 213 208 208 208 213 213 213 212 212 212 208 208 208 212 212 212 214 214 214 50 50 50 214 214 214 43 43 43 50 50 50 213 213 213 215 215 215 212 212 212 215 215 215 214 214 214 212 212 212 216 216 216 213 213 213 209 209 209 211 211 211 216 216 216 209 209 209 217 217 217 215 215 215 213 213 213 216 216 216 217 217 217 213 213 213 214 214 214 218 218 218 43 43 43 218 218 218 39 39 39 43 43 43 218 218 218 37 37 37 39 39 39 215 215 215 219 219 219 214 214 214 219 219 219 218 218 218 214 214 214 220 220 220 37 37 37 218 218 218 219 219 219 220 220 220 218 218 218 220 220 220 38 38 38 37 37 37 221 221 221 38 38 38 220 220 220 222 222 222 221 221 221 220 220 220 222 222 222 220 220 220 219 219 219 223 223 223 221 221 221 222 222 222 224 224 224 219 219 219 215 215 215 224 224 224 222 222 222 219 219 219 217 217 217 224 224 224 215 215 215 225 225 225 223 223 223 222 222 222 225 225 225 222 222 222 224 224 224 226 226 226 223 223 223 225 225 225 227 227 227 224 224 224 217 217 217 227 227 227 225 225 225 224 224 224 228 228 228 226 226 226 225 225 225 228 228 228 225 225 225 227 227 227 229 229 229 226 226 226 228 228 228 230 230 230 227 227 227 217 217 217 230 230 230 217 217 217 216 216 216 231 231 231 228 228 228 227 227 227 231 231 231 227 227 227 230 230 230 232 232 232 229 229 229 228 228 228 232 232 232 228 228 228 231 231 231 233 233 233 229 229 229 232 232 232 234 234 234 230 230 230 216 216 216 234 234 234 216 216 216 211 211 211 235 235 235 233 233 233 232 232 232 236 236 236 233 233 233 235 235 235 237 237 237 232 232 232 231 231 231 235 235 235 232 232 232 237 237 237 238 238 238 231 231 231 230 230 230 237 237 237 231 231 231 238 238 238 238 238 238 230 230 230 234 234 234 239 239 239 236 236 236 235 235 235 240 240 240 236 236 236 239 239 239 241 241 241 235 235 235 237 237 237 239 239 239 235 235 235 241 241 241 242 242 242 237 237 237 238 238 238 241 241 241 237 237 237 242 242 242 243 243 243 240 240 240 239 239 239 240 240 240 243 243 243 244 244 244 243 243 243 245 245 245 244 244 244 246 246 246 239 239 239 241 241 241 243 243 243 239 239 239 246 246 246 243 243 243 247 247 247 245 245 245 247 247 247 243 243 243 246 246 246 247 247 247 248 248 248 245 245 245 246 246 246 241 241 241 249 249 249 249 249 249 241 241 241 242 242 242 247 247 247 246 246 246 250 250 250 250 250 250 246 246 246 249 249 249 247 247 247 251 251 251 248 248 248 251 251 251 247 247 247 250 250 250 251 251 251 252 252 252 248 248 248 250 250 250 249 249 249 253 253 253 251 251 251 254 254 254 252 252 252 254 254 254 255 255 255 252 252 252 251 251 251 250 250 250 256 256 256 254 254 254 251 251 251 256 256 256 256 256 256 250 250 250 253 253 253 254 254 254 257 257 257 255 255 255 257 257 257 258 258 258 255 255 255 254 254 254 256 256 256 259 259 259 257 257 257 254 254 254 259 259 259 257 257 257 260 260 260 258 258 258 260 260 260 261 261 261 258 258 258 257 257 257 259 259 259 262 262 262 260 260 260 257 257 257 262 262 262 259 259 259 256 256 256 263 263 263 256 256 256 253 253 253 263 263 263 260 260 260 264 264 264 261 261 261 264 264 264 265 265 265 261 261 261 264 264 264 260 260 260 266 266 266 260 260 260 262 262 262 266 266 266 264 264 264 267 267 267 265 265 265 267 267 267 268 268 268 265 265 265 264 264 264 266 266 266 269 269 269 267 267 267 264 264 264 269 269 269 267 267 267 270 270 270 268 268 268 270 270 270 271 271 271 268 268 268 267 267 267 269 269 269 272 272 272 270 270 270 267 267 267 272 272 272 270 270 270 273 273 273 271 271 271 273 273 273 274 274 274 271 271 271 270 270 270 272 272 272 275 275 275 273 273 273 270 270 270 275 275 275 273 273 273 276 276 276 274 274 274 276 276 276 165 165 165 274 274 274 276 276 276 164 164 164 165 165 165 276 276 276 273 273 273 277 277 277 273 273 273 275 275 275 277 277 277 164 164 164 276 276 276 278 278 278 276 276 276 277 277 277 278 278 278 164 164 164 278 278 278 166 166 166 277 277 277 275 275 275 279 279 279 166 166 166 278 278 278 280 280 280 166 166 166 280 280 280 167 167 167 167 167 167 280 280 280 170 170 170 278 278 278 277 277 277 281 281 281 278 278 278 281 281 281 280 280 280 277 277 277 279 279 279 281 281 281 280 280 280 282 282 282 170 170 170 280 280 280 281 281 281 282 282 282 170 170 170 282 282 282 177 177 177 281 281 281 283 283 283 282 282 282 281 281 281 279 279 279 283 283 283 282 282 282 284 284 284 177 177 177 282 282 282 283 283 283 284 284 284 177 177 177 284 284 284 178 178 178 279 279 279 285 285 285 283 283 283 284 284 284 286 286 286 178 178 178 178 178 178 286 286 286 182 182 182 286 286 286 185 185 185 182 182 182 283 283 283 287 287 287 284 284 284 284 284 284 287 287 287 286 286 286 283 283 283 285 285 285 287 287 287 286 286 286 288 288 288 185 185 185 287 287 287 288 288 288 286 286 286 288 288 288 192 192 192 185 185 185 287 287 287 289 289 289 288 288 288 285 285 285 289 289 289 287 287 287 288 288 288 290 290 290 192 192 192 289 289 289 290 290 290 288 288 288 290 290 290 193 193 193 192 192 192 285 285 285 291 291 291 289 289 289 290 290 290 292 292 292 193 193 193 292 292 292 198 198 198 193 193 193 289 289 289 293 293 293 290 290 290 293 293 293 292 292 292 290 290 290 291 291 291 293 293 293 289 289 289 292 292 292 294 294 294 198 198 198 294 294 294 199 199 199 198 198 198 293 293 293 295 295 295 292 292 292 295 295 295 294 294 294 292 292 292 294 294 294 296 296 296 199 199 199 296 296 296 204 204 204 199 199 199 295 295 295 297 297 297 294 294 294 297 297 297 296 296 296 294 294 294 298 298 298 295 295 295 293 293 293 291 291 291 298 298 298 293 293 293 299 299 299 297 297 297 295 295 295 298 298 298 299 299 299 295 295 295 296 296 296 300 300 300 204 204 204 300 300 300 205 205 205 204 204 204 297 297 297 301 301 301 296 296 296 301 301 301 300 300 300 296 296 296 300 300 300 302 302 302 205 205 205 302 302 302 210 210 210 205 205 205 301 301 301 303 303 303 300 300 300 303 303 303 302 302 302 300 300 300 304 304 304 301 301 301 297 297 297 299 299 299 304 304 304 297 297 297 305 305 305 303 303 303 301 301 301 304 304 304 305 305 305 301 301 301 302 302 302 306 306 306 210 210 210 306 306 306 211 211 211 210 210 210 306 306 306 234 234 234 211 211 211 303 303 303 307 307 307 302 302 302 307 307 307 306 306 306 302 302 302 308 308 308 234 234 234 306 306 306 307 307 307 308 308 308 306 306 306 308 308 308 238 238 238 234 234 234 242 242 242 238 238 238 308 308 308 309 309 309 242 242 242 308 308 308 309 309 309 308 308 308 307 307 307 249 249 249 242 242 242 309 309 309 253 253 253 249 249 249 309 309 309 310 310 310 309 309 309 307 307 307 253 253 253 309 309 309 310 310 310 310 310 310 307 307 307 303 303 303 305 305 305 310 310 310 303 303 303 263 263 263 253 253 253 310 310 310 263 263 263 310 310 310 305 305 305 311 311 311 263 263 263 305 305 305 311 311 311 305 305 305 304 304 304 259 259 259 263 263 263 311 311 311 262 262 262 259 259 259 311 311 311 312 312 312 311 311 311 304 304 304 262 262 262 311 311 311 312 312 312 312 312 312 304 304 304 299 299 299 266 266 266 262 262 262 312 312 312 313 313 313 312 312 312 299 299 299 266 266 266 312 312 312 313 313 313 313 313 313 299 299 299 298 298 298 269 269 269 266 266 266 313 313 313 314 314 314 313 313 313 298 298 298 269 269 269 313 313 313 314 314 314 314 314 314 298 298 298 291 291 291 272 272 272 269 269 269 314 314 314 315 315 315 314 314 314 291 291 291 272 272 272 314 314 314 315 315 315 315 315 315 291 291 291 285 285 285 275 275 275 272 272 272 315 315 315 279 279 279 315 315 315 285 285 285 275 275 275 315 315 315 279 279 279 316 316 316 317 317 317 318 318 318 319 319 319 317 317 317 316 316 316 317 317 317 320 320 320 318 318 318 321 321 321 319 319 319 316 316 316 318 318 318 320 320 320 322 322 322 323 323 323 319 319 319 321 321 321 320 320 320 324 324 324 322 322 322 325 325 325 323 323 323 321 321 321 322 322 322 324 324 324 326 326 326 327 327 327 323 323 323 325 325 325 324 324 324 328 328 328 326 326 326 329 329 329 327 327 327 325 325 325 326 326 326 328 328 328 330 330 330 331 331 331 327 327 327 329 329 329 328 328 328 332 332 332 330 330 330 333 333 333 331 331 331 329 329 329 330 330 330 332 332 332 334 334 334 335 335 335 331 331 331 333 333 333 332 332 332 335 335 335 334 334 334 334 334 334 335 335 335 333 333 333 336 336 336 337 337 337 338 338 338 338 338 338 337 337 337 339 339 339 340 340 340 337 337 337 336 336 336 339 339 339 337 337 337 341 341 341 342 342 342 337 337 337 340 340 340 341 341 341 337 337 337 343 343 343 344 344 344 337 337 337 342 342 342 343 343 343 337 337 337 345 345 345 346 346 346 337 337 337 344 344 344 345 345 345 337 337 337 346 346 346 347 347 347 348 348 348 349 349 349 348 348 348 350 350 350 349 349 349 349 349 349 351 351 351 347 347 347 352 352 352 347 347 347 351 351 351 353 353 353 352 352 352 351 351 351 354 354 354 349 349 349 350 350 350 350 350 350 355 355 355 354 354 354 355 355 355 356 356 356 354 354 354 351 351 351 357 357 357 353 353 353 358 358 358 353 353 353 357 357 357 359 359 359 358 358 358 357 357 357 360 360 360 351 351 351 349 349 349 357 357 357 361 361 361 359 359 359 362 362 362 359 359 359 361 361 361 363 363 363 362 362 362 361 361 361 364 364 364 357 357 357 351 351 351 360 360 360 364 364 364 351 351 351 364 364 364 365 365 365 357 357 357 365 365 365 361 361 361 357 357 357 366 366 366 364 364 364 360 360 360 366 366 366 365 365 365 364 364 364 367 367 367 360 360 360 349 349 349 366 366 366 360 360 360 367 367 367 367 367 367 349 349 349 354 354 354 365 365 365 368 368 368 361 361 361 366 366 366 368 368 368 365 365 365 369 369 369 367 367 367 354 354 354 366 366 366 367 367 367 369 369 369 368 368 368 370 370 370 361 361 361 361 361 361 370 370 370 363 363 363 371 371 371 363 363 363 370 370 370 372 372 372 371 371 371 370 370 370 368 368 368 373 373 373 370 370 370 366 366 366 373 373 373 368 368 368 370 370 370 374 374 374 372 372 372 373 373 373 374 374 374 370 370 370 375 375 375 372 372 372 374 374 374 376 376 376 375 375 375 374 374 374 373 373 373 377 377 377 374 374 374 366 366 366 377 377 377 373 373 373 374 374 374 378 378 378 376 376 376 377 377 377 378 378 378 374 374 374 379 379 379 376 376 376 378 378 378 380 380 380 379 379 379 378 378 378 366 366 366 381 381 381 377 377 377 377 377 377 381 381 381 378 378 378 378 378 378 382 382 382 380 380 380 381 381 381 382 382 382 378 378 378 383 383 383 380 380 380 382 382 382 384 384 384 383 383 383 382 382 382 366 366 366 385 385 385 381 381 381 381 381 381 385 385 385 382 382 382 366 366 366 369 369 369 385 385 385 382 382 382 386 386 386 384 384 384 385 385 385 386 386 386 382 382 382 385 385 385 369 369 369 386 386 386 387 387 387 384 384 384 386 386 386 369 369 369 354 354 354 386 386 386 356 356 356 387 387 387 386 386 386 386 386 386 354 354 354 356 356 356 388 388 388 389 389 389 390 390 390 391 391 391 389 389 389 388 388 388 390 390 390 389 389 389 392 392 392 390 390 390 392 392 392 393 393 393 393 393 393 392 392 392 394 394 394 389 389 389 391 391 391 395 395 395 396 396 396 395 395 395 391 391 391 397 397 397 395 395 395 396 396 396 392 392 392 389 389 389 398 398 398 398 398 398 389 389 389 399 399 399 389 389 389 395 395 395 399 399 399 400 400 400 392 392 392 398 398 398 399 399 399 395 395 395 401 401 401 402 402 402 392 392 392 400 400 400 394 394 394 392 392 392 402 402 402 394 394 394 402 402 402 403 403 403 404 404 404 402 402 402 400 400 400 403 403 403 402 402 402 405 405 405 406 406 406 402 402 402 404 404 404 405 405 405 402 402 402 406 406 406 405 405 405 406 406 406 407 407 407 408 408 408 406 406 406 404 404 404 407 407 407 406 406 406 409 409 409 410 410 410 406 406 406 408 408 408 409 409 409 406 406 406 410 410 410 409 409 409 410 410 410 411 411 411 412 412 412 410 410 410 408 408 408 411 411 411 410 410 410 413 413 413 414 414 414 410 410 410 412 412 412 413 413 413 410 410 410 414 414 414 413 413 413 414 414 414 415 415 415 416 416 416 414 414 414 412 412 412 415 415 415 414 414 414 417 417 417 418 418 418 414 414 414 416 416 416 417 417 417 414 414 414 418 418 418 417 417 417 418 418 418 419 419 419 420 420 420 418 418 418 416 416 416 419 419 419 418 418 418 421 421 421 422 422 422 418 418 418 420 420 420 421 421 421 418 418 418 422 422 422 421 421 421 422 422 422 423 423 423 424 424 424 422 422 422 420 420 420 423 423 423 422 422 422 425 425 425 426 426 426 422 422 422 424 424 424 425 425 425 422 422 422 426 426 426 401 401 401 426 426 426 424 424 424 425 425 425 426 426 426 427 427 427 395 395 395 426 426 426 401 401 401 427 427 427 426 426 426 397 397 397 397 397 397 426 426 426 395 395 395 </p>
        </triangles>
      </mesh>
    </geometry>
  </library_geometries>
  <library_controllers>
    <controller id="Armature_gam005_pin01__gam005_pin00_mt-mesh">
      <skin source="#gam005_pin01__gam005_pin00_mt-mesh">
        <bind_shape_matrix>1 0 0 0 0 1 0 0 0 0 1 0 0 0 0 1</bind_shape_matrix>
        <source id="gam005_pin01__gam005_pin00_mt-mesh-joint">
          <Name_array id="gam005_pin01__gam005_pin00_mt-mesh-joint-array" count="1">gam005_pin01</Name_array>
          <technique_common>
            <accessor source="#gam005_pin01__gam005_pin00_mt-mesh-joint-array" count="1" stride="1">
              <param name="JOINT" type="name" />
            </accessor>
          </technique_common>
        </source>
        <source id="gam005_pin01__gam005_pin00_mt-mesh-inv_bind_matrix">
          <float_array id="gam005_pin01__gam005_pin00_mt-mesh-inv_bind_matrix-array" count="16">1 0 0 0 0 1 0 0 0 0 1 0 0 0 0 1</float_array>
          <technique_common>
            <accessor source="#gam005_pin01__gam005_pin00_mt-mesh-inv_bind_matrix-array" count="1" stride="16">
              <param name="TRANSFORM" type="float4x4" />
            </accessor>
          </technique_common>
        </source>
        <source id="gam005_pin01__gam005_pin00_mt-mesh-weight">
          <float_array id="gam005_pin01__gam005_pin00_mt-mesh-weight-array" count="1">1</float_array>
          <technique_common>
            <accessor source="#gam005_pin01__gam005_pin00_mt-mesh-weight-array" count="1" stride="1">
              <param name="WEIGHT" type="float" />
            </accessor>
          </technique_common>
        </source>
        <joints>
          <input semantic="JOINT" source="#gam005_pin01__gam005_pin00_mt-mesh-joint" />
          <input semantic="INV_BIND_MATRIX" source="#gam005_pin01__gam005_pin00_mt-mesh-inv_bind_matrix" />
        </joints>
        <vertex_weights count="428">
          <input semantic="JOINT" source="#gam005_pin01__gam005_pin00_mt-mesh-joint" offset="0" />
          <input semantic="WEIGHT" source="#gam005_pin01__gam005_pin00_mt-mesh-weight" offset="1" />
          <vcount>1 1 1 1 1 1 1 1 1 1 1 1 1 1 1 1 1 1 1 1 1 1 1 1 1 1 1 1 1 1 1 1 1 1 1 1 1 1 1 1 1 1 1 1 1 1 1 1 1 1 1 1 1 1 1 1 1 1 1 1 1 1 1 1 1 1 1 1 1 1 1 1 1 1 1 1 1 1 1 1 1 1 1 1 1 1 1 1 1 1 1 1 1 1 1 1 1 1 1 1 1 1 1 1 1 1 1 1 1 1 1 1 1 1 1 1 1 1 1 1 1 1 1 1 1 1 1 1 1 1 1 1 1 1 1 1 1 1 1 1 1 1 1 1 1 1 1 1 1 1 1 1 1 1 1 1 1 1 1 1 1 1 1 1 1 1 1 1 1 1 1 1 1 1 1 1 1 1 1 1 1 1 1 1 1 1 1 1 1 1 1 1 1 1 1 1 1 1 1 1 1 1 1 1 1 1 1 1 1 1 1 1 1 1 1 1 1 1 1 1 1 1 1 1 1 1 1 1 1 1 1 1 1 1 1 1 1 1 1 1 1 1 1 1 1 1 1 1 1 1 1 1 1 1 1 1 1 1 1 1 1 1 1 1 1 1 1 1 1 1 1 1 1 1 1 1 1 1 1 1 1 1 1 1 1 1 1 1 1 1 1 1 1 1 1 1 1 1 1 1 1 1 1 1 1 1 1 1 1 1 1 1 1 1 1 1 1 1 1 1 1 1 1 1 1 1 1 1 1 1 1 1 1 1 1 1 1 1 1 1 1 1 1 1 1 1 1 1 1 1 1 1 1 1 1 1 1 1 1 1 1 1 1 1 1 1 1 1 1 1 1 1 1 1 1 1 1 1 1 1 1 1 1 1 1 1 1 1 1 1 1 1 1 1 1 1 1 1 1 1 1 1 1 1 1 1 1 1 1 1 1 1 1 1 1 1 1 1 1 1 1 1 1 1 1 1 1 1 </vcount>
          <v>0 0 0 0 0 0 0 0 0 0 0 0 0 0 0 0 0 0 0 0 0 0 0 0 0 0 0 0 0 0 0 0 0 0 0 0 0 0 0 0 0 0 0 0 0 0 0 0 0 0 0 0 0 0 0 0 0 0 0 0 0 0 0 0 0 0 0 0 0 0 0 0 0 0 0 0 0 0 0 0 0 0 0 0 0 0 0 0 0 0 0 0 0 0 0 0 0 0 0 0 0 0 0 0 0 0 0 0 0 0 0 0 0 0 0 0 0 0 0 0 0 0 0 0 0 0 0 0 0 0 0 0 0 0 0 0 0 0 0 0 0 0 0 0 0 0 0 0 0 0 0 0 0 0 0 0 0 0 0 0 0 0 0 0 0 0 0 0 0 0 0 0 0 0 0 0 0 0 0 0 0 0 0 0 0 0 0 0 0 0 0 0 0 0 0 0 0 0 0 0 0 0 0 0 0 0 0 0 0 0 0 0 0 0 0 0 0 0 0 0 0 0 0 0 0 0 0 0 0 0 0 0 0 0 0 0 0 0 0 0 0 0 0 0 0 0 0 0 0 0 0 0 0 0 0 0 0 0 0 0 0 0 0 0 0 0 0 0 0 0 0 0 0 0 0 0 0 0 0 0 0 0 0 0 0 0 0 0 0 0 0 0 0 0 0 0 0 0 0 0 0 0 0 0 0 0 0 0 0 0 0 0 0 0 0 0 0 0 0 0 0 0 0 0 0 0 0 0 0 0 0 0 0 0 0 0 0 0 0 0 0 0 0 0 0 0 0 0 0 0 0 0 0 0 0 0 0 0 0 0 0 0 0 0 0 0 0 0 0 0 0 0 0 0 0 0 0 0 0 0 0 0 0 0 0 0 0 0 0 0 0 0 0 0 0 0 0 0 0 0 0 0 0 0 0 0 0 0 0 0 0 0 0 0 0 0 0 0 0 0 0 0 0 0 0 0 0 0 0 0 0 0 0 0 0 0 0 0 0 0 0 0 0 0 0 0 0 0 0 0 0 0 0 0 0 0 0 0 0 0 0 0 0 0 0 0 0 0 0 0 0 0 0 0 0 0 0 0 0 0 0 0 0 0 0 0 0 0 0 0 0 0 0 0 0 0 0 0 0 0 0 0 0 0 0 0 0 0 0 0 0 0 0 0 0 0 0 0 0 0 0 0 0 0 0 0 0 0 0 0 0 0 0 0 0 0 0 0 0 0 0 0 0 0 0 0 0 0 0 0 0 0 0 0 0 0 0 0 0 0 0 0 0 0 0 0 0 0 0 0 0 0 0 0 0 0 0 0 0 0 0 0 0 0 0 0 0 0 0 0 0 0 0 0 0 0 0 0 0 0 0 0 0 0 0 0 0 0 0 0 0 0 0 0 0 0 0 0 0 0 0 0 0 0 0 0 0 0 0 0 0 0 0 0 0 0 0 0 0 0 0 0 0 0 0 0 0 0 0 0 0 0 0 0 0 0 0 0 0 0 0 0 0 0 0 0 0 0 0 0 0 0 0 0 0 0 0 0 0 0 0 0 0 0 0 0 0 0 0 0 0 0 0 0 0 0 0 0 0 0 0 0 0 0 0 0 0 0 0 0 0 0 0 0 0 0 0 0 0 0 0 0 0 0 0 0 0 0 0 0 0 0 0 0 0 0 0 0 0 0 0 0 0 0 0 0 0 0 0 0 0 0 0 0 0 0 0 0 0 0 0 0 0 0 0 0 0 0 0 0 0 0 0 0 0 0 0 0 0 0 0 0 0 0 0 0 0 0 0 0 0 0 0 0 0 0 0 0 0 0 0 0 0 0 0 0 0 0 0 0 0 0 0 0 0 0 0 0 0 0 0 0 0 0 0 0 0 0 0 0 0 0 0 0 0 0 0 0 0 0 0 0 0 0 0 0 0 0 0 0 0 0 0 0 0 0 </v>
        </vertex_weights>
      </skin>
    </controller>
  </library_controllers>
  <library_visual_scenes>
    <visual_scene id="Scene" name="Scene">
      <node id="Armature" name="Armature" type="NODE">
        <matrix sid="transform">1 0 0 0 0 1 0 0 0 0 1 0 0 0 0 1</matrix>
        <node id="Armature_gam005_pin01" name="gam005_pin01" sid="gam005_pin01" type="JOINT">
          <matrix sid="transform">1 0 0 0 0 1 0 0 0 0 1 0 0 0 0 1</matrix>
        </node>
      </node>
      <node id="gam005_pin01__gam005_pin00_mt" name="gam005_pin01__gam005_pin00_mt" type="NODE">
        <instance_controller url="#Armature_gam005_pin01__gam005_pin00_mt-mesh">
          <skeleton>#Armature_gam005_pin01</skeleton>
          <bind_material>
            <technique_common>
              <instance_material symbol="gam005_pin00_mt" target="#gam005_pin00_mt" />
              <bind_vertex_input semantic="CHANNEL0" input_semantic="TEXCOORD" input_set="0" />
              <bind_vertex_input semantic="CHANNEL1" input_semantic="TEXCOORD" input_set="1" />
              <bind_vertex_input semantic="CHANNEL2" input_semantic="TEXCOORD" input_set="2" />
            </technique_common>
          </bind_material>
        </instance_controller>
      </node>
    </visual_scene>
  </library_visual_scenes>
  <scene>
    <instance_visual_scene url="#Scene" />
  </scene>
</COLLADA>