# Blender v2.76 (sub 0) OBJ File: ''
# www.blender.org
mtllib Arch of Triumph.mtl
o polygon6.001
v 3.999512 0.000000 -1.600098
v 3.999512 0.000001 -4.000488
v 3.999512 4.000000 -1.600097
v 3.999512 0.000001 -4.000488
v 3.999512 5.464355 -4.000487
v 3.999512 4.000000 -1.600097
v 4.660156 7.370117 0.000001
v 3.999512 6.270020 -4.000487
v 4.669922 7.370117 0.000001
v 4.669922 7.370118 -4.000486
v 4.669922 7.370117 0.000001
v 3.999512 6.270020 -4.000487
v 3.999512 6.270020 -4.000487
v 3.999512 4.930176 -1.069823
v 3.999512 4.000000 -1.600097
v 3.999512 4.000000 -1.600097
v 0.669922 4.000000 -1.600097
v 3.999512 0.000000 -1.600098
v 0.669922 4.000000 -1.600097
v 0.669922 0.000000 -1.600098
v 3.999512 0.000000 -1.600098
v 0.669922 4.930176 -1.069823
v 0.669922 4.000000 -1.600097
v 3.999512 4.930176 -1.069823
v 0.669922 4.000000 -1.600097
v 3.999512 4.000000 -1.600097
v 3.999512 4.930176 -1.069823
v 3.999512 4.930176 -1.069823
v 3.999512 6.270020 -4.000487
v 3.999512 6.270020 0.000001
v 6.000000 7.870118 -4.000486
v 6.000000 7.870117 0.000001
v 4.669922 7.370118 -4.000486
v 6.000000 7.870117 0.000001
v 4.669922 7.370117 0.000001
v 4.669922 7.370118 -4.000486
v 6.000000 12.000001 -4.000486
v 6.000000 12.000001 -3.272947
v 6.000000 9.870118 -4.000486
v 6.000000 9.870118 -4.000486
v 6.000000 9.330079 -3.999999
v 6.000000 9.870118 -4.399900
v 0.669922 4.930176 -1.069823
v 3.999512 4.930176 -1.069823
v 0.669922 5.128418 0.000001
v 3.999512 4.930176 -1.069823
v 3.999512 5.128418 0.000001
v 0.669922 5.128418 0.000001
v 3.999512 6.270020 0.000001
v 3.999512 6.270020 -4.000487
v 4.660156 7.370117 0.000001
v 3.999512 5.128418 0.000001
v 3.999512 4.930176 -1.069823
v 3.999512 6.270020 0.000001
v 6.000000 7.870117 0.000001
v 6.000000 12.000001 -3.272947
v 6.000000 11.999999 3.272951
v 3.999512 4.000000 -1.600097
v 3.999512 5.464355 -4.000487
v 3.999512 6.270020 -4.000487
v 3.999512 -0.000000 1.600098
v 3.999512 4.000000 1.600099
v 3.999512 -0.000001 4.000488
v 3.999512 -0.000001 4.000488
v 3.999512 4.000000 1.600099
v 3.999512 5.464355 4.000489
v 4.660156 7.370117 0.000001
v 4.669922 7.370117 0.000001
v 3.999512 6.270020 4.000489
v 4.669922 7.370117 4.000489
v 3.999512 6.270020 4.000489
v 4.669922 7.370117 0.000001
v 3.999512 6.270020 4.000489
v 3.999512 4.000000 1.600099
v 3.999512 4.930176 1.069825
v 3.999512 4.000000 1.600099
v 3.999512 -0.000000 1.600098
v 0.669922 4.000000 1.600099
v 0.669922 4.000000 1.600099
v 3.999512 -0.000000 1.600098
v 0.669922 -0.000000 1.600098
v 0.669922 4.930176 1.069825
v 3.999512 4.930176 1.069825
v 0.669922 4.000000 1.600099
v 0.669922 4.000000 1.600099
v 3.999512 4.930176 1.069825
v 3.999512 4.000000 1.600099
v 3.999512 4.930176 1.069825
v 3.999512 6.270020 0.000001
v 3.999512 6.270020 4.000489
v 6.000000 7.870117 4.000489
v 4.669922 7.370117 4.000489
v 6.000000 7.870117 0.000001
v 6.000000 7.870117 0.000001
v 4.669922 7.370117 4.000489
v 4.669922 7.370117 0.000001
v 6.000000 11.999999 4.000490
v 6.000000 9.870116 4.000489
v 6.000000 11.999999 3.272951
v 6.000000 9.870116 4.000489
v 6.000000 9.870116 4.399903
v 6.000000 9.330077 4.000001
v 0.669922 4.930176 1.069825
v 0.669922 5.128418 0.000001
v 3.999512 4.930176 1.069825
v 3.999512 4.930176 1.069825
v 0.669922 5.128418 0.000001
v 3.999512 5.128418 0.000001
v 3.999512 6.270020 0.000001
v 4.660156 7.370117 0.000001
v 3.999512 6.270020 4.000489
v 3.999512 5.128418 0.000001
v 3.999512 6.270020 0.000001
v 3.999512 4.930176 1.069825
v 3.999512 4.000000 1.600099
v 3.999512 6.270020 4.000489
v 3.999512 5.464355 4.000489
v 6.000000 7.870117 0.000001
v 6.000000 9.330077 4.000001
v 6.000000 8.400878 4.000489
v 6.000000 9.330079 -3.999999
v 6.000000 9.870118 -4.000486
v 6.000000 7.870117 0.000001
v 6.000000 9.870118 -4.000486
v 6.000000 12.000001 -3.272947
v 6.000000 7.870117 0.000001
v 6.000000 7.870117 0.000001
v 6.000000 11.999999 3.272951
v 6.000000 9.870116 4.000489
v 6.000000 7.870117 0.000001
v 6.000000 8.400880 -4.000486
v 6.000000 9.330079 -3.999999
v 6.000000 7.870117 0.000001
v 6.000000 9.870116 4.000489
v 6.000000 9.330077 4.000001
v 6.000000 7.870117 0.000001
v 6.000000 8.400878 4.000489
v 6.000000 7.870117 4.000489
v 6.000000 7.870117 0.000001
v 6.000000 7.870118 -4.000486
v 6.000000 8.400880 -4.000486
vt 0.390625 -0.927734
vt 0.007812 -0.927734
vt 0.390625 -0.322266
vt 0.007812 -0.095703
vt 0.986328 -0.111328
vt 0.675781 -0.214844
vt 0.986328 -0.109375
vt 0.675781 -0.111328
vt 0.007812 0.031250
vt 0.472656 -0.173828
vt 0.986328 -0.226562
vt 0.468750 -0.226562
vt 0.986328 -0.972656
vt 0.468750 -0.972656
vt 0.468750 -0.380859
vt 0.986328 -0.380859
vt 0.642578 0.031250
vt 0.675781 -0.007812
vt 0.986328 -0.007812
vt 0.416016 -0.064453
vt 0.416016 -0.449219
vt 0.416016 -0.546875
vt 0.468750 -0.228516
vt 0.986328 -0.228516
vt 0.986328 -0.214844
vt 0.642578 -0.111328
vt 0.416016 -0.812500
vt 0.416016 -0.714844
vn 1.000000 -0.000000 0.000000
vn -0.000000 -1.000000 -0.000000
vn 0.492100 -0.857100 0.152300
vn 0.445600 -0.895200 -0.000000
vn 0.545200 -0.838300 -0.000000
vn 0.492000 -0.857100 0.152300
vn 0.991200 -0.132700 -0.000000
vn 0.000000 -0.255800 0.966700
vn 0.000000 -0.000000 1.000000
vn 0.000000 -0.814500 0.580100
vn 0.000000 -0.255900 0.966700
vn 0.984100 -0.177700 -0.000000
vn 0.351400 -0.936200 -0.000000
vn 0.445700 -0.895200 0.000000
vn 0.857900 -0.513800 -0.000000
vn 0.492000 -0.857100 -0.152300
vn 0.000000 -0.255800 -0.966700
vn 0.000000 0.000000 -1.000000
vn -0.000000 -0.814500 -0.580100
vn 0.000000 -0.255900 -0.966700
usemtl phong04
s 1
f 1/1/1 2/2/1 3/3/1
f 4/2/1 5/4/1 6/3/1
f 7/5/2 8/6/3 9/7/4
f 10/8/5 11/7/4 12/6/6
f 13/9/7 14/10/1 15/3/1
f 16/11/8 17/12/8 18/13/9
f 19/12/8 20/14/9 21/13/9
f 22/15/10 23/12/11 24/16/10
f 25/12/11 26/11/11 27/16/10
f 28/10/1 29/9/7 30/17/12
f 31/18/13 32/19/13 33/8/5
f 34/19/13 35/7/14 36/8/5
f 37/20/1 38/20/1 39/21/1
f 40/21/1 41/22/1 42/21/1
f 43/15/10 44/16/10 45/23/2
f 46/16/10 47/24/2 48/23/2
f 49/25/12 50/6/7 51/5/15
f 52/26/1 53/10/1 54/17/12
f 55/27/1 56/20/1 57/20/1
f 58/3/1 59/4/1 60/9/7
f 61/1/1 62/3/1 63/2/1
f 64/2/1 65/3/1 66/4/1
f 67/5/2 68/7/4 69/6/16
f 70/8/5 71/6/16 72/7/4
f 73/9/7 74/3/1 75/10/1
f 76/11/17 77/13/18 78/12/17
f 79/12/17 80/13/18 81/14/18
f 82/15/19 83/16/19 84/12/20
f 85/12/20 86/16/19 87/11/20
f 88/10/1 89/17/12 90/9/7
f 91/18/13 92/8/5 93/19/13
f 94/19/13 95/8/5 96/7/14
f 97/20/1 98/21/1 99/20/1
f 100/21/1 101/21/1 102/22/1
f 103/15/19 104/23/2 105/16/19
f 106/16/19 107/23/2 108/24/2
f 109/25/12 110/5/15 111/6/7
f 112/26/1 113/17/12 114/10/1
f 115/3/1 116/9/7 117/4/1
f 118/27/1 119/22/1 120/28/1
f 121/22/1 122/21/1 123/27/1
f 124/21/1 125/20/1 126/27/1
f 127/27/1 128/20/1 129/21/1
f 130/27/1 131/28/1 132/22/1
f 133/27/1 134/21/1 135/22/1
f 136/27/1 137/28/1 138/27/1
f 139/27/1 140/27/1 141/28/1
o polygon5.002
v 0.669922 9.330079 -4.000486
v 3.999512 8.400880 -4.000486
v 2.334961 8.400880 -4.000486
v 0.669922 9.330079 -4.000486
v 0.669922 8.364746 0.000001
v 0.669922 9.330077 4.000489
v 0.669922 5.459473 0.000001
v 0.669922 6.270020 0.000001
v 0.669922 5.459474 -1.600097
v 2.334961 5.461915 -4.000487
v 2.334961 6.270020 -4.000487
v 3.999512 5.464355 -4.000487
v 2.334961 6.270020 -4.000487
v 3.999512 6.270020 -4.000487
v 3.999512 5.464355 -4.000487
v 3.999512 8.400880 -4.000486
v 6.000000 9.330079 -3.999999
v 6.000000 8.400880 -4.000486
v 6.000000 9.330079 -3.999999
v 3.999512 8.400880 -4.000486
v 0.669922 9.330079 -4.000486
v 0.669922 5.459474 -1.600097
v 0.669922 6.270020 -4.000487
v 0.669922 5.459961 -4.000487
v 0.669922 5.459474 -1.600097
v 0.669922 6.270020 0.000001
v 0.669922 6.270020 -4.000487
v 0.669922 9.330079 -4.000486
v 2.334961 8.400880 -4.000486
v 0.669922 8.401368 -4.000486
v 0.669922 5.459961 -4.000487
v 0.669922 6.270020 -4.000487
v 2.334961 5.461915 -4.000487
v 2.334961 5.461915 -4.000487
v 0.669922 6.270020 -4.000487
v 2.334961 6.270020 -4.000487
v 0.669922 9.330077 4.000489
v 2.334961 8.400878 4.000489
v 3.999512 8.400878 4.000489
v 0.669922 5.459473 0.000001
v 0.669922 5.459473 1.600099
v 0.669922 6.270020 0.000001
v 2.334961 5.461914 4.000489
v 3.999512 5.464355 4.000489
v 2.334961 6.270020 4.000489
v 3.999512 5.464355 4.000489
v 3.999512 6.270020 4.000489
v 2.334961 6.270020 4.000489
v 3.999512 8.400878 4.000489
v 6.000000 8.400878 4.000489
v 6.000000 9.330077 4.000001
v 6.000000 9.330077 4.000001
v 0.669922 9.330077 4.000489
v 3.999512 8.400878 4.000489
v 0.669922 5.459473 1.600099
v 0.669922 5.459960 4.000489
v 0.669922 6.270020 4.000489
v 0.669922 5.459473 1.600099
v 0.669922 6.270020 4.000489
v 0.669922 6.270020 0.000001
v 0.669922 9.330077 4.000489
v 0.669922 8.401366 4.000489
v 2.334961 8.400878 4.000489
v 2.334961 6.270020 4.000489
v 0.669922 6.270020 4.000489
v 2.334961 5.461914 4.000489
v 2.334961 5.461914 4.000489
v 0.669922 6.270020 4.000489
v 0.669922 5.459960 4.000489
v 0.669922 9.330079 -4.000486
v 0.669922 8.401368 -4.000486
v 0.669922 8.364746 0.000001
v 0.669922 9.330077 4.000489
v 0.669922 8.364746 0.000001
v 0.669922 8.401366 4.000489
vt 2.101563 -0.128906
vt 4.531250 -0.953125
vt 3.316406 -0.953125
vt 6.871094 -0.128906
vt 3.601563 -0.953125
vt 0.328125 -0.128906
vt 2.921875 -0.679688
vt 2.921875 0.046875
vt 2.136719 -0.679688
vt 2.324219 -0.679688
vt 2.324219 0.046875
vt 3.621094 -0.679688
vt 3.621094 0.046875
vt 5.921875 -0.128906
vt 5.921875 -0.953125
vt 0.937500 0.046875
vt 0.937500 -0.679688
vt 2.101563 -0.953125
vt 1.027344 -0.679688
vt 1.027344 0.046875
vt 6.871094 -0.953125
vt 0.328125 -0.953125
vn 0.000000 -0.249900 -0.968300
vn 0.000000 0.000000 -1.000000
vn -0.978300 -0.207000 0.000000
vn -1.000000 0.000000 0.000000
vn -0.949900 -0.312700 -0.000000
vn 0.000000 -0.207000 -0.978300
vn -0.000000 -0.000100 -1.000000
vn 0.000000 -0.249900 0.968300
vn 0.000000 0.000000 1.000000
vn -0.000000 -0.207000 0.978300
vn -0.000000 -0.000100 1.000000
usemtl phong06
s 1
f 142/29/21 143/30/22 144/31/22
f 145/32/23 146/33/24 147/34/25
f 148/35/24 149/36/24 150/37/24
f 151/38/22 152/39/22 153/40/22
f 154/39/22 155/41/22 156/40/22
f 157/30/22 158/42/26 159/43/22
f 160/42/26 161/30/27 162/29/21
f 163/37/24 164/44/24 165/45/24
f 166/37/24 167/36/24 168/44/24
f 169/29/21 170/31/22 171/46/22
f 172/47/22 173/48/22 174/38/22
f 175/38/22 176/48/22 177/39/22
f 178/29/28 179/31/29 180/30/29
f 181/35/24 182/37/24 183/36/24
f 184/38/29 185/40/29 186/39/29
f 187/40/29 188/41/29 189/39/29
f 190/30/29 191/43/29 192/42/30
f 193/42/30 194/29/28 195/30/31
f 196/37/24 197/45/24 198/44/24
f 199/37/24 200/44/24 201/36/24
f 202/29/28 203/46/29 204/31/29
f 205/39/29 206/48/29 207/38/29
f 208/38/29 209/48/29 210/47/29
f 211/32/23 212/49/24 213/33/24
f 214/34/25 215/33/24 216/50/24
o polygon4.006
v 0.669922 5.459473 0.000001
v 0.669922 5.459474 -1.600097
v 0.669922 5.128418 0.000001
v 0.669922 5.459474 -1.600097
v 0.669922 4.930176 -1.069823
v 0.669922 5.128418 0.000001
v 0.669922 5.459474 -1.600097
v 0.669922 4.000000 -1.600097
v 0.669922 4.930176 -1.069823
v 6.000000 8.400880 -4.000486
v 6.000000 7.870118 -4.000486
v 3.999512 8.400880 -4.000486
v 0.669922 6.270020 0.000001
v 0.669922 8.364746 0.000001
v 0.669922 6.270020 -4.000487
v 0.669922 8.364746 0.000001
v 0.669922 8.401368 -4.000486
v 0.669922 6.270020 -4.000487
v 2.334961 8.400880 -4.000486
v 3.999512 8.400880 -4.000486
v 2.334961 6.270020 -4.000487
v 3.999512 8.400880 -4.000486
v 3.999512 6.270020 -4.000487
v 2.334961 6.270020 -4.000487
v 0.669922 8.401368 -4.000486
v 2.334961 8.400880 -4.000486
v 0.669922 6.270020 -4.000487
v 2.334961 8.400880 -4.000486
v 2.334961 6.270020 -4.000487
v 0.669922 6.270020 -4.000487
v 4.669922 7.370118 -4.000486
v 3.999512 6.270020 -4.000487
v 3.999512 8.400880 -4.000486
v 6.000000 7.870118 -4.000486
v 4.669922 7.370118 -4.000486
v 3.999512 8.400880 -4.000486
v 0.669922 5.459473 0.000001
v 0.669922 5.128418 0.000001
v 0.669922 5.459473 1.600099
v 0.669922 5.128418 0.000001
v 0.669922 4.930176 1.069825
v 0.669922 5.459473 1.600099
v 0.669922 5.459473 1.600099
v 0.669922 4.930176 1.069825
v 0.669922 4.000000 1.600099
v 6.000000 8.400878 4.000489
v 3.999512 8.400878 4.000489
v 6.000000 7.870117 4.000489
v 0.669922 6.270020 0.000001
v 0.669922 6.270020 4.000489
v 0.669922 8.364746 0.000001
v 0.669922 6.270020 4.000489
v 0.669922 8.401366 4.000489
v 0.669922 8.364746 0.000001
v 2.334961 8.400878 4.000489
v 2.334961 6.270020 4.000489
v 3.999512 8.400878 4.000489
v 2.334961 6.270020 4.000489
v 3.999512 6.270020 4.000489
v 3.999512 8.400878 4.000489
v 0.669922 8.401366 4.000489
v 0.669922 6.270020 4.000489
v 2.334961 8.400878 4.000489
v 0.669922 6.270020 4.000489
v 2.334961 6.270020 4.000489
v 2.334961 8.400878 4.000489
v 4.669922 7.370117 4.000489
v 3.999512 8.400878 4.000489
v 3.999512 6.270020 4.000489
v 6.000000 7.870117 4.000489
v 3.999512 8.400878 4.000489
v 4.669922 7.370117 4.000489
vt 0.945312 1.000000
vt 0.659180 1.000000
vt 0.945312 0.781250
vt 0.752930 0.636719
vt 0.659180 0.015625
vt 0.883789 0.996094
vt 0.883789 0.734375
vt 0.657227 0.996094
vt 0.010742 2.000000
vt 0.010742 3.003906
vt 0.644531 2.000000
vt 0.644531 3.003906
vt 0.287109 3.003906
vt 0.648438 3.003906
vt 0.287109 2.000000
vt 0.648438 2.000000
vt 0.729492 0.515625
vt 0.657227 0.027344
vn -1.000000 0.000000 0.000000
vn 0.000000 0.000000 -1.000000
vn 0.000000 0.000000 1.000000
usemtl phong03
s 1
f 217/51/32 218/52/32 219/53/32
f 220/52/32 221/54/32 222/53/32
f 223/52/32 224/55/32 225/54/32
f 226/56/33 227/57/33 228/58/33
f 229/59/32 230/60/32 231/61/32
f 232/60/32 233/62/32 234/61/32
f 235/63/33 236/64/33 237/65/33
f 238/64/33 239/66/33 240/65/33
f 241/62/33 242/63/33 243/61/33
f 244/63/33 245/65/33 246/61/33
f 247/67/33 248/68/33 249/58/33
f 250/57/33 251/67/33 252/58/33
f 253/51/32 254/53/32 255/52/32
f 256/53/32 257/54/32 258/52/32
f 259/52/32 260/54/32 261/55/32
f 262/56/34 263/58/34 264/57/34
f 265/59/32 266/61/32 267/60/32
f 268/61/32 269/62/32 270/60/32
f 271/63/34 272/65/34 273/64/34
f 274/65/34 275/66/34 276/64/34
f 277/62/34 278/61/34 279/63/34
f 280/61/34 281/65/34 282/63/34
f 283/67/34 284/58/34 285/68/34
f 286/57/34 287/58/34 288/67/34
o polygon3.012
v 0.669922 12.000001 -4.000486
v 1.360352 12.000001 -3.272947
v 6.000000 12.000001 -4.000486
v 6.000000 12.000001 -4.000486
v 1.360352 12.000001 -3.272947
v 6.000000 12.000001 -3.272947
v 6.000000 9.870118 -4.000486
v 6.000000 9.870118 -4.399900
v 0.669922 9.870118 -4.000486
v 6.000000 9.870118 -4.399900
v 0.270020 9.870118 -4.399900
v 0.669922 9.870118 -4.000486
v 0.270020 9.870118 -4.399900
v 0.270020 9.870116 4.399903
v 0.669922 9.870118 -4.000486
v 0.669922 9.870118 -4.000486
v 0.270020 9.870116 4.399903
v 0.669922 9.870116 4.000489
v 0.669922 12.000001 -4.000486
v 0.669922 11.999999 4.000490
v 1.360352 12.000001 -3.272947
v 1.360352 11.999999 3.272951
v 1.360352 12.000001 -3.272947
v 0.669922 11.999999 4.000490
v 0.669922 11.999999 4.000490
v 6.000000 11.999999 4.000490
v 1.360352 11.999999 3.272951
v 6.000000 11.999999 4.000490
v 6.000000 11.999999 3.272951
v 1.360352 11.999999 3.272951
v 6.000000 9.870116 4.000489
v 0.669922 9.870116 4.000489
v 6.000000 9.870116 4.399903
v 6.000000 9.870116 4.399903
v 0.669922 9.870116 4.000489
v 0.270020 9.870116 4.399903
v 1.360352 12.000001 -3.272947
v 1.360352 11.999999 3.272951
v 6.000000 12.000001 -3.272947
v 1.360352 11.999999 3.272951
v 6.000000 11.999999 3.272951
v 6.000000 12.000001 -3.272947
vt 0.009766 2.847656
vt 0.177734 2.511719
vt 0.009766 0.261719
vt 0.177734 0.261719
vt 0.054688 -0.863281
vt 0.000000 -0.863281
vt 0.054688 1.910156
vt 0.000000 2.109375
vt 0.003906 3.253906
vt 0.003906 -0.433594
vt 0.058594 3.085938
vt 0.058594 -0.265625
vt 0.009766 4.105469
vt 0.009766 -0.835938
vt 0.177734 3.656250
vt 0.177734 -0.386719
vt 0.144531 3.367188
vt 0.144531 -0.003906
vt 0.988281 3.367188
vt 0.988281 -0.003906
vn 0.000000 1.000000 -0.000000
usemtl phong05
s 1
f 289/69/35 290/70/35 291/71/35
f 292/71/35 293/70/35 294/72/35
f 295/73/35 296/74/35 297/75/35
f 298/74/35 299/76/35 300/75/35
f 301/77/35 302/78/35 303/79/35
f 304/79/35 305/78/35 306/80/35
f 307/81/35 308/82/35 309/83/35
f 310/84/35 311/83/35 312/82/35
f 313/69/35 314/71/35 315/70/35
f 316/71/35 317/72/35 318/70/35
f 319/73/35 320/75/35 321/74/35
f 322/74/35 323/75/35 324/76/35
f 325/85/35 326/86/35 327/87/35
f 328/86/35 329/88/35 330/87/35
o polygon1.060
v 0.270020 9.870116 4.399903
v 0.270020 9.870118 -4.399900
v 0.669922 9.330077 4.000489
v 0.270020 9.870118 -4.399900
v 0.669922 9.330079 -4.000486
v 0.669922 9.330077 4.000489
v 0.669922 12.000001 -4.000486
v 6.000000 12.000001 -4.000486
v 0.669922 9.870118 -4.000486
v 6.000000 12.000001 -4.000486
v 6.000000 9.870118 -4.000486
v 0.669922 9.870118 -4.000486
v 0.669922 12.000001 -4.000486
v 0.669922 9.870118 -4.000486
v 0.669922 11.999999 4.000490
v 0.669922 9.870118 -4.000486
v 0.669922 9.870116 4.000489
v 0.669922 11.999999 4.000490
v 0.270020 9.870118 -4.399900
v 6.000000 9.870118 -4.399900
v 0.669922 9.330079 -4.000486
v 6.000000 9.870118 -4.399900
v 6.000000 9.330079 -3.999999
v 0.669922 9.330079 -4.000486
v 0.669922 11.999999 4.000490
v 0.669922 9.870116 4.000489
v 6.000000 11.999999 4.000490
v 6.000000 11.999999 4.000490
v 0.669922 9.870116 4.000489
v 6.000000 9.870116 4.000489
v 0.270020 9.870116 4.399903
v 0.669922 9.330077 4.000489
v 6.000000 9.870116 4.399903
v 6.000000 9.870116 4.399903
v 0.669922 9.330077 4.000489
v 6.000000 9.330077 4.000001
vt 0.929688 -0.666016
vt 7.826172 -0.666016
vt 1.244141 -0.923828
vt 7.513672 -0.923828
vt 1.050781 -0.005859
vt 5.669922 -0.005859
vt 1.050781 -0.695312
vt 5.669922 -0.695312
vt 7.259766 -0.005859
vt 7.259766 -0.695312
vt 1.048828 -0.005859
vt 0.841797 -0.666016
vt 5.990234 -0.666016
vt 1.208984 -0.923828
vt 5.990234 -0.923828
vn -0.803100 -0.595900 -0.000000
vn -0.949900 -0.312700 -0.000000
vn -0.978300 -0.207000 0.000000
vn 0.000000 0.000000 -1.000000
vn -1.000000 0.000000 0.000000
vn 0.000000 -0.595000 -0.803700
vn 0.000000 -0.249900 -0.968300
vn -0.000100 -0.594900 -0.803800
vn 0.000000 -0.207000 -0.978300
vn 0.000000 -0.000000 1.000000
vn 0.000000 -0.595000 0.803700
vn 0.000000 -0.249900 0.968300
vn -0.000100 -0.594900 0.803800
vn 0.000100 -0.207000 0.978300
usemtl phong01
s 1
f 331/89/36 332/90/36 333/91/37
f 334/90/36 335/92/38 336/91/37
f 337/93/39 338/94/39 339/95/39
f 340/94/39 341/96/39 342/95/39
f 343/97/40 344/98/40 345/99/40
f 346/98/40 347/95/40 348/99/40
f 349/100/41 350/101/41 351/102/42
f 352/101/43 353/103/44 354/102/42
f 355/99/45 356/95/45 357/94/45
f 358/94/45 359/95/45 360/96/45
f 361/100/46 362/102/47 363/101/46
f 364/101/48 365/102/47 366/103/49
o polygon2.039
v 3.999512 5.464355 -4.000487
v 3.999512 0.000001 -4.000488
v 2.334961 5.461915 -4.000487
v 3.999512 0.000001 -4.000488
v 2.334961 0.000001 -4.000488
v 2.334961 5.461915 -4.000487
v 0.669922 5.459474 -1.600097
v 0.669922 5.459961 -4.000487
v 0.669922 4.000000 -1.600097
v 2.334961 5.461915 -4.000487
v 2.334961 0.000001 -4.000488
v 0.669922 5.459961 -4.000487
v 2.334961 0.000001 -4.000488
v 0.669922 0.000001 -4.000488
v 0.669922 5.459961 -4.000487
v 0.669922 5.459961 -4.000487
v 0.669922 0.000001 -4.000488
v 0.669922 4.000000 -1.600097
v 0.669922 0.000001 -4.000488
v 0.669922 0.000000 -1.600098
v 0.669922 4.000000 -1.600097
v 3.999512 5.464355 4.000489
v 2.334961 5.461914 4.000489
v 3.999512 -0.000001 4.000488
v 2.334961 5.461914 4.000489
v 2.334961 -0.000001 4.000488
v 3.999512 -0.000001 4.000488
v 0.669922 5.459473 1.600099
v 0.669922 4.000000 1.600099
v 0.669922 5.459960 4.000489
v 2.334961 5.461914 4.000489
v 0.669922 5.459960 4.000489
v 2.334961 -0.000001 4.000488
v 0.669922 5.459960 4.000489
v 0.669922 -0.000001 4.000488
v 2.334961 -0.000001 4.000488
v 0.669922 5.459960 4.000489
v 0.669922 4.000000 1.600099
v 0.669922 -0.000001 4.000488
v 0.669922 4.000000 1.600099
v 0.669922 -0.000000 1.600098
v 0.669922 -0.000001 4.000488
vt 0.029297 -0.003906
vt 0.029297 -0.997070
vt 0.996094 -0.003906
vt 0.996094 -0.997070
vt 1.263672 -0.003906
vt 1.009766 -0.003906
vt 1.263672 -0.265625
vt 1.009766 -0.997070
vt 1.263672 -0.997070
vn 0.000000 0.000000 -1.000000
vn -1.000000 0.000000 0.000000
vn 0.000000 -0.000000 1.000000
usemtl phong02
s 1
f 367/104/50 368/105/50 369/106/50
f 370/105/50 371/107/50 372/106/50
f 373/108/51 374/109/51 375/110/51
f 376/106/50 377/107/50 378/104/50
f 379/107/50 380/105/50 381/104/50
f 382/109/51 383/111/51 384/110/51
f 385/111/51 386/112/51 387/110/51
f 388/104/52 389/106/52 390/105/52
f 391/106/52 392/107/52 393/105/52
f 394/108/51 395/110/51 396/109/51
f 397/106/52 398/104/52 399/107/52
f 400/104/52 401/105/52 402/107/52
f 403/109/51 404/110/51 405/111/51
f 406/110/51 407/112/51 408/111/51
o polygon0.060
v -0.930176 0.149903 -5.600098
v -0.930176 0.149901 5.600098
v 1.069824 0.149903 -3.600586
v 1.069824 0.149903 -3.600586
v -0.930176 0.149901 5.600098
v 1.069824 0.149902 3.600586
v -0.930176 0.149901 5.600098
v 6.000000 0.149901 5.600098
v 1.069824 0.149902 3.600586
v 1.069824 0.149902 3.600586
v 6.000000 0.149901 5.600098
v 6.000000 0.149902 3.600586
v 6.000000 0.149903 -3.600586
v 6.000000 0.149903 -5.600098
v 1.069824 0.149903 -3.600586
v 1.069824 0.149903 -3.600586
v 6.000000 0.149903 -5.600098
v -0.930176 0.149903 -5.600098
v 1.069824 0.149902 3.600586
v 6.000000 0.149902 3.600586
v 1.069824 0.149903 -3.600586
v 1.069824 0.149903 -3.600586
v 6.000000 0.149902 3.600586
v 6.000000 0.149903 -3.600586
vt 0.625000 0.937500
vt 0.625000 0.562500
vn 0.000000 1.000000 0.000000
usemtl shadow
s 1
f 409/113/53 410/113/53 411/114/53
f 412/114/53 413/113/53 414/114/53
f 415/113/53 416/113/53 417/114/53
f 418/114/53 419/113/53 420/114/53
f 421/114/53 422/113/53 423/114/53
f 424/114/53 425/113/53 426/113/53
f 427/114/53 428/114/53 429/114/53
f 430/114/53 431/114/53 432/114/53
