# Blender 3.5.0
# www.blender.org
mtllib pedestal.mtl
o pedestal
v 0.000002 25.000002 24.999998
v -12.499997 25.000002 21.650635
v 0.000001 25.000002 18.750000
v -9.374998 25.000002 16.237978
v -24.999998 15.000000 0.000003
v -18.749998 13.999999 0.000002
v -24.999998 25.000000 0.000002
v -18.749998 25.000000 0.000001
v -18.749998 13.999999 0.000002
v -16.237974 14.000000 9.375000
v -18.749998 25.000000 0.000001
v -16.237974 25.000000 9.374999
v -16.237974 14.000000 9.375000
v -21.650631 15.000001 12.499999
v -16.237974 25.000000 9.374999
v -21.650631 25.000000 12.499998
v -21.650631 15.000001 12.499999
v -24.999998 15.000000 0.000003
v -21.650631 25.000000 12.499998
v -24.999998 25.000000 0.000002
v -21.650631 25.000000 12.499998
v -24.999998 25.000000 0.000002
v -16.237974 25.000000 9.374999
v -18.749998 25.000000 0.000001
v 25.980761 -0.000003 -14.999997
v 30.000000 -0.000002 0.000002
v 21.650635 14.999996 -12.499998
v 25.000000 14.999997 0.000001
v 25.980759 -0.000001 14.999998
v 21.650635 14.999998 12.499999
v 21.650635 14.999996 -12.499998
v 12.499999 14.999995 -21.650633
v 25.980761 -0.000003 -14.999997
v 14.999998 -0.000004 -25.980759
v -0.000001 14.999995 -24.999996
v -0.000001 -0.000004 -29.999994
v -12.500000 14.999995 -21.650633
v -15.000000 -0.000004 -25.980757
v -21.650635 14.999996 -12.499995
v -25.980759 -0.000003 -14.999994
v -24.999998 14.999997 0.000003
v -29.999994 -0.000002 0.000004
v -21.650631 14.999998 12.499999
v -25.980759 -0.000001 15.000001
v -12.499997 14.999999 21.650635
v -14.999996 -0.000000 25.980761
v 0.000002 14.999999 24.999998
v 0.000002 0.000000 29.999996
v 12.500000 14.999999 21.650633
v 15.000000 -0.000000 25.980761
v -12.500000 14.999998 -21.650633
v -9.375000 13.999998 -16.237974
v -12.500000 24.999998 -21.650633
v -9.375001 24.999998 -16.237974
v -9.375000 13.999998 -16.237974
v -16.237974 13.999998 -9.374998
v -9.375001 24.999998 -16.237974
v -16.237976 25.000000 -9.374999
v -16.237974 13.999998 -9.374998
v -21.650635 14.999999 -12.499995
v -16.237976 25.000000 -9.374999
v -21.650635 25.000000 -12.499999
v -21.650635 14.999999 -12.499995
v -12.500000 14.999998 -21.650633
v -21.650635 25.000000 -12.499999
v -12.500000 24.999998 -21.650633
v -21.650635 25.000000 -12.499999
v -12.500000 24.999998 -21.650633
v -16.237976 25.000000 -9.374999
v -9.375001 24.999998 -16.237974
v 12.499999 14.999998 -21.650633
v 9.374999 13.999998 -16.237974
v 12.499999 24.999998 -21.650633
v 9.374999 24.999998 -16.237974
v 9.374999 13.999998 -16.237974
v 0.000000 13.999998 -18.749994
v 9.374999 24.999998 -16.237974
v 0.000000 24.999998 -18.749994
v 0.000000 13.999998 -18.749994
v -0.000001 14.999998 -24.999996
v 0.000000 24.999998 -18.749994
v 0.000000 24.999998 -24.999996
v -0.000001 14.999998 -24.999996
v 12.499999 14.999998 -21.650633
v 0.000000 24.999998 -24.999996
v 12.499999 24.999998 -21.650633
v 21.650635 25.000000 12.499998
v 12.500000 25.000002 21.650633
v 16.237976 25.000000 9.374999
v 9.375001 25.000002 16.237974
v 21.650635 15.000001 12.499999
v 12.500000 15.000002 21.650633
v 21.650635 25.000000 12.499998
v 12.500000 25.000002 21.650633
v 16.237974 14.000000 9.375000
v 21.650635 15.000001 12.499999
v 16.237976 25.000000 9.374999
v 21.650635 25.000000 12.499998
v 9.375000 14.000000 16.237974
v 16.237974 14.000000 9.375000
v 9.375001 25.000002 16.237974
v 16.237976 25.000000 9.374999
v 12.500000 15.000002 21.650633
v 9.375000 14.000000 16.237974
v 12.500000 25.000002 21.650633
v 9.375001 25.000002 16.237974
v 21.650635 25.000000 -12.499999
v 25.000000 25.000000 -0.000001
v 16.237974 25.000000 -9.375001
v 18.750000 25.000000 -0.000001
v 21.650635 14.999999 -12.499998
v 25.000000 15.000000 0.000001
v 21.650635 25.000000 -12.499999
v 25.000000 25.000000 -0.000001
v 16.237974 13.999998 -9.374999
v 21.650635 14.999999 -12.499998
v 16.237974 25.000000 -9.375001
v 21.650635 25.000000 -12.499999
v 18.750000 13.999999 0.000001
v 16.237974 13.999998 -9.374999
v 18.750000 25.000000 -0.000001
v 16.237974 25.000000 -9.375001
v 25.000000 15.000000 0.000001
v 18.750000 13.999999 0.000001
v 25.000000 25.000000 -0.000001
v 18.750000 25.000000 -0.000001
v 0.000000 24.999998 -24.999996
v 12.499999 24.999998 -21.650633
v 0.000000 24.999998 -18.749994
v 9.374999 24.999998 -16.237974
v -12.499997 15.000002 21.650635
v -9.374998 14.000000 16.237976
v -12.499997 25.000002 21.650635
v -9.374998 25.000002 16.237978
v -9.374998 14.000000 16.237976
v 0.000001 14.000000 18.749998
v -9.374998 25.000002 16.237978
v 0.000001 25.000002 18.750000
v 0.000001 14.000000 18.749998
v 0.000002 15.000002 24.999998
v 0.000001 25.000002 18.750000
v 0.000002 25.000002 24.999998
v 0.000002 15.000002 24.999998
v -12.499997 15.000002 21.650635
v 0.000002 25.000002 24.999998
v -12.499997 25.000002 21.650635
v 21.650635 14.999998 12.499999
v 12.500000 14.999999 21.650633
v 0.000000 14.999997 0.000001
v 12.500000 14.999999 21.650633
v 0.000002 14.999999 24.999998
v 0.000002 14.999999 24.999998
v -12.499997 14.999999 21.650635
v -12.499997 14.999999 21.650635
v -21.650631 14.999998 12.499999
v 0.000000 14.999997 0.000001
v -21.650631 14.999998 12.499999
v -24.999998 14.999997 0.000003
v -24.999998 14.999997 0.000003
v -21.650635 14.999996 -12.499995
v -21.650635 14.999996 -12.499995
v -12.500000 14.999995 -21.650633
v -12.500000 14.999995 -21.650633
v -0.000001 14.999995 -24.999996
v 25.000000 14.999997 0.000001
v 21.650635 14.999998 12.499999
v 21.650635 14.999996 -12.499998
v 25.000000 14.999997 0.000001
v 12.499999 14.999995 -21.650633
v 21.650635 14.999996 -12.499998
v -0.000001 14.999995 -24.999996
v 12.499999 14.999995 -21.650633
vn 0.6712 0.5332 -0.5150
vn -0.5877 0.0174 0.8089
vn -0.1045 0.0174 0.9944
vn -0.3237 0.5332 -0.7816
vn -0.9998 0.0174 -0.0000
vn 0.6087 -0.0000 -0.7934
vn -0.6000 0.8000 -0.0000
vn 0.5150 0.5332 -0.6712
vn 0.9239 -0.0000 0.3826
vn 0.7816 0.5332 0.3237
vn 0.7816 0.5332 0.3238
vn -0.5272 0.6693 0.5236
vn -0.8089 0.0174 0.5877
vn 0.8385 0.0174 -0.5446
vn 0.7984 -0.6022 -0.0000
vn 0.6914 -0.6022 -0.3992
vn 0.9944 0.0174 -0.1045
vn 0.6914 -0.6022 0.3992
vn 0.7312 0.0174 0.6819
vn 0.6913 -0.6022 -0.3992
vn 0.5735 -0.0174 -0.8190
vn 0.3992 -0.6022 -0.6914
vn -0.0174 0.0174 -0.9997
vn -0.0000 -0.6022 -0.7984
vn -0.3859 -0.1564 -0.9092
vn -0.3992 -0.6022 -0.6914
vn -0.8190 0.0174 -0.5735
vn -0.6914 -0.6022 -0.3992
vn -0.5755 0.8178 -0.0000
vn -0.7984 -0.6022 -0.0000
vn -0.8385 0.0174 0.5446
vn -0.6914 -0.6022 0.3992
vn -0.6156 0.0174 0.7879
vn -0.3992 -0.6022 0.6914
vn -0.0000 -0.6022 0.7984
vn 0.3906 0.0174 0.9204
vn 0.3992 -0.6022 0.6914
vn 0.9915 -0.0000 0.1305
vn -0.3859 -0.1565 -0.9092
vn 0.8388 0.5332 0.1104
vn 0.1305 -0.0000 0.9914
vn 0.9914 -0.0000 0.1305
vn 0.1104 0.5332 0.8388
vn 0.1305 -0.0000 0.9915
vn 0.1104 0.5331 0.8388
vn 0.8388 0.5331 0.1104
vn 0.3826 -0.0000 0.9239
vn 0.6560 0.0174 -0.7546
vn 0.3238 0.5332 0.7816
vn 0.3237 0.5332 0.7816
vn -0.7934 -0.0000 0.6087
vn -0.6712 0.5332 0.5150
vn -0.1104 0.5331 -0.8388
vn 0.3907 0.0174 0.9204
vn -0.8388 0.5331 -0.1104
vn -0.1104 0.5332 -0.8388
vn 0.7312 0.0175 0.6820
vn -0.1305 -0.0000 -0.9915
vn 0.7312 0.0173 0.6820
vn -0.8388 0.5332 -0.1104
vn -0.1305 -0.0000 -0.9914
vn -0.9914 -0.0000 -0.1305
vn -0.9915 -0.0000 -0.1305
vn 0.9875 0.0174 -0.1564
vn -0.5150 0.5332 0.6712
vn 0.7770 0.0174 -0.6292
vn 0.9875 0.0175 -0.1564
vn 0.7770 0.0174 -0.6293
vn 0.8385 0.0173 -0.5446
vn -0.6087 -0.0000 0.7934
vn -0.3826 -0.0000 -0.9239
vn -0.6156 0.0175 0.7879
vn -0.3238 0.5332 -0.7816
vn 0.7934 -0.0000 -0.6087
vn -0.0000 0.8000 0.6000
vn -0.0000 1.0000 -0.0000
vn -0.0000 0.9998 -0.0174
vn -0.0175 0.0174 -0.9997
vt -1.500000 2.500000
vt -2.000000 2.500000
vt -1.500000 2.750000
vt -2.000000 2.750000
vt -0.500000 2.750000
vt -0.500000 2.500000
vt -1.000000 2.750000
vt -1.000000 2.500000
vt 2.500000 2.500000
vt 2.000000 2.500000
vt 2.500000 2.750000
vt 2.000000 2.750000
vt -0.500000 2.750000
vt -0.500000 2.500000
vt -1.000000 2.750000
vt -1.000000 2.500000
vt -4.000000 1.500000
vt -4.500000 1.500000
vt -4.000000 2.000000
vt -4.500000 2.000000
vt -1.500000 2.500000
vt -2.000000 2.500000
vt -1.500000 2.750000
vt -2.000000 2.750000
vt -1.000000 1.000000
vt -1.500000 1.000000
vt -1.000000 1.500000
vt -1.500000 1.500000
vt -2.000000 1.000000
vt -2.000000 1.500000
vt -7.000000 1.500000
vt -6.500000 1.500000
vt -7.000000 1.000000
vt -6.500000 1.000000
vt -6.000000 1.500000
vt -6.000000 1.000000
vt -5.500000 1.500000
vt -5.500000 1.000000
vt -5.000000 1.500000
vt -5.000000 1.000000
vt -4.500000 1.500000
vt -4.500000 1.000000
vt -4.000000 1.500000
vt -4.000000 1.000000
vt -3.500000 1.500000
vt -3.500000 1.000000
vt -3.000000 1.500000
vt -3.000000 1.000000
vt -2.500000 1.500000
vt -2.500000 1.000000
vt -0.500000 2.750000
vt -0.500000 2.500000
vt -1.000000 2.750000
vt -1.000000 2.500000
vt 2.500000 2.500000
vt 2.000000 2.500000
vt 2.500000 2.750000
vt 2.000000 2.750000
vt -0.500000 2.750000
vt -0.500000 2.500000
vt -1.000000 2.750000
vt -1.000000 2.500000
vt -5.000000 1.500000
vt -5.500000 1.500000
vt -5.000000 2.000000
vt -5.500000 2.000000
vt -1.500000 2.500000
vt -2.000000 2.500000
vt -1.500000 2.750000
vt -2.000000 2.750000
vt -0.500000 2.750000
vt -0.500000 2.500000
vt -1.000000 2.750000
vt -1.000000 2.500000
vt 2.500000 2.500000
vt 2.000000 2.500000
vt 2.500000 2.750000
vt 2.000000 2.750000
vt -0.500000 2.750000
vt -0.500000 2.500000
vt -1.000000 2.750000
vt -1.000000 2.500000
vt -6.000000 1.500000
vt -6.500000 1.500000
vt -6.000000 2.000000
vt -6.500000 2.000000
vt -1.500000 2.500000
vt -2.000000 2.500000
vt -1.500000 2.750000
vt -2.000000 2.750000
vt -2.000000 1.500000
vt -2.500000 1.500000
vt -2.000000 2.000000
vt -2.500000 2.000000
vt -0.500000 2.750000
vt -0.500000 2.500000
vt -1.000000 2.750000
vt -1.000000 2.500000
vt 2.500000 2.500000
vt 2.000000 2.500000
vt 2.500000 2.750000
vt 2.000000 2.750000
vt -0.500000 2.750000
vt -0.500000 2.500000
vt -1.000000 2.750000
vt -1.000000 2.500000
vt -1.500000 2.500000
vt -2.000000 2.500000
vt -1.500000 2.750000
vt -2.000000 2.750000
vt -1.000000 1.500000
vt -1.500000 1.500000
vt -1.000000 2.000000
vt -1.500000 2.000000
vt -0.500000 2.750000
vt -0.500000 2.500000
vt -1.000000 2.750000
vt -1.000000 2.500000
vt 2.500000 2.500000
vt 2.000000 2.500000
vt 2.500000 2.750000
vt 2.000000 2.750000
vt -0.500000 2.750000
vt -0.500000 2.500000
vt -1.000000 2.750000
vt -1.000000 2.500000
vt -1.500000 2.500000
vt -2.000000 2.500000
vt -1.500000 2.750000
vt -2.000000 2.750000
vt -0.500000 2.750000
vt -0.500000 2.500000
vt -1.000000 2.750000
vt -1.000000 2.500000
vt 2.500000 2.500000
vt 2.000000 2.500000
vt 2.500000 2.750000
vt 2.000000 2.750000
vt -0.500000 2.750000
vt -0.500000 2.500000
vt -1.000000 2.750000
vt -1.000000 2.500000
vt -3.000000 1.500000
vt -3.500000 1.500000
vt -3.000000 2.000000
vt -3.500000 2.000000
vt 0.433594 4.000000
vt 0.433594 3.750000
vt 0.003906 3.875000
vt 0.433594 4.000000
vt 0.433594 3.750000
vt 0.433594 4.000000
vt 0.433594 3.750000
vt 0.433594 4.000000
vt 0.433594 3.750000
vt 0.003906 3.875000
vt 0.433594 4.000000
vt 0.433594 3.750000
vt 0.433594 4.000000
vt 0.433594 3.750000
vt 0.433594 4.000000
vt 0.433594 3.750000
vt 0.433594 4.000000
vt 0.433594 3.750000
vt 0.433594 4.000000
vt 0.433594 3.750000
vt 0.433594 4.000000
vt 0.433594 3.750000
vt 0.433594 4.000000
vt 0.433594 3.750000
vt 0.433594 4.000000
vt 0.433594 3.750000
s 1
usemtl Txe_Fdai_v
f 3/3/1 2/2/2 1/1/3
f 3/3/1 4/4/4 2/2/2
f 7/7/5 6/6/6 5/5/7
f 7/7/5 8/8/8 6/6/6
f 11/11/8 10/10/9 9/9/6
f 11/11/8 12/12/10 10/10/9
f 15/15/11 14/14/12 13/13/9
f 15/15/11 16/16/13 14/14/12
f 19/19/13 18/18/7 17/17/12
f 19/19/13 20/20/5 18/18/7
f 23/23/10 22/22/5 21/21/13
f 23/23/10 24/24/8 22/22/5
f 27/27/14 26/26/15 25/25/16
f 27/27/14 28/28/17 26/26/15
f 28/28/17 29/29/18 26/26/15
f 28/28/17 30/30/19 29/29/18
f 33/33/20 32/32/21 31/31/14
f 33/33/20 34/34/22 32/32/21
f 34/34/22 35/35/23 32/32/21
f 34/34/22 36/36/24 35/35/23
f 36/36/24 37/37/25 35/35/23
f 36/36/24 38/38/26 37/37/25
f 38/38/26 39/39/27 37/37/25
f 38/38/26 40/40/28 39/39/27
f 40/40/28 41/41/29 39/39/27
f 40/40/28 42/42/30 41/41/29
f 42/42/30 43/43/31 41/41/29
f 42/42/30 44/44/32 43/43/31
f 44/44/32 45/45/33 43/43/31
f 44/44/32 46/46/34 45/45/33
f 46/46/34 47/47/3 45/45/33
f 46/46/34 48/48/35 47/47/3
f 48/48/35 49/49/36 47/47/3
f 48/48/35 50/50/37 49/49/36
f 50/50/37 30/30/19 49/49/36
f 50/50/37 29/29/18 30/30/19
f 53/53/25 52/52/38 51/51/39
f 53/53/25 54/54/40 52/52/38
f 57/57/40 56/56/41 55/55/42
f 57/57/40 58/58/43 56/56/41
f 61/61/43 60/60/27 59/59/44
f 61/61/43 62/62/27 60/60/27
f 65/65/27 64/64/39 63/63/27
f 65/65/27 66/66/25 64/64/39
f 69/69/45 68/68/25 67/67/27
f 69/69/45 70/70/46 68/68/25
f 73/73/21 72/72/47 71/71/48
f 73/73/21 74/74/49 72/72/47
f 77/77/50 76/76/51 75/75/47
f 77/77/50 78/78/52 76/76/51
f 81/81/52 80/80/23 79/79/51
f 81/81/52 82/82/23 80/80/23
f 85/85/23 84/84/48 83/83/23
f 85/85/23 86/86/21 84/84/48
f 89/89/53 88/88/54 87/87/19
f 89/89/53 90/90/55 88/88/54
f 93/93/19 92/92/54 91/91/19
f 93/93/19 94/94/54 92/92/54
f 97/97/56 96/96/57 95/95/58
f 97/97/56 98/98/59 96/96/57
f 101/101/60 100/100/61 99/99/62
f 101/101/60 102/102/56 100/100/61
f 105/105/36 104/104/63 103/103/36
f 105/105/36 106/106/60 104/104/63
f 109/109/64 108/108/17 107/107/14
f 109/109/64 110/110/65 108/108/17
f 113/113/14 112/112/17 111/111/66
f 113/113/14 114/114/17 112/112/17
f 117/117/67 116/116/68 115/115/64
f 117/117/67 118/118/69 116/116/68
f 121/121/65 120/120/64 119/119/70
f 121/121/65 122/122/64 120/120/64
f 125/125/17 124/124/70 123/123/17
f 125/125/17 126/126/65 124/124/70
f 129/129/52 128/128/21 127/127/23
f 129/129/52 130/130/50 128/128/21
f 133/133/2 132/132/71 131/131/72
f 133/133/2 134/134/73 132/132/71
f 137/137/4 136/136/74 135/135/71
f 137/137/4 138/138/1 136/136/74
f 141/141/1 140/140/75 139/139/74
f 141/141/1 142/142/3 140/140/75
f 145/145/3 144/144/33 143/143/75
f 145/145/3 146/146/2 144/144/33
f 149/149/76 148/148/54 147/147/19
f 149/149/76 151/151/3 150/150/36
f 149/149/76 153/153/33 152/152/3
f 156/156/77 155/155/31 154/154/33
f 156/156/77 158/158/29 157/157/31
f 149/149/76 160/160/27 159/159/29
f 149/149/76 162/162/25 161/161/27
f 156/156/77 164/164/78 163/163/25
f 149/149/76 166/166/19 165/165/17
f 149/149/76 168/168/17 167/167/14
f 149/149/76 170/170/14 169/169/21
f 149/149/76 172/172/21 171/171/23
